{
.appVersion = "3436";
.formatVersion = 3;
axes = (
{
default = 16;
name = "Optical size";
tag = opsz;
}
);
customParameters = (
{
name = vendorID;
value = OMNI;
},
{
name = panose;
value = (
0,
0,
0,
0,
0,
0,
0,
0,
0,
0
);
},
{
name = unicodeRanges;
value = (
0,
1,
2,
3,
4,
5,
6,
7,
29,
31,
32,
33,
35,
36,
38,
45,
60,
62
);
},
{
name = fsType;
value = (
);
},
{
name = glyphOrder;
value = (
.notdef,
A,
Aacute,
Abreve,
uni1EAE,
uni1EB6,
uni1EB0,
uni1EB2,
uni1EB4,
Acircumflex,
uni1EA4,
uni1EAC,
uni1EA6,
uni1EA8,
uni1EAA,
uni0200,
Adieresis,
uni1EA0,
Agrave,
uni1EA2,
uni0202,
Amacron,
Aogonek,
Aring,
Aringacute,
Atilde,
AE,
AEacute,
B,
C,
Cacute,
Ccaron,
Ccedilla,
uni1E08,
Ccircumflex,
Cdotaccent,
D,
uni01C4,
Eth,
Dcaron,
Dcroat,
uni1E0C,
uni1E0E,
uni01C5,
E,
Eacute,
Ebreve,
Ecaron,
uni1E1C,
Ecircumflex,
uni1EBE,
uni1EC6,
uni1EC0,
uni1EC2,
uni1EC4,
uni0204,
Edieresis,
Edotaccent,
uni1EB8,
Egrave,
uni1EBA,
uni0206,
Emacron,
uni1E16,
uni1E14,
Eogonek,
uni1EBC,
F,
G,
Gbreve,
Gcaron,
Gcircumflex,
uni0122,
Gdotaccent,
uni1E20,
H,
Hbar,
uni1E2A,
Hcircumflex,
uni1E24,
I,
Iacute,
Ibreve,
Icircumflex,
uni0208,
Idieresis,
uni1E2E,
Idotaccent,
uni1ECA,
Igrave,
uni1EC8,
uni020A,
Imacron,
Iogonek,
Itilde,
J,
Jcircumflex,
K,
uni0136,
L,
uni01C7,
Lacute,
Lcaron,
uni013B,
Ldot,
uni1E36,
uni01C8,
uni1E3A,
Lslash,
M,
uni1E42,
N,
uni01CA,
Nacute,
Ncaron,
uni0145,
uni1E44,
uni1E46,
Eng,
uni01CB,
uni1E48,
Ntilde,
O,
Oacute,
Obreve,
Ocircumflex,
uni1ED0,
uni1ED8,
uni1ED2,
uni1ED4,
uni1ED6,
uni020C,
Odieresis,
uni022A,
uni0230,
uni1ECC,
Ograve,
uni1ECE,
Ohorn,
uni1EDA,
uni1EE2,
uni1EDC,
uni1EDE,
uni1EE0,
Ohungarumlaut,
uni020E,
Omacron,
uni1E52,
uni1E50,
uni01EA,
Oslash,
Oslashacute,
Otilde,
uni1E4C,
uni1E4E,
uni022C,
OE,
P,
Thorn,
Q,
R,
Racute,
Rcaron,
uni0156,
uni0210,
uni1E5A,
uni0212,
uni1E5E,
S,
Sacute,
uni1E64,
Scaron,
uni1E66,
Scedilla,
Scircumflex,
uni0218,
uni1E60,
uni1E62,
uni1E68,
uni1E9E,
uni018F,
T,
Tbar,
Tcaron,
uni0162,
uni021A,
uni1E6C,
uni1E6E,
U,
Uacute,
Ubreve,

glyphs = (
{
glyphname = .notdef;
layers = (
{
layerId = m01;
shapes = (
{
closed = 1;
nodes = (
(255,43,o),
(361,129,o),
(448,236,o),
(501,349,o),
(501,400,qs),
(501,435,o),
(469,465,o),
(429,465,qs),
(376,465,o),
(265,420,o),
(165,341,o),
(85,239,o),
(39,125,o),
(39,68,qs),
(39,27,o),
(67,-8,o),
(101,-8,qs),
(147,-8,o)
);
},
{
closed = 1;
nodes = (
(167,126,o),
(245,177,o),
(326,234,o),
(395,294,o),
(437,357,o),
(437,389,qs),
(437,430,o),
(393,430,qs),
(357,430,o),
(286,387,o),
(239,323,o),
(239,289,qs),
(239,271,o),
(247,260,q),
(241,260,l),
(231,270,o),
(231,291,qs),
(231,316,o),
(259,368,o),
(306,411,o),
(362,437,o),
(389,437,qs),
(423,437,o),
(467,395,o),
(467,360,qs),
(467,324,o),
(424,265,o),
(353,215,o),
(269,171,o),
(186,128,o),
(118,85,o),
(100,61,q),
(91,61,l),
(105,80,o)
);
}
);
width = 358;
},
{
layerId = "D8AEADB0-1DB0-4081-A325-B35DA37C7650";
shapes = (
{
closed = 1;
nodes = (
(195.878,33.46,o),
(277,100,o),
(344.114,181.709,o),
(385,268,o),
(385,307.569,qs),
(385,334.724,o),
(361,358,o),
(330.216,358,qs),
(289.426,358,o),
(204,323,o),
(127.333,262.331,o),
(66,184,o),
(30,96,o),
(30,52.286,qs),
(30,20.842,o),
(52,-6,o),
(78.02,-6,qs),
(113.224,-6,o)
);
},
{
closed = 1;
nodes = (
(128,96,o),
(188.34,135.667,o),
(251,180,o),
(303,226,o),
(336,274.64,o),
(336,299.346,qs),
(336,331,o),
(302,331,qs),
(274.416,331,o),
(220.013,297.645,o),
(184,248,o),
(184,222.095,qs),
(184,208.381,o),
(190,200,q),
(185.5,200,l),
(178,207,o),
(178,224,qs),
(178,243.156,o),
(200,283,o),
(235,316,o),
(278,336,o),
(298.829,336,qs),
(325.057,336,o),
(359,303,o),
(359,276.873,qs),
(359,250,o),
(326,204,o),
(271,166,o),
(207,131,o),
(143,99,o),
(90.747,65.627,o),
(76.916,47,q),
(70,47,l),
(81,62,o)
);
}
);
width = 275;
}
);
note = .notdef;
},
{
glyphname = A;
layers = (
{
anchors = (
{
name = bottom;
pos = (1084,0);
},
{
name = ogonek;
pos = (1328,-269);
},
{
name = top;
pos = (1614,770);
}
);
layerId = m01;
shapes = (
{
closed = 1;
nodes = (
(1382,-257,o),
(1395,-244,q),
(1393,-235,l),
(1380,-248,o),
(1349,-262,o),
(1328,-262,qs),
(1288,-262,o),
(1235,-213,o),
(1209,-132,o),
(1209,-85,qs),
(1209,-11,o),
(1264,160,o),
(1353,335,o),
(1405,413,qs),
(1446,475,o),
(1544,601,o),
(1656,706,o),
(1783,771,o),
(1852,771,qs),
(1877,771,o),
(1905,760,o),
(1905,752,qs),
(1905,744,o),
(1884,735,o),
(1861,735,qs),
(1791,735,o),
(1640,781,o),
(1477,848,o),
(1300,915,o),
(1109,961,o),
(1005,961,qs),
(891,961,o),
(712,906,o),
(588,814,o),
(524,702,o),
(524,645,qs),
(524,582,o),
(599,469,o),
(750,398,o),
(864,398,qs),
(956,398,o),
(1080,460,o),
(1143,555,o),
(1143,603,qs),
(1143,640,o),
(1103,703,o),
(1022,743,o),
(960,743,qs),
(911,743,o),
(823,718,o),
(793,695,q),
(801,688,l),
(829,709,o),
(912,733,o),
(960,733,qs),
(1019,733,o),
(1096,696,o),
(1133,636,o),
(1133,601,qs),
(1133,556,o),
(1072,467,o),
(953,408,o),
(865,408,qs),
(755,408,o),
(609,474,o),
(537,581,o),
(537,640,qs),
(537,695,o),
(601,803,o),
(724,892,o),
(901,945,o),
(1013,945,qs),
(1118,945,o),
(1309,900,o),
(1483,834,o),
(1644,768,o),
(1793,723,o),
(1864,723,qs),
(1891,723,o),
(1924,737,o),
(1924,749,qs),
(1924,766,o),
(1884,782,o),
(1845,782,qs),
(1781,782,o),
(1659,721,o),
(1549,623,o),
(1454,512,o),
(1417,461,qs),
(1393,429,o),
(1330,335,o),
(1265,222,o),
(1209,100,o),
(1174,-22,o),
(1174,-78,qs),
(1174,-134,o),
(1213,-222,o),
(1283,-271,o),
(1328,-271,qs),
(1350,-271,o)
);
},
{
closed = 1;
nodes = (
(777,-187,o),
(909,-96,o),
(982,26,o),
(982,98,qs),
(982,173,o),
(881,289,o),
(705,355,o),
(592,355,qs),
(494,355,o),
(372,293,o),
(372,243,qs),
(372,153,o),
(516,153,qs),
(572,154,o),
(681,183,o),
(772,237,o),
(826,313,o),
(826,360,qs),
(826,409,o),
(771,476,o),
(685,516,o),
(593,533,o),
(557,533,qs),
(464,533,o),
(314,483,o),
(208,398,o),
(152,288,o),
(152,228,qs),
(152,151,o),
(226,23,o),
(379,-54,o),
(497,-54,qs),
(582,-54,o),
(743,-12,o),
(885,59,o),
(940,103,qs),
(1003,154,o),
(1118,284,o),
(1227,422,o),
(1336,552,o),
(1393,603,qs),
(1416,623,o),
(1498,683,o),
(1608,740,o),
(1672,753,q),
(1646,758,l),
(1586,743,o),
(1482,687,o),
(1406,630,o),
(1387,612,qs),
(1281,510,o),
(1102,339,o),
(947,202,o),
(807,99,o),
(673,30,o),
(537,-5,o),
(463,-5,qs),
(372,-5,o),
(237,53,o),
(162,158,o),
(162,228,qs),
(162,286,o),
(218,392,o),
(321,475,o),
(466,523,o),
(556,523,qs),
(595,523,o),
(685,506,o),
(765,468,o),
(816,406,o),
(816,362,qs),
(816,317,o),
(764,245,o),
(678,192,o),
(571,163,o),
(516,163,qs),
(382,163,o),
(382,243,qs),
(382,288,o),
(498,345,o),
(592,345,qs),
(702,345,o),
(874,281,o),
(972,170,o),
(972,98,qs),
(972,28,o),
(900,-91,o),
(771,-179,o),
(597,-228,o),
(495,-228,qs),
(379,-228,o),
(184,-161,o),
(40,-41,o),
(-40,123,o),
(-40,220,qs),
(-40,322,o),
(45,494,o),
(198,621,o),
(405,691,o),
(527,691,qs),
(655,691,o),
(846,609,o),
(897,533,q),
(904,540,l),
(852,617,o),
(655,701,o),
(527,701,qs),
(403,701,o),
(192,629,o),
(36,499,o),
(-50,323,o),
(-50,220,qs),
(-50,121,o),
(31,-46,o),
(178,-170,o),
(377,-238,o),
(495,-238,qs),
(599,-238,o)
);
},
{
closed = 1;
nodes = (
(1431,275,l),
(979,275,l),
(973,264,l),
(1431,264,l)
);
}
);
width = 1403;
},
{
layerId = "D8AEADB0-1DB0-4081-A325-B35DA37C7650";
shapes = (
{
closed = 1;
nodes = (
(1382,-255,o),
(1393,-243,q),
(1392,-239,l),
(1380,-251,o),
(1349,-264,o),
(1327.7,-264,qs),
(1287.129,-264,o),
(1233.371,-214.246,o),
(1207,-132,o),
(1207,-84.936,qs),
(1207,-10.835,o),
(1262,160.398,o),
(1351,335.637,o),
(1403,413.744,qs),
(1444,475.828,o),
(1542,602,o),
(1655,708,o),
(1782,773,o),
(1852,773,qs),
(1880,773,o),
(1907,760,o),
(1907,752.5,qs),
(1907,745,o),
(1889,733,o),
(1861,733,qs),
(1792,733,o),
(1641,779,o),
(1476,846,o),
(1298,913,o),
(1107,959,o),
(1005,959,qs),
(891.474,959,o),
(713.218,904.348,o),
(589.734,812.93,o),
(526,701.639,o),
(526,645,qs),
(526,582.358,o),
(600,470,o),
(751,400,o),
(863.964,400,qs),
(955.127,400,o),
(1078,462,o),
(1141,555,o),
(1141,602.676,qs),
(1141,639.426,o),
(1101,702,o),
(1021,741,o),
(959.559,741,qs),
(911,741,o),
(825,716,o),
(796,695,q),
(801,691,l),
(830,712,o),
(913,735,o),
(960,735,qs),
(1020,735,o),
(1097,698,o),
(1135,636.737,o),
(1135,601,qs),
(1135,555.664,o),
(1073,466,o),
(953.425,406,o),
(865,406,qs),
(754.141,406,o),
(607,473,o),
(535,580,o),
(535,640,qs),
(535,695.218,o),
(599.342,803.647,o),
(723,893,o),
(900,947,o),
(1013,947,qs),
(1120,947,o),
(1311.523,902,o),
(1486,836,o),
(1645.732,770,o),
(1793.559,725,o),
(1864,725,qs),
(1892,725,o),
(1922,739,o),
(1922,748.931,qs),
(1922,763,o),
(1886,780,o),
(1845,780,qs),
(1782,780,o),
(1660,719.384,o),
(1550,622,o),
(1456,511,o),
(1419,460.086,qs),
(1395,428.141,o),
(1332,334.3,o),
(1267,221.492,o),
(1211,99.698,o),
(1176,-22.095,o),
(1176,-78,qs),
(1176,-131,o),
(1213,-218,o),
(1281,-269,o),
(1328.015,-269,qs),
(1351,-269,o)
);
},
{
closed = 1;
nodes = (
(775,-186,o),
(907,-95,o),
(980,26.188,o),
(980,97.71,qs),
(980,172.211,o),
(879.137,287.439,o),
(704,353,o),
(592.018,353,qs),
(494.901,353,o),
(374,293,o),
(374,243,qs),
(374,155,o),
(516,155,qs),
(572,156,o),
(681,185,o),
(770,238,o),
(824,313.183,o),
(824,359.677,qs),
(824,408.151,o),
(769.023,474.43,o),
(685,514,o),
(593,531,o),
(557.129,531,qs),
(464.462,531,o),
(315,482,o),
(210,397,o),
(154,287.73,o),
(154,228.128,qs),
(154,151.639,o),
(227.904,24.489,o),
(380.086,-52,o),
(497.455,-52,qs),
(582,-52,o),
(742.55,-10,o),
(884.154,61,o),
(939,105,qs),
(1004,157,o),
(1117,285,o),
(1224,422,o),
(1332,551,o),
(1392,604,qs),
(1415,625,o),
(1497.32,685,o),
(1607.75,742,o),
(1672,755,q),
(1646,756,l),
(1586.732,740.789,o),
(1484,684,o),
(1408,627,o),
(1388,610,qs),
(1322,552,o),
(1184,417,o),
(1039,278,o),
(887,151,o),
(726,51,o),
(554,-7,o),
(463,-7,qs),
(375,-7,o),
(238,49,o),
(160,154,o),
(160,228,qs),
(160,286.235,o),
(216.352,392.664,o),
(320,476,o),
(466,525,o),
(556.301,525,qs),
(595.431,525,o),
(685.732,507.691,o),
(766,469,o),
(818,406.589,o),
(818,362.298,qs),
(818,317,o),
(766,243,o),
(678,190,o),
(571,161,o),
(516,161,qs),
(380,161,o),
(380,243,qs),
(380,290,o),
(497.087,347,o),
(591.969,347,qs),
(703,347,o),
(875,283,o),
(974,170,o),
(974,98,qs),
(974,28,o),
(901.642,-92.15,o),
(772,-181,o),
(598,-230,o),
(495.259,-230,qs),
(378.416,-230,o),
(182,-163,o),
(38,-42.155,o),
(-42,123,o),
(-42,220,qs),
(-42,322,o),
(43,494,o),
(196.635,622.289,o),
(404.494,693,o),
(527,693,qs),
(653,693,o),
(845,612,o),
(897,536,q),
(901,540,l),
(849,616,o),
(655,699,o),
(527,699,qs),
(403.74,699,o),
(194,627,o),
(38,497.85,o),
(-48,323,o),
(-48,220,qs),
(-48,121,o),
(33,-46,o),
(179,-168,o),
(377.527,-236,o),
(495.247,-236,qs),
(599,-236,o)
);
},
{
closed = 1;
nodes = (
(1429,273,l),
(980,273,l),
(976,266,l),
(1429,266,l)
);
}
);
width = 1367;
}
);
note = A;
unicode = 65;
},
{
glyphname = AE;
layers = (
{
anchors = (
{
name = top;
pos = (1614,770);
}
);
layerId = m01;
shapes = (
{
closed = 1;
nodes = (
(777,-187,o),
(909,-96,o),
(982,26,o),
(982,98,qs),
(982,173,o),
(881,289,o),
(705,355,o),
(592,355,qs),
(494,355,o),
(372,293,o),
(372,243,qs),
(372,153,o),
(516,153,qs),
(572,154,o),
(681,183,o),
(772,237,o),
(826,313,o),
(826,360,qs),
(826,409,o),
(771,476,o),
(685,516,o),
(593,533,o),
(557,533,qs),
(464,533,o),
(314,483,o),
(208,398,o),
(152,288,o),
(152,228,qs),
(152,151,o),
(226,23,o),
(379,-54,o),
(497,-54,qs),
(582,-54,o),
(743,-12,o),
(885,59,o),
(940,103,qs),
(1003,154,o),
(1118,284,o),
(1227,422,o),
(1336,552,o),
(1393,603,qs),
(1416,623,o),
(1498,683,o),
(1608,740,o),
(1672,753,q),
(1646,758,l),
(1586,743,o),
(1482,687,o),
(1406,630,o),
(1387,612,qs),
(1281,510,o),
(1102,339,o),
(947,202,o),
(807,99,o),
(673,30,o),
(537,-5,o),
(463,-5,qs),
(372,-5,o),
(237,53,o),
(162,158,o),
(162,228,qs),
(162,286,o),
(218,392,o),
(321,475,o),
(466,523,o),
(556,523,qs),
(595,523,o),
(685,506,o),
(765,468,o),
(816,406,o),
(816,362,qs),
(816,317,o),
(764,245,o),
(678,192,o),
(571,163,o),
(516,163,qs),
(382,163,o),
(382,243,qs),
(382,288,o),
(498,345,o),
(592,345,qs),
(702,345,o),
(874,281,o),
(972,170,o),
(972,98,qs),
(972,28,o),
(900,-91,o),
(771,-179,o),
(597,-228,o),
(495,-228,qs),
(379,-228,o),
(184,-161,o),
(40,-41,o),
(-40,123,o),
(-40,220,qs),
(-40,322,o),
(45,494,o),
(198,621,o),
(405,691,o),
(527,691,qs),
(655,691,o),
(846,609,o),
(897,533,q),
(904,540,l),
(852,617,o),
(655,701,o),
(527,701,qs),
(403,701,o),
(192,629,o),
(36,499,o),
(-50,323,o),
(-50,220,qs),
(-50,121,o),
(31,-46,o),
(178,-170,o),
(377,-238,o),
(495,-238,qs),
(599,-238,o)
);
},
{
closed = 1;
nodes = (
(1310,275,l),
(979,275,l),
(973,264,l),
(1310,264,l)
);
},
{
closed = 1;
nodes = (
(1275,153,o),
(1330,303,o),
(1425,460,o),
(1546,605,o),
(1681,718,o),
(1747,748,q),
(1671,768,o),
(1499,838,o),
(1311,911,o),
(1110,961,o),
(1005,961,qs),
(891,961,o),
(712,906,o),
(588,814,o),
(524,702,o),
(524,645,qs),
(524,582,o),
(599,469,o),
(750,398,o),
(864,398,qs),
(956,398,o),
(1080,460,o),
(1143,555,o),
(1143,603,qs),
(1143,640,o),
(1103,703,o),
(1022,743,o),
(960,743,qs),
(911,743,o),
(823,718,o),
(793,695,q),
(801,688,l),
(829,709,o),
(912,733,o),
(960,733,qs),
(1019,733,o),
(1096,696,o),
(1133,636,o),
(1133,601,qs),
(1133,556,o),
(1072,467,o),
(953,408,o),
(865,408,qs),
(755,408,o),
(609,474,o),
(537,581,o),
(537,640,qs),
(537,695,o),
(601,803,o),
(724,892,o),
(901,945,o),
(1013,945,qs),
(1118,945,o),
(1315,899,o),
(1493,832,o),
(1652,766,o),
(1720,746,q),
(1654,712,o),
(1517,596,o),
(1394,450,o),
(1296,295,o),
(1240,149,o),
(1241,91,q),
(1276,91,l)
);
},
{
closed = 1;
nodes = (
(1737,-92,o),
(1856,17,o),
(1926,154,o),
(1926,228,qs),
(1926,340,o),
(1823,340,qs),
(1779,340,o),
(1688,290,o),
(1611,208,o),
(1564,110,o),
(1564,63,qs),
(1564,26,o),
(1596,-17,o),
(1621,-16,q),
(1621,-7,l),
(1600,-8,o),
(1574,30,o),
(1574,61,qs),
(1574,107,o),
(1619,202,o),
(1693,282,o),
(1779,331,o),
(1821,331,qs),
(1917,331,o),
(1917,228,qs),
(1917,174,o),
(1873,67,o),
(1795,-29,o),
(1695,-102,o),
(1582,-144,o),
(1524,-144,qs),
(1424,-144,o),
(1309,-28,o),
(1309,72,qs),
(1309,136,o),
(1358,263,o),
(1443,376,o),
(1553,464,o),
(1676,515,o),
(1737,515,qs),
(1765,515,o),
(1800,500,o),
(1800,489,qs),
(1800,473,o),
(1764,473,qs),
(1736,473,o),
(1705,516,o),
(1705,553,qs),
(1705,607,o),
(1760,713,o),
(1852,801,o),
(1964,853,o),
(2021,853,qs),
(2077,853,o),
(2138,795,o),
(2138,741,qs),
(2138,697,o),
(2097,614,o),
(2035,560,o),
(2001,560,qs),
(1981,560,o),
(1957,591,o),
(1957,617,qs),
(1957,654,o),
(2004,729,o),
(2080,791,o),
(2172,828,o),
(2217,828,q),
(2217,838,l),
(2169,838,o),
(2074,799,o),
(1995,733,o),
(1947,654,o),
(1947,615,qs),
(1947,586,o),
(1977,550,o),
(2001,550,qs),
(2038,550,o),
(2104,605,o),
(2147,693,o),
(2147,740,qs),
(2147,799,o),
(2079,864,o),
(2015,864,qs),
(1954,864,o),
(1836,812,o),
(1740,725,o),
(1683,618,o),
(1683,563,qs),
(1683,518,o),
(1728,463,o),
(1764,463,qs),
(1785,463,o),
(1810,478,o),
(1810,490,qs),
(1811,507,o),
(1769,524,o),
(1734,524,qs),
(1666,524,o),
(1526,473,o),
(1399,386,o),
(1299,275,o),
(1241,152,o),
(1241,93,qs),
(1241,-22,o),
(1382,-156,o),
(1505,-156,qs),
(1586,-156,o)
);
}
);
width = 1922;
},
{
layerId = "D8AEADB0-1DB0-4081-A325-B35DA37C7650";
shapes = (
{
closed = 1;
nodes = (
(775,-186,o),
(907,-95,o),
(980,26.188,o),
(980,97.71,qs),
(980,172.211,o),
(879.137,287.439,o),
(704,353,o),
(592.018,353,qs),
(494.901,353,o),
(374,293,o),
(374,243,qs),
(374,155,o),
(516,155,qs),
(572,155,o),
(681,184,o),
(770,238,o),
(824,313.183,o),
(824,359.677,qs),
(824,408.151,o),
(769.023,474.43,o),
(685,514,o),
(593,531,o),
(557.129,531,qs),
(464.462,531,o),
(315,482,o),
(210,397,o),
(154,287.73,o),
(154,228.128,qs),
(154,151.639,o),
(227.904,24.489,o),
(380.086,-52,o),
(497.455,-52,qs),
(582,-52,o),
(742.55,-10,o),
(884.154,61,o),
(939,105,qs),
(1004,157,o),
(1117,285,o),
(1224,422,o),
(1332,551,o),
(1392,604,qs),
(1415,625,o),
(1497.32,685,o),
(1607.75,742,o),
(1672,755,q),
(1646,756,l),
(1586.732,740.789,o),
(1484,684,o),
(1408,627,o),
(1388,610,qs),
(1322,552,o),
(1184,417,o),
(1039,278,o),
(887,151,o),
(726,51,o),
(554,-7,o),
(463,-7,qs),
(375,-7,o),
(238,49,o),
(160,154,o),
(160,228,qs),
(160,286.235,o),
(216.352,392.664,o),
(320,476,o),
(466,525,o),
(556.301,525,qs),
(595.431,525,o),
(685.732,507.691,o),
(766,469,o),
(818,406.589,o),
(818,362.298,qs),
(818,317,o),
(765,243,o),
(675,190,o),
(566.679,161,o),
(511,161,qs),
(380,161,o),
(380,243,qs),
(380,290,o),
(497.087,347,o),
(591.969,347,qs),
(703,347,o),
(875,283,o),
(974,170,o),
(974,98,qs),
(974,28,o),
(901.642,-92.15,o),
(772,-181,o),
(598,-230,o),
(495.259,-230,qs),
(378.416,-230,o),
(182,-163,o),
(38,-42.155,o),
(-42,123,o),
(-42,220,qs),
(-42,322,o),
(43,494,o),
(196.635,622.289,o),
(404.494,693,o),
(527,693,qs),
(653,693,o),
(845,612,o),
(897,536,q),
(901,540,l),
(849,616,o),
(655,699,o),
(527,699,qs),
(403.74,699,o),
(194,627,o),
(38,497.85,o),
(-48,323,o),
(-48,220,qs),
(-48,121,o),
(33,-46,o),
(179,-168,o),
(377.527,-236,o),
(495.247,-236,qs),
(599,-236,o)
);
},
{
closed = 1;
nodes = (
(1308,273,l),
(980,273,l),
(976,266,l),
(1308,266,l)
);
},
{
closed = 1;
nodes = (
(1274,153,o),
(1327,303,o),
(1420,460,o),
(1540,605,o),
(1677,718,o),
(1746,749,q),
(1665,770,o),
(1492,840,o),
(1307,911,o),
(1110,959,o),
(1005,959,qs),
(891.474,959,o),
(713.218,904.348,o),
(589.734,812.93,o),
(526,701.639,o),
(526,645,qs),
(526,582.358,o),
(600,470,o),
(751,400,o),
(863.964,400,qs),
(955.127,400,o),
(1078,462,o),
(1141,555,o),
(1141,602.676,qs),
(1141,639.426,o),
(1101,702,o),
(1021,741,o),
(959.559,741,qs),
(911,741,o),
(825,716,o),
(796,695,q),
(801,691,l),
(830,712,o),
(913,735,o),
(960,735,qs),
(1020,735,o),
(1097,698,o),
(1135,636.737,o),
(1135,601,qs),
(1135,555.664,o),
(1073,466,o),
(953.425,406,o),
(865,406,qs),
(754.141,406,o),
(607,473,o),
(535,580,o),
(535,640,qs),
(535,695.218,o),
(599.342,803.647,o),
(723,893,o),
(900,947,o),
(1013,947,qs),
(1120,947,o),
(1313.848,901.407,o),
(1489,835,o),
(1650,768,o),
(1725,747,q),
(1659,714,o),
(1523,598,o),
(1398,453,o),
(1300,298,o),
(1243,151,o),
(1243,93,q),
(1274,93,l)
);
},
{
closed = 1;
nodes = (
(1736,-91,o),
(1855,18,o),
(1924,155,o),
(1924,227.806,qs),
(1924,338,o),
(1823,338,qs),
(1779.34,338,o),
(1689.042,288.361,o),
(1612.637,206.953,o),
(1566,109.661,o),
(1566,63,qs),
(1566,29,o),
(1595,-14,o),
(1619,-13.5,q),
(1619,-9,l),
(1598,-9,o),
(1572,29.551,o),
(1572,61,qs),
(1572,107.341,o),
(1617.364,203.044,o),
(1691.964,283.637,o),
(1778.66,333,o),
(1821,333,qs),
(1919,333,o),
(1919,228.032,qs),
(1919,173,o),
(1875,66,o),
(1797,-30,o),
(1696,-104,o),
(1582.122,-146,o),
(1523.671,-146,qs),
(1422.894,-146,o),
(1307,-29.149,o),
(1307,72,qs),
(1307,136,o),
(1356,263,o),
(1442,378,o),
(1552,466,o),
(1675,517,o),
(1737.476,517,qs),
(1766.153,517,o),
(1802,501,o),
(1802,488.778,qs),
(1802,471,o),
(1764,471,qs),
(1736,471,o),
(1703,514,o),
(1703,553,qs),
(1703,607.337,o),
(1758,714,o),
(1851,802,o),
(1963.663,855,o),
(2021,855,qs),
(2077.957,855,o),
(2140,796,o),
(2140,741.449,qs),
(2140,697,o),
(2099,612,o),
(2035.397,558,o),
(2000.517,558,qs),
(1980,558,o),
(1955,590.088,o),
(1955,617,qs),
(1955,654,o),
(2001,729,o),
(2078,792,o),
(2170,830,o),
(2215,830,q),
(2215,836,l),
(2167.711,836,o),
(2074.119,797.35,o),
(1996.289,731.942,o),
(1949,653.65,o),
(1949,615,qs),
(1949,586.892,o),
(1978.011,552,o),
(2001.22,552,qs),
(2037,552,o),
(2103,607,o),
(2145,693,o),
(2145,740,qs),
(2145,799,o),
(2077,862,o),
(2014.536,862,qs),
(1955,862,o),
(1837.435,810.211,o),
(1741.79,723.565,o),
(1685,617,o),
(1685,563.065,qs),
(1685,518.935,o),
(1729,465,o),
(1763.699,465,qs),
(1783.94,465,o),
(1808.036,478.636,o),
(1808.036,489.545,qs),
(1809,505,o),
(1769,522,o),
(1734.095,522,qs),
(1666.278,522,o),
(1526.657,471,o),
(1400,384,o),
(1300.633,273.949,o),
(1243,152,o),
(1243,93,qs),
(1243,-22,o),
(1383,-154,o),
(1505.307,-154,qs),
(1585.851,-154,o)
);
}
);
width = 1922;
}
);
note = AE;
unicode = 198;
},
{
glyphname = B;
layers = (
{
layerId = m01;
shapes = (
{
closed = 1;
nodes = (
(763,516,o),
(790,481,o),
(790,463,qs),
(790,437,o),
(739,381,o),
(638,343,o),
(562,343,qs),
(508,343,o),
(406,375,o),
(324,435,o),
(275,522,o),
(275,577,qs),
(275,644,o),
(354,775,o),
(498,883,o),
(696,948,o),
(814,948,qs),
(928,948,o),
(1101,888,o),
(1218,787,o),
(1277,662,o),
(1277,597,qs),
(1277,550,o),
(1241,457,o),
(1171,380,o),
(1068,334,o),
(1001,334,qs),
(973,334,o),
(940,346,o),
(940,356,qs),
(940,365,o),
(960,376,o),
(975,376,qs),
(1007,376,o),
(1044,343,o),
(1061,294,o),
(1061,269,qs),
(1061,225,o),
(999,123,o),
(887,32,o),
(736,-26,o),
(647,-26,qs),
(584,-26,o),
(468,5,o),
(364,44,o),
(272,75,o),
(232,75,qs),
(199,75,o),
(164,51,o),
(164,28,qs),
(164,3,o),
(210,-28,o),
(302,-43,o),
(372,-43,qs),
(465,-43,o),
(608,15,o),
(721,114,o),
(816,238,o),
(904,374,o),
(996,505,o),
(1050,560,qs),
(1091,600,o),
(1193,664,o),
(1231,676,q),
(1180,676,l),
(1146,657,o),
(1077,603,o),
(1042,568,qs),
(932,465,o),
(767,286,o),
(631,142,o),
(505,40,o),
(365,-14,o),
(277,-14,qs),
(174,-14,o),
(174,30,qs),
(174,47,o),
(206,64,o),
(236,64,qs),
(275,64,o),
(363,34,o),
(464,-6,o),
(580,-36,o),
(647,-36,qs),
(752,-36,o),
(914,17,o),
(1026,104,o),
(1083,204,o),
(1083,251,qs),
(1083,286,o),
(1057,347,o),
(1006,386,o),
(970,386,qs),
(951,386,o),
(928,371,o),
(928,358,qs),
(928,343,o),
(969,325,o),
(1001,325,qs),
(1071,325,o),
(1178,373,o),
(1251,452,o),
(1288,548,o),
(1288,597,qs),
(1288,664,o),
(1227,792,o),
(1108,896,o),
(932,958,o),
(816,958,qs),
(689,958,o),
(485,890,o),
(341,778,o),
(265,643,o),
(265,575,qs),
(265,520,o),
(315,430,o),
(401,367,o),
(507,333,o),
(562,333,qs),
(641,333,o),
(746,374,o),
(800,435,o),
(800,463,qs),
(800,483,o),
(771,523,o),
(706,550,o),
(652,550,qs),
(574,549,o),
(444,494,o),
(366,404,o),
(366,350,qs),
(366,304,o),
(424,221,o),
(545,169,o),
(640,169,qs),
(732,169,o),
(876,218,o),
(978,302,o),
(1031,410,o),
(1031,468,qs),
(1031,535,o),
(965,634,o),
(851,700,o),
(709,733,o),
(632,733,qs),
(505,733,o),
(294,673,o),
(130,569,o),
(17,431,o),
(-42,274,o),
(-42,192,qs),
(-42,104,o),
(28,-65,o),
(172,-203,o),
(391,-285,o),
(539,-285,qs),
(597,-285,o),
(724,-266,o),
(850,-228,o),
(962,-171,o),
(1004,-133,q),
(996,-125,l),
(953,-164,o),
(841,-220,o),
(716,-257,o),
(593,-275,o),
(539,-275,qs),
(393,-275,o),
(178,-195,o),
(38,-61,o),
(-31,104,o),
(-31,190,qs),
(-31,270,o),
(26,425,o),
(137,561,o),
(298,664,o),
(506,723,o),
(632,723,qs),
(708,723,o),
(848,691,o),
(957,628,o),
(1021,532,o),
(1021,468,qs),
(1021,411,o),
(969,307,o),
(871,227,o),
(730,180,o),
(640,180,qs),
(550,180,o),
(433,229,o),
(376,307,o),
(376,350,qs),
(376,401,o),
(451,486,o),
(577,539,o),
(652,540,qs),
(703,540,o)
);
}
);
width = 1136;
},
{
layerId = "D8AEADB0-1DB0-4081-A325-B35DA37C7650";
shapes = (
{
closed = 1;
nodes = (
(765,518,o),
(792,481,o),
(792,462.591,qs),
(792,436,o),
(741,380,o),
(639,341,o),
(562.274,341,qs),
(507.758,341,o),
(404.783,373.348,o),
(322,434,o),
(273,521.509,o),
(273,576.83,qs),
(273,644.222,o),
(352.116,775.988,o),
(496.672,884.62,o),
(695.436,950,o),
(813.892,950,qs),
(928.332,950,o),
(1102,890,o),
(1219,788,o),
(1279,662.342,o),
(1279,597,qs),
(1279,549.329,o),
(1243,455,o),
(1172,378,o),
(1068.394,332,o),
(1001,332,qs),
(970,332,o),
(938,346,o),
(938,356,qs),
(938,365.9,o),
(959.143,378,o),
(975,378,qs),
(1007,378,o),
(1046,344,o),
(1063,294,o),
(1063,268.844,qs),
(1063,224.569,o),
(1000.618,121.931,o),
(887.929,30.363,o),
(736,-28,o),
(647.332,-28,qs),
(584.567,-28,o),
(469,3,o),
(363.939,42,o),
(271,73,o),
(232,73,qs),
(193,73,o),
(166,45,o),
(166,28,qs),
(166,12,o),
(196,-20,o),
(284,-41,o),
(372,-41,qs),
(465,-41,o),
(607.185,17,o),
(719.541,116,o),
(814,240,o),
(902,375.491,o),
(994,506,o),
(1049,561,qs),
(1093,605,o),
(1191,664,o),
(1231,674,q),
(1180,674,l),
(1149,657,o),
(1081,605,o),
(1043,567,qs),
(940,467,o),
(778,291,o),
(640,146,o),
(507,41,o),
(364,-16,o),
(277,-16,qs),
(172,-16,o),
(172,30,qs),
(172,43,o),
(197,66,o),
(236,66,qs),
(277,66,o),
(364.134,36,o),
(464.141,-4,o),
(579,-34,o),
(647,-34,qs),
(751.518,-34,o),
(912.775,18.779,o),
(1024.261,105.417,o),
(1081,205,o),
(1081,250.854,qs),
(1081,285,o),
(1055,346,o),
(1006,384,o),
(970,384,qs),
(954,384,o),
(930,371,o),
(930,358,qs),
(930,345,o),
(967,327,o),
(1001,327,qs),
(1070,327,o),
(1177,374,o),
(1249.336,453,o),
(1286,549,o),
(1286,597.155,qs),
(1286,663,o),
(1226,791,o),
(1107,895,o),
(931.603,956,o),
(816,956,qs),
(689.384,956,o),
(486,889,o),
(343,777,o),
(267,642.657,o),
(267,574.988,qs),
(267,520.255,o),
(317,430.693,o),
(402,368,o),
(507,335,o),
(561.77,335,qs),
(640.439,335,o),
(745,376,o),
(798,435,o),
(798,463,qs),
(798,483,o),
(769.392,521.806,o),
(705.27,548,o),
(652,548,qs),
(572,547,o),
(443,491,o),
(368,402,o),
(368,350,qs),
(368,304.357,o),
(425,222,o),
(546,171,o),
(639.984,171,qs),
(731,171,o),
(875,220,o),
(976.342,303.125,o),
(1029,410,o),
(1029,467.741,qs),
(1029,534.442,o),
(963,633,o),
(851,699,o),
(709,731,o),
(632,731,qs),
(505,731,o),
(294,672,o),
(131,567,o),
(18,430,o),
(-40,273,o),
(-40,191.965,qs),
(-40,105,o),
(30,-64,o),
(173.207,-201.373,o),
(391,-283,o),
(538.556,-283,qs),
(596.381,-283,o),
(723,-265,o),
(848.1,-227.286,o),
(959.3,-170.714,o),
(1001,-133,q),
(996,-128,l),
(953,-166,o),
(840,-222,o),
(715.504,-259,o),
(593,-277,o),
(538.827,-277,qs),
(392.359,-277,o),
(176.67,-196.656,o),
(36.221,-62.08,o),
(-33,103.63,o),
(-33,190,qs),
(-33,270.216,o),
(24.339,425.633,o),
(136,562,o),
(297.226,665.636,o),
(505.519,725,o),
(631.696,725,qs),
(707.803,725,o),
(848,693,o),
(959,629,o),
(1023,533,o),
(1023,468.37,qs),
(1023,410.81,o),
(970.653,305.787,o),
(872,225,o),
(730.145,178,o),
(639.6,178,qs),
(549.055,178,o),
(431.345,227.033,o),
(374,306.301,o),
(374,350,qs),
(374,400,o),
(448,487,o),
(574,541,o),
(652,542,qs),
(703,542,o)
);
}
);
width = 1100;
}
);
note = B;
unicode = 66;
},
{
glyphname = C;
layers = (
{
anchors = (
{
name = bottom;
pos = (463,-142);
},
{
name = top;
pos = (950,770);
}
);
layerId = m01;
shapes = (
{
closed = 1;
nodes = (
(637,-112,o),
(756,-45,o),
(874,55,o),
(933,120,qs),
(977,169,l),
(967,169,l),
(924,122,ls),
(865,58,o),
(749,-39,o),
(634,-103,o),
(520,-135,o),
(463,-135,qs),
(398,-135,o),
(310,-87,o),
(266,7,o),
(266,76,qs),
(266,160,o),
(332,330,o),
(445,489,o),
(586,626,o),
(737,728,o),
(879,786,o),
(935,786,qs),
(969,786,o),
(1027,763,o),
(1063,707,o),
(1063,659,qs),
(1063,598,o),
(1015,469,o),
(933,345,o),
(830,235,o),
(720,152,o),
(616,104,o),
(574,104,qs),
(537,104,o),
(492,159,o),
(492,208,qs),
(492,252,o),
(530,349,o),
(594,444,o),
(671,528,o),
(751,593,o),
(821,631,o),
(844,631,qs),
(864,631,o),
(888,610,o),
(888,590,qs),
(888,548,o),
(828,450,o),
(723,350,o),
(583,258,o),
(423,185,o),
(254,142,o),
(172,142,qs),
(84,142,o),
(-63,192,o),
(-151,282,o),
(-151,342,qs),
(-151,404,o),
(-79,504,o),
(50,575,o),
(221,614,o),
(319,614,qs),
(430,614,o),
(639,558,o),
(819,461,o),
(885,399,q),
(892,408,l),
(824,470,o),
(643,568,o),
(432,625,o),
(319,625,qs),
(213,625,o),
(37,584,o),
(-92,509,o),
(-162,405,o),
(-162,343,qs),
(-162,295,o),
(-110,217,o),
(-18,161,o),
(102,131,o),
(170,131,qs),
(255,131,o),
(428,175,o),
(591,250,o),
(732,344,o),
(839,447,o),
(899,547,o),
(899,590,qs),
(899,613,o),
(869,641,o),
(843,641,qs),
(818,641,o),
(745,602,o),
(664,535,o),
(585,448,o),
(521,350,o),
(482,249,o),
(482,203,qs),
(482,148,o),
(537,93,o),
(574,93,qs),
(617,93,o),
(723,141,o),
(836,226,o),
(941,337,o),
(1025,463,o),
(1074,596,o),
(1074,659,qs),
(1074,711,o),
(1031,772,o),
(964,800,o),
(928,800,qs),
(859,800,o),
(700,749,o),
(540,657,o),
(394,532,o),
(279,382,o),
(213,216,o),
(213,129,qs),
(213,78,o),
(238,-19,o),
(294,-99,o),
(391,-146,o),
(463,-146,qs),
(520,-146,o)
);
}
);
width = 967;
},
{
layerId = "D8AEADB0-1DB0-4081-A325-B35DA37C7650";
shapes = (
{
closed = 1;
nodes = (
(634,-105,o),
(759,-34,o),
(879,63,o),
(931,121,qs),
(939,130,l),
(931,130,l),
(923,121,ls),
(873,65,o),
(754,-30,o),
(631,-99,o),
(513,-137,o),
(463,-137,qs),
(392,-137,o),
(304,-83,o),
(264,13,o),
(264,76,qs),
(264,161,o),
(331,331,o),
(444,490,o),
(585,627.461,o),
(736,729.805,o),
(878,788,o),
(934.757,788,qs),
(969.216,788,o),
(1028,764,o),
(1065,707.661,o),
(1065,659.37,qs),
(1065,598,o),
(1016.631,467.98,o),
(934,343,o),
(831,234,o),
(721,150,o),
(616.288,102,o),
(574,102,qs),
(540,102,o),
(490,154,o),
(490,208,qs),
(490,253,o),
(528,349,o),
(592.454,445.061,o),
(670,530,o),
(750,595,o),
(820,633,o),
(844,633,qs),
(867,633,o),
(890,608,o),
(890,590,qs),
(890,548,o),
(830,450,o),
(724,349,o),
(585,256,o),
(424.257,183,o),
(254.472,140,o),
(172.091,140,qs),
(83.683,140,o),
(-64,190,o),
(-153,281,o),
(-153,341.614,qs),
(-153,404.249,o),
(-80.284,505.273,o),
(50,577,o),
(220.778,616,o),
(318.65,616,qs),
(429.506,616,o),
(638.234,560.149,o),
(818,464,o),
(885,402,q),
(889,408,l),
(822,470,o),
(641,567,o),
(431.302,623,o),
(319,623,qs),
(216,623,o),
(41,583,o),
(-89.296,508.838,o),
(-160,406,o),
(-160,343,qs),
(-160,296,o),
(-108.264,218.476,o),
(-16.732,162.817,o),
(102.658,133,o),
(170.312,133,qs),
(254.88,133,o),
(427,177,o),
(590,251,o),
(730.542,345,o),
(837.195,448,o),
(897,548,o),
(897,590.348,qs),
(897,613,o),
(868.071,639,o),
(843,639,qs),
(818.255,639,o),
(746,601,o),
(665,533,o),
(586,447,o),
(522,349,o),
(484,248.687,o),
(484,203,qs),
(484,149,o),
(537.804,95,o),
(574,95,qs),
(616.672,95,o),
(721.863,142.639,o),
(834,227,o),
(939,338,o),
(1023,463.514,o),
(1072,596,o),
(1072,658.642,qs),
(1072,710.347,o),
(1030,771,o),
(964,798,o),
(928.136,798,qs),
(859.398,798,o),
(701,747,o),
(541,655,o),
(395,530,o),
(280.635,380.661,o),
(215,215.392,o),
(215,128.775,qs),
(215,78,o),
(239,-19,o),
(296,-97,o),
(391,-144,o),
(463,-144,qs),
(514,-144,o)
);
}
);
width = 931;
}
);
note = C;
unicode = 67;
},
{
glyphname = D;
layers = (
{
anchors = (
{
name = center;
pos = (777,280);
}
);
layerId = m01;
shapes = (
{
closed = 1;
nodes = (
(416,512,o),
(334,412,o),
(334,350,qs),
(334,296,o),
(402,214,o),
(525,169,o),
(608,169,qs),
(692,169,o),
(835,214,o),
(940,295,o),
(999,404,o),
(999,468,qs),
(999,548,o),
(897,667,o),
(714,733,o),
(590,733,qs),
(472,733,o),
(261,674,o),
(86,567,o),
(-41,421,o),
(-111,244,o),
(-111,145,qs),
(-111,37,o),
(-26,-142,o),
(129,-273,o),
(341,-345,o),
(469,-345,qs),
(561,-345,o),
(734,-307,o),
(884,-238,o),
(999,-141,o),
(1033,-81,q),
(1024,-76,l),
(991,-134,o),
(878,-229,o),
(731,-298,o),
(560,-335,o),
(469,-335,qs),
(344,-335,o),
(135,-265,o),
(-18,-137,o),
(-101,39,o),
(-101,145,qs),
(-101,242,o),
(-32,416,o),
(94,560,o),
(266,666,o),
(474,723,o),
(590,723,qs),
(710,723,o),
(890,660,o),
(989,545,o),
(989,468,qs),
(989,406,o),
(932,300,o),
(829,222,o),
(690,179,o),
(608,179,qs),
(529,179,o),
(410,222,o),
(344,299,o),
(344,350,qs),
(344,409,o),
(424,505,o),
(558,562,o),
(639,562,qs),
(717,562,o),
(810,511,o),
(810,467,qs),
(810,427,o),
(736,361,o),
(612,321,o),
(536,321,qs),
(433,321,o),
(273,390,o),
(182,511,o),
(182,590,qs),
(182,660,o),
(251,779,o),
(375,868,o),
(542,917,o),
(639,917,qs),
(743,917,o),
(918,859,o),
(1047,753,o),
(1119,609,o),
(1119,524,qs),
(1119,412,o),
(1032,218,o),
(878,71,o),
(675,-12,o),
(558,-12,qs),
(503,-12,o),
(407,14,o),
(322,49,o),
(242,75,o),
(203,75,qs),
(170,75,o),
(135,51,o),
(135,28,qs),
(135,3,o),
(181,-28,o),
(273,-43,o),
(343,-43,qs),
(435,-43,o),
(582,20,o),
(701,125,o),
(802,254,o),
(890,390,o),
(976,514,o),
(1021,560,qs),
(1062,600,o),
(1164,664,o),
(1202,676,q),
(1151,676,l),
(1117,657,o),
(1048,603,o),
(1013,568,qs),
(971,528,o),
(869,418,o),
(756,295,o),
(641,177,o),
(585,129,qs),
(506,61,o),
(330,-14,o),
(247,-14,qs),
(145,-14,o),
(145,30,qs),
(145,47,o),
(178,64,o),
(207,64,qs),
(246,64,o),
(320,38,o),
(402,4,o),
(498,-22,o),
(558,-22,qs),
(682,-22,o),
(890,66,o),
(1044,219,o),
(1129,415,o),
(1129,524,qs),
(1129,611,o),
(1056,758,o),
(924,867,o),
(746,927,o),
(641,927,qs),
(530,927,o),
(356,870,o),
(235,774,o),
(172,654,o),
(172,590,qs),
(172,514,o),
(259,387,o),
(422,311,o),
(535,311,qs),
(630,311,o),
(757,361,o),
(821,433,o),
(821,467,qs),
(821,515,o),
(722,572,o),
(639,572,qs),
(555,572,o)
);
}
);
width = 1075;
},
{
layerId = "D8AEADB0-1DB0-4081-A325-B35DA37C7650";
shapes = (
{
closed = 1;
nodes = (
(418,511,o),
(336,411.463,o),
(336,349.75,qs),
(336,296,o),
(403.593,215.291,o),
(525.856,171,o),
(608.359,171,qs),
(691.856,171,o),
(834,216,o),
(939,296,o),
(997,404.37,o),
(997,468,qs),
(997,547.598,o),
(896,666,o),
(713,731,o),
(590.025,731,qs),
(473,731,o),
(262,673,o),
(88,566,o),
(-39,420,o),
(-109,243,o),
(-109,145,qs),
(-109,37.258,o),
(-24.354,-141.313,o),
(130,-272,o),
(342,-343,o),
(469.349,-343,qs),
(560.88,-343,o),
(733,-306,o),
(882,-236,o),
(996,-140,o),
(1030,-82,q),
(1025,-79,l),
(991,-137,o),
(878,-232,o),
(730,-300,o),
(560,-337,o),
(468.572,-337,qs),
(342.984,-337,o),
(133,-267,o),
(-19,-138,o),
(-103,38.637,o),
(-103,145.02,qs),
(-103,242.371,o),
(-34,417,o),
(92.423,561,o),
(265,667,o),
(474,725,o),
(590.279,725,qs),
(710.567,725,o),
(891,661,o),
(991,546,o),
(991,467.892,qs),
(991,405,o),
(933,299,o),
(830,221,o),
(690.371,177,o),
(608,177,qs),
(528.202,177,o),
(408,220,o),
(342,297.906,o),
(342,349.506,qs),
(342,409.2,o),
(422.095,506.329,o),
(557,564,o),
(638.964,564,qs),
(717.893,564,o),
(812,511,o),
(812,467,qs),
(812,427,o),
(737,359,o),
(612.197,319,o),
(535.704,319,qs),
(432.037,319,o),
(271,389,o),
(180,510.506,o),
(180,589.837,qs),
(180,660.13,o),
(249,779.628,o),
(374,869,o),
(541,919,o),
(638.768,919,qs),
(743.592,919,o),
(919.978,860.293,o),
(1050,753,o),
(1121,609,o),
(1121,524,qs),
(1121,411.506,o),
(1034,216.649,o),
(880,69,o),
(675,-14,o),
(558,-14,qs),
(496,-14,o),
(398,12,o),
(317,47,o),
(242,73,o),
(203,73,qs),
(164,73,o),
(137,45,o),
(137,28,qs),
(137,12,o),
(167,-20,o),
(255,-41,o),
(343,-41,qs),
(435,-41,o),
(578.684,19.375,o),
(695,120,o),
(791,246,o),
(879,382,o),
(969,510,o),
(1020,561,qs),
(1064,605,o),
(1162,664,o),
(1202,674,q),
(1151,674,l),
(1120,657,o),
(1052,605,o),
(1014,567,qs),
(963,518,o),
(860,406,o),
(754,290,o),
(644,177,o),
(586,127,qs),
(506,57,o),
(328,-16,o),
(247,-16,qs),
(143,-16,o),
(143,30,qs),
(143,47,o),
(176,66,o),
(206.706,66,qs),
(248,66,o),
(316.782,40,o),
(393,6,o),
(490,-20,o),
(558,-20,qs),
(681,-20,o),
(889,67.635,o),
(1043,220,o),
(1127,416,o),
(1127,523.888,qs),
(1127,610,o),
(1054,757,o),
(923,865,o),
(745.629,925,o),
(641,925,qs),
(530.389,925,o),
(357,869,o),
(236.658,773,o),
(174,653,o),
(174,589.719,qs),
(174,514.573,o),
(260,389,o),
(422.409,313,o),
(535,313,qs),
(629.144,313,o),
(755,362,o),
(819,434,o),
(819,467,qs),
(819,512,o),
(725,570,o),
(639,570,qs),
(555,570,o)
);
}
);
width = 1039;
}
);
note = D;
unicode = 68;
},
{
glyphname = Eth;
layers = (
{
anchors = (
{
name = center;
pos = (777,280);
},
{
name = top;
pos = (820,842);
}
);
layerId = m01;
shapes = (
{
closed = 1;
nodes = (
(969,285,l),
(629,285,l),
(618,274,l),
(958,274,l)
);
},
{
closed = 1;
nodes = (
(416,512,o),
(334,412,o),
(334,350,qs),
(334,296,o),
(402,214,o),
(525,169,o),
(608,169,qs),
(692,169,o),
(835,214,o),
(940,295,o),
(999,404,o),
(999,468,qs),
(999,548,o),
(897,667,o),
(714,733,o),
(590,733,qs),
(472,733,o),
(261,674,o),
(86,567,o),
(-41,421,o),
(-111,244,o),
(-111,145,qs),
(-111,37,o),
(-26,-142,o),
(129,-273,o),
(341,-345,o),
(469,-345,qs),
(561,-345,o),
(734,-307,o),
(884,-238,o),
(999,-141,o),
(1033,-81,q),
(1024,-76,l),
(991,-134,o),
(878,-229,o),
(731,-298,o),
(560,-335,o),
(469,-335,qs),
(344,-335,o),
(135,-265,o),
(-18,-137,o),
(-101,39,o),
(-101,145,qs),
(-101,242,o),
(-32,416,o),
(94,560,o),
(266,666,o),
(474,723,o),
(590,723,qs),
(710,723,o),
(890,660,o),
(989,545,o),
(989,468,qs),
(989,406,o),
(932,300,o),
(829,222,o),
(690,179,o),
(608,179,qs),
(529,179,o),
(410,222,o),
(344,299,o),
(344,350,qs),
(344,409,o),
(424,505,o),
(558,562,o),
(639,562,qs),
(717,562,o),
(810,511,o),
(810,467,qs),
(810,427,o),
(736,361,o),
(612,321,o),
(536,321,qs),
(433,321,o),
(273,390,o),
(182,511,o),
(182,590,qs),
(182,660,o),
(251,779,o),
(375,868,o),
(542,917,o),
(639,917,qs),
(743,917,o),
(918,859,o),
(1047,753,o),
(1119,609,o),
(1119,524,qs),
(1119,412,o),
(1032,218,o),
(878,71,o),
(675,-12,o),
(558,-12,qs),
(503,-12,o),
(407,14,o),
(322,49,o),
(242,75,o),
(203,75,qs),
(170,75,o),
(135,51,o),
(135,28,qs),
(135,3,o),
(181,-28,o),
(273,-43,o),
(343,-43,qs),
(435,-43,o),
(582,20,o),
(701,125,o),
(802,254,o),
(890,390,o),
(976,514,o),
(1021,560,qs),
(1062,600,o),
(1164,664,o),
(1202,676,q),
(1151,676,l),
(1117,657,o),
(1048,603,o),
(1013,568,qs),
(971,528,o),
(869,418,o),
(756,295,o),
(641,177,o),
(585,129,qs),
(506,61,o),
(330,-14,o),
(247,-14,qs),
(145,-14,o),
(145,30,qs),
(145,47,o),
(178,64,o),
(207,64,qs),
(246,64,o),
(320,38,o),
(402,4,o),
(498,-22,o),
(558,-22,qs),
(682,-22,o),
(890,66,o),
(1044,219,o),
(1129,415,o),
(1129,524,qs),
(1129,611,o),
(1056,758,o),
(924,867,o),
(746,927,o),
(641,927,qs),
(530,927,o),
(356,870,o),
(235,774,o),
(172,654,o),
(172,590,qs),
(172,514,o),
(259,387,o),
(422,311,o),
(535,311,qs),
(630,311,o),
(757,361,o),
(821,433,o),
(821,467,qs),
(821,515,o),
(722,572,o),
(639,572,qs),
(555,572,o)
);
}
);
width = 1075;
},
{
layerId = "D8AEADB0-1DB0-4081-A325-B35DA37C7650";
shapes = (
{
closed = 1;
nodes = (
(964,283,l),
(630,283,l),
(623,276,l),
(957,276,l)
);
},
{
closed = 1;
nodes = (
(418,511,o),
(336,411,o),
(336,350,qs),
(336,296,o),
(404,216,o),
(526,171,o),
(608,171,qs),
(692,171,o),
(834,216,o),
(939,296,o),
(997,404,o),
(997,468,qs),
(997,548,o),
(896,666,o),
(713,731,o),
(590,731,qs),
(473,731,o),
(262,673,o),
(88,566,o),
(-39,420,o),
(-109,243,o),
(-109,145,qs),
(-109,37,o),
(-24,-141,o),
(130,-272,o),
(342,-343,o),
(469,-343,qs),
(561,-343,o),
(733,-306,o),
(882,-236,o),
(996,-140,o),
(1030,-82,q),
(1025,-79,l),
(991,-137,o),
(878,-232,o),
(730,-300,o),
(560,-337,o),
(469,-337,qs),
(343,-337,o),
(133,-267,o),
(-19,-138,o),
(-103,39,o),
(-103,145,qs),
(-103,242,o),
(-34,417,o),
(92,561,o),
(265,667,o),
(474,725,o),
(590,725,qs),
(711,725,o),
(891,661,o),
(991,546,o),
(991,468,qs),
(991,405,o),
(933,299,o),
(830,221,o),
(690,177,o),
(608,177,qs),
(528,177,o),
(408,220,o),
(342,298,o),
(342,350,qs),
(342,409,o),
(422,506,o),
(557,564,o),
(639,564,qs),
(718,564,o),
(812,511,o),
(812,467,qs),
(812,427,o),
(737,359,o),
(612,319,o),
(536,319,qs),
(432,319,o),
(271,389,o),
(180,511,o),
(180,590,qs),
(180,660,o),
(249,780,o),
(374,869,o),
(541,919,o),
(639,919,qs),
(744,919,o),
(920,860,o),
(1050,753,o),
(1121,609,o),
(1121,524,qs),
(1121,412,o),
(1034,217,o),
(880,69,o),
(675,-14,o),
(558,-14,qs),
(496,-14,o),
(398,12,o),
(317,47,o),
(242,73,o),
(203,73,qs),
(164,73,o),
(137,45,o),
(137,28,qs),
(137,12,o),
(167,-20,o),
(255,-41,o),
(343,-41,qs),
(435,-41,o),
(579,19,o),
(695,120,o),
(791,246,o),
(879,382,o),
(969,510,o),
(1020,561,qs),
(1064,605,o),
(1162,664,o),
(1202,674,q),
(1151,674,l),
(1120,657,o),
(1052,605,o),
(1014,567,qs),
(963,518,o),
(860,406,o),
(754,290,o),
(644,177,o),
(586,127,qs),
(506,57,o),
(328,-16,o),
(247,-16,qs),
(143,-16,o),
(143,30,qs),
(143,47,o),
(176,66,o),
(207,66,qs),
(248,66,o),
(317,40,o),
(393,6,o),
(490,-20,o),
(558,-20,qs),
(681,-20,o),
(889,68,o),
(1043,220,o),
(1127,416,o),
(1127,524,qs),
(1127,610,o),
(1054,757,o),
(923,865,o),
(746,925,o),
(641,925,qs),
(530,925,o),
(357,869,o),
(237,773,o),
(174,653,o),
(174,590,qs),
(174,515,o),
(260,389,o),
(422,313,o),
(535,313,qs),
(629,313,o),
(755,362,o),
(819,434,o),
(819,467,qs),
(819,512,o),
(725,570,o),
(639,570,qs),
(555,570,o)
);
}
);
width = 1039;
}
);
note = Eth;
unicode = 208;
},
{
glyphname = E;
layers = (
{
anchors = (
{
name = bottom;
pos = (410,-168);
},
{
name = ogonek;
pos = (410,-168);
},
{
name = top;
pos = (868,770);
}
);
layerId = m01;
shapes = (
{
closed = 1;
nodes = (
(215,19,qs),
(215,82,o),
(257,204,o),
(331,311,o),
(428,393,o),
(538,440,o),
(595,440,qs),
(626,440,o),
(669,425,o),
(669,414,qs),
(669,407,o),
(651,398,o),
(639,398,qs),
(574,398,o),
(574,483,qs),
(574,538,o),
(635,647,o),
(736,737,o),
(860,791,o),
(922,791,qs),
(992,791,o),
(1064,719,o),
(1064,649,qs),
(1064,599,o),
(1024,486,o),
(955,372,o),
(867,269,o),
(770,188,o),
(673,141,o),
(631,141,qs),
(594,141,o),
(548,195,o),
(548,239,qs),
(548,281,o),
(593,383,o),
(666,485,o),
(754,569,o),
(843,621,o),
(879,621,qs),
(911,621,o),
(911,582,qs),
(911,535,o),
(845,430,o),
(731,325,o),
(585,232,o),
(421,159,o),
(257,117,o),
(183,117,qs),
(88,117,o),
(-64,176,o),
(-151,279,o),
(-151,344,qs),
(-151,403,o),
(-86,502,o),
(31,574,o),
(191,614,o),
(286,614,qs),
(354,614,o),
(500,591,o),
(642,550,o),
(768,496,o),
(863,433,o),
(888,400,q),
(895,406,l),
(869,440,o),
(772,503,o),
(645,559,o),
(501,600,o),
(353,624,o),
(285,624,qs),
(188,624,o),
(25,583,o),
(-95,507,o),
(-162,406,o),
(-162,346,qs),
(-162,277,o),
(-72,169,o),
(84,106,o),
(183,106,qs),
(258,106,o),
(425,149,o),
(591,223,o),
(740,319,o),
(855,426,o),
(922,534,o),
(922,582,qs),
(922,631,o),
(879,631,qs),
(841,631,o),
(750,579,o),
(659,492,o),
(584,388,o),
(538,284,o),
(538,240,qs),
(538,190,o),
(589,131,o),
(632,131,qs),
(675,131,o),
(773,179,o),
(872,262,o),
(963,367,o),
(1033,483,o),
(1074,599,o),
(1074,649,qs),
(1074,801,o),
(907,801,qs),
(837,801,o),
(707,753,o),
(605,670,o),
(545,565,o),
(545,508,qs),
(545,455,o),
(597,388,o),
(638,388,qs),
(655,388,o),
(679,404,o),
(679,415,qs),
(679,432,o),
(630,450,o),
(585,450,qs),
(500,450,o),
(341,387,o),
(216,278,o),
(143,140,o),
(143,66,qs),
(143,-5,o),
(209,-111,o),
(330,-170,o),
(410,-170,qs),
(463,-170,o),
(587,-128,o),
(719,-51,o),
(849,55,o),
(907,120,qs),
(951,169,l),
(941,169,l),
(899,122,ls),
(842,59,o),
(716,-44,o),
(586,-119,o),
(463,-159,o),
(410,-159,qs),
(215,-159,o)
);
}
);
width = 941;
},
{
layerId = "D8AEADB0-1DB0-4081-A325-B35DA37C7650";
shapes = (
{
closed = 1;
nodes = (
(213,18.515,qs),
(213,82.051,o),
(255.362,205.089,o),
(330,313,o),
(427.367,395,o),
(537.784,442,o),
(595,442,qs),
(628,442,o),
(671,426.091,o),
(671,414.424,qs),
(671,407,o),
(653,396,o),
(639,396,qs),
(572,396,o),
(572,482.821,qs),
(572,539,o),
(633.213,648.431,o),
(734.566,738.787,o),
(859,793,o),
(921.912,793,qs),
(992.941,793,o),
(1066,719.986,o),
(1066,649,qs),
(1066,598.819,o),
(1026,485.412,o),
(957,371,o),
(868.049,267.44,o),
(770,186,o),
(674,139,o),
(631.468,139,qs),
(594,139,o),
(546,194.102,o),
(546,239,qs),
(546,281.292,o),
(591,384,o),
(665,486,o),
(754,571,o),
(842,623,o),
(879,623,qs),
(913,623,o),
(913,582,qs),
(913,534,o),
(847,429,o),
(733,324,o),
(586,230,o),
(423,157,o),
(257.523,115,o),
(182.856,115,qs),
(87,115,o),
(-65,175,o),
(-153,279,o),
(-153,344,qs),
(-153,403,o),
(-88,502,o),
(30,576,o),
(190,616,o),
(286,616,qs),
(360,616,o),
(512,591,o),
(654,548,o),
(775,493,o),
(865,432,o),
(888,403,q),
(892,406,l),
(865.789,440.351,o),
(768,504,o),
(642,558,o),
(498,599,o),
(352,622,o),
(284.622,622,qs),
(188.509,622,o),
(27,581,o),
(-94,506,o),
(-160,406,o),
(-160,346.253,qs),
(-160,277.544,o),
(-71,170,o),
(85,108,o),
(183.419,108,qs),
(257.979,108,o),
(424,151,o),
(589.473,225,o),
(738,321,o),
(853,427.186,o),
(920,534.365,o),
(920,582,qs),
(920,629,o),
(878.593,629,qs),
(842,629,o),
(751,577,o),
(661,491,o),
(586,387,o),
(540,283,o),
(540,239.863,qs),
(540,190.843,o),
(589.915,133,o),
(632,133,qs),
(675,133,o),
(773,181,o),
(871,263,o),
(961,368,o),
(1031,483.589,o),
(1072,599.177,o),
(1072,649,qs),
(1072,799,o),
(906.82,799,qs),
(837.583,799,o),
(709,751,o),
(607,669,o),
(547,564,o),
(547,507.966,qs),
(547,455.864,o),
(598.055,390,o),
(638.309,390,qs),
(655,390,o),
(677,405,o),
(677,415.283,qs),
(677,431.174,o),
(629.043,448,o),
(585,448,qs),
(500.385,448,o),
(342.104,385.406,o),
(217.67,277.11,o),
(145,140,o),
(145,66.295,qs),
(145,-4.422,o),
(211,-110,o),
(330,-168,o),
(410,-168,qs),
(464.797,-168,o),
(593,-125,o),
(728,-48,o),
(857,58,o),
(913,121,qs),
(921,130,l),
(913,130,l),
(905,121,ls),
(851,60,o),
(723,-43,o),
(590,-119,o),
(464,-161,o),
(410.359,-161,qs),
(213,-161,o)
);
}
);
width = 913;
}
);
note = E;
unicode = 69;
},
{
glyphname = F;
layers = (
{
layerId = m01;
shapes = (
{
closed = 1;
nodes = (
(1308,311,l),
(968,311,l),
(957,300,l),
(1297,300,l)
);
},
{
closed = 1;
nodes = (
(1296,294,o),
(1335,322,o),
(1345,326,q),
(1283,326,l),
(1217,236,l),
(1231,236,l),
(1251,256,o)
);
},
{
closed = 1;
nodes = (
(361,121,o),
(361,166,qs),
(361,207,o),
(434,272,o),
(562,309,o),
(643,309,qs),
(752,309,o),
(923,241,o),
(1022,124,o),
(1022,48,qs),
(1022,-22,o),
(947,-144,o),
(816,-237,o),
(643,-290,o),
(544,-290,qs),
(418,-290,o),
(209,-223,o),
(57,-102,o),
(-27,66,o),
(-27,166,qs),
(-27,267,o),
(57,434,o),
(210,556,o),
(419,623,o),
(544,623,qs),
(623,623,o),
(762,590,o),
(868,532,o),
(896,492,q),
(903,499,l),
(874,540,o),
(765,600,o),
(624,633,o),
(544,633,qs),
(417,633,o),
(204,564,o),
(48,439,o),
(-37,268,o),
(-37,166,qs),
(-37,63,o),
(48,-107,o),
(203,-232,o),
(416,-300,o),
(544,-300,qs),
(645,-300,o),
(822,-246,o),
(956,-150,o),
(1032,-24,o),
(1032,48,qs),
(1032,107,o),
(974,205,o),
(869,279,o),
(727,319,o),
(643,319,qs),
(559,319,o),
(427,279,o),
(351,210,o),
(351,166,qs),
(351,117,o),
(450,57,o),
(533,57,qs),
(607,57,o),
(720,97,o),
(798,162,o),
(838,240,o),
(838,279,qs),
(838,326,o),
(780,408,o),
(659,460,o),
(564,460,qs),
(473,460,o),
(328,411,o),
(226,328,o),
(173,221,o),
(173,162,qs),
(173,83,o),
(261,-43,o),
(431,-116,o),
(554,-116,qs),
(670,-116,o),
(882,-34,o),
(961,42,qs),
(1016,94,o),
(1105,229,o),
(1185,373,o),
(1267,508,o),
(1314,561,qs),
(1338,588,o),
(1400,635,o),
(1462,670,o),
(1486,677,q),
(1435,677,l),
(1404,661,o),
(1343,608,o),
(1306,570,qs),
(1237,500,o),
(1122,352,o),
(1016,209,o),
(906,84,o),
(782,-12,o),
(631,-66,o),
(535,-66,qs),
(463,-66,o),
(336,-40,o),
(238,15,o),
(183,102,o),
(183,162,qs),
(183,219,o),
(235,322,o),
(333,403,o),
(474,450,o),
(564,450,qs),
(655,450,o),
(771,401,o),
(828,323,o),
(828,279,qs),
(828,242,o),
(789,167,o),
(713,105,o),
(604,67,o),
(533,67,qs),
(455,67,o)
);
},
{
closed = 1;
nodes = (
(2209,720,o),
(2117,687,o),
(2050,687,qs),
(1966,687,o),
(1808,735,o),
(1653,806,o),
(1496,876,o),
(1332,924,o),
(1243,924,qs),
(1161,924,o),
(1017,876,o),
(910,791,o),
(849,678,o),
(849,613,qs),
(849,563,o),
(903,473,o),
(946,452,q),
(951,463,l),
(911,483,o),
(860,567,o),
(860,613,qs),
(860,668,o),
(916,764,o),
(1015,836,o),
(1146,877,o),
(1221,877,qs),
(1318,877,o),
(1489,836,o),
(1646,776,o),
(1800,716,o),
(1960,675,o),
(2048,675,qs),
(2119,675,o),
(2216,712,o),
(2271,768,o),
(2276,795,q),
(2265,796,l),
(2260,771,o)
);
}
);
width = 1270;
},
{
layerId = "D8AEADB0-1DB0-4081-A325-B35DA37C7650";
shapes = (
{
closed = 1;
nodes = (
(1303,309,l),
(969,309,l),
(962,302,l),
(1296,302,l)
);
},
{
closed = 1;
nodes = (
(1292,294,o),
(1331,320,o),
(1345,324,q),
(1284,324,l),
(1221,238,l),
(1230,238,l),
(1250,258,o)
);
},
{
closed = 1;
nodes = (
(359,120.157,o),
(359,166.121,qs),
(359,208,o),
(433,273,o),
(561,311,o),
(642.673,311,qs),
(752.579,311,o),
(925,242,o),
(1024,124.394,o),
(1024,48,qs),
(1024,-22.414,o),
(948.686,-145.136,o),
(817.138,-238.686,o),
(643.414,-292,o),
(544,-292,qs),
(417.559,-292,o),
(207.827,-224.759,o),
(55.294,-103.325,o),
(-29,65.278,o),
(-29,165.637,qs),
(-29,267,o),
(55,435.156,o),
(208,558,o),
(418.251,625,o),
(544,625,qs),
(622,625,o),
(761,593,o),
(867.791,535,o),
(896,495,q),
(900,499,l),
(871.42,539.188,o),
(764,598,o),
(623.405,631,o),
(543.635,631,qs),
(417,631,o),
(205,563,o),
(50,438,o),
(-35,268,o),
(-35,166.272,qs),
(-35,63.547,o),
(49,-106,o),
(203.688,-230.352,o),
(416.258,-298,o),
(544,-298,qs),
(644.586,-298,o),
(820.861,-244.391,o),
(954.311,-149.087,o),
(1030,-24,o),
(1030,47.58,qs),
(1030,106.236,o),
(972.298,203.665,o),
(867.838,277.233,o),
(726.568,317,o),
(643,317,qs),
(559,317,o),
(428.269,277.734,o),
(353,210,o),
(353,166,qs),
(353,117,o),
(450.84,59,o),
(532.867,59,qs),
(606,59,o),
(719,98,o),
(796.339,163,o),
(836,241,o),
(836,279.093,qs),
(836,325,o),
(779,407,o),
(658.56,458,o),
(564,458,qs),
(473.386,458,o),
(329,410,o),
(228,326,o),
(175,220.154,o),
(175,161.79,qs),
(175,83.642,o),
(262,-41,o),
(431.42,-114,o),
(554,-114,qs),
(668,-114,o),
(880,-33,o),
(960,43,qs),
(1016,96,o),
(1103,230,o),
(1182,372,o),
(1264,507,o),
(1313,562,qs),
(1340,592,o),
(1402,639,o),
(1462,670,o),
(1486,675,q),
(1435,675,l),
(1405,659,o),
(1342,606,o),
(1307,569,qs),
(1248,506,o),
(1137,364,o),
(1026,221,o),
(908,92,o),
(776,-9,o),
(625,-68,o),
(535,-68,qs),
(462.758,-68,o),
(335.33,-41.679,o),
(237,14,o),
(181,101,o),
(181,161.517,qs),
(181,219.009,o),
(233.357,322.897,o),
(332.031,404.595,o),
(474,452,o),
(564,452,qs),
(655,452,o),
(773,403,o),
(830,324,o),
(830,279.436,qs),
(830,241.962,o),
(790,166,o),
(713.703,103.38,o),
(604.277,65,o),
(533,65,qs),
(454.093,65,o)
);
},
{
closed = 1;
nodes = (
(2209,718,o),
(2117,685,o),
(2050.444,685,qs),
(1967,685,o),
(1808,733,o),
(1652.674,804,o),
(1495.345,874,o),
(1331,922,o),
(1243.13,922,qs),
(1162.171,922,o),
(1020,875,o),
(912,792,o),
(851,679,o),
(851,613,qs),
(851,564.071,o),
(904,476,o),
(945,455,q),
(948,462,l),
(908.44,482.192,o),
(858,567,o),
(858,613.467,qs),
(858,669.025,o),
(915,766,o),
(1015,838,o),
(1146,879,o),
(1221,879,qs),
(1323,879,o),
(1498,838,o),
(1655,778,o),
(1805,718,o),
(1961.489,677,o),
(2047.558,677,qs),
(2117,677,o),
(2213,713,o),
(2268,766,o),
(2274,793,q),
(2267,794,l),
(2261,769,o)
);
}
);
width = 1234;
}
);
note = F;
unicode = 70;
},
{
glyphname = G;
layers = (
{
anchors = (
{
name = bottom;
pos = (311,-297);
},
{
name = top;
pos = (973,770);
}
);
layerId = m01;
shapes = (
{
closed = 1;
nodes = (
(540,290,o),
(691,354,o),
(825,437,o),
(929,531,o),
(988,626,o),
(988,670,qs),
(988,696,o),
(961,724,o),
(937,724,qs),
(900,724,o),
(811,671,o),
(722,583,o),
(647,477,o),
(602,372,o),
(602,328,qs),
(602,278,o),
(649,218,o),
(688,218,qs),
(734,218,o),
(838,265,o),
(941,346,o),
(1035,449,o),
(1108,564,o),
(1150,679,o),
(1150,730,qs),
(1150,792,o),
(1075,870,o),
(1015,870,qs),
(940,870,o),
(785,817,o),
(637,723,o),
(508,599,o),
(410,457,o),
(355,308,o),
(355,236,qs),
(355,124,o),
(478,-3,o),
(586,-3,qs),
(633,-3,o),
(745,36,o),
(862,107,o),
(973,201,o),
(1018,256,q),
(1006,256,l),
(961,203,o),
(853,112,o),
(739,45,o),
(631,7,o),
(586,7,qs),
(496,7,o),
(404,106,o),
(404,202,qs),
(404,269,o),
(460,416,o),
(557,563,o),
(681,695,o),
(820,798,o),
(959,857,o),
(1022,857,qs),
(1080,857,o),
(1140,792,o),
(1140,730,qs),
(1140,681,o),
(1098,569,o),
(1026,456,o),
(934,354,o),
(833,274,o),
(732,228,o),
(688,228,qs),
(653,228,o),
(612,282,o),
(612,328,qs),
(612,369,o),
(656,472,o),
(729,575,o),
(816,661,o),
(903,714,o),
(938,714,qs),
(956,714,o),
(978,690,o),
(978,670,qs),
(978,628,o),
(919,536,o),
(816,445,o),
(683,363,o),
(535,300,o),
(385,263,o),
(317,263,qs),
(232,263,o),
(97,311,o),
(19,395,o),
(19,448,qs),
(19,503,o),
(83,595,o),
(200,662,o),
(359,699,o),
(453,699,qs),
(547,699,o),
(734,652,o),
(904,565,o),
(971,505,q),
(975,514,l),
(908,575,o),
(737,662,o),
(548,709,o),
(453,709,qs),
(322,709,o),
(121,643,o),
(9,525,o),
(9,448,qs),
(9,392,o),
(89,304,o),
(228,253,o),
(316,253,qs),
(387,253,o)
);
},
{
closed = 1;
nodes = (
(-50,203,o),
(60,286,o),
(207,332,o),
(294,332,qs),
(379,332,o),
(505,286,o),
(576,204,o),
(576,149,qs),
(576,102,o),
(527,20,o),
(441,-42,o),
(327,-77,o),
(262,-77,qs),
(179,-77,o),
(80,-11,o),
(80,44,qs),
(80,77,o),
(132,130,o),
(169,136,q),
(161,143,l),
(122,137,o),
(69,79,o),
(69,43,qs),
(69,-16,o),
(174,-87,o),
(262,-87,qs),
(330,-87,o),
(447,-51,o),
(536,14,o),
(586,100,o),
(586,149,qs),
(586,207,o),
(513,294,o),
(382,342,o),
(294,342,qs),
(205,342,o),
(54,294,o),
(-58,208,o),
(-120,91,o),
(-120,23,qs),
(-120,-42,o),
(-51,-158,o),
(68,-248,o),
(224,-299,o),
(311,-299,qs),
(388,-299,o),
(515,-273,o),
(632,-208,o),
(753,-95,o),
(891,77,o),
(977,198,qs),
(1022,257,o),
(1087,337,o),
(1138,391,o),
(1185,429,o),
(1211,444,q),
(1161,444,l),
(1114,391,o),
(1035,295,o),
(1005,255,qs),
(902,116,o),
(718,-75,o),
(536,-191,o),
(339,-242,o),
(223,-242,qs),
(156,-242,o),
(35,-200,o),
(-57,-127,o),
(-110,-31,o),
(-110,23,qs),
(-110,90,o)
);
}
);
width = 1049;
},
{
layerId = "D8AEADB0-1DB0-4081-A325-B35DA37C7650";
shapes = (
{
closed = 1;
nodes = (
(538.652,292,o),
(689,356,o),
(823,438.695,o),
(927,532.349,o),
(986,627,o),
(986,669.653,qs),
(986,694.857,o),
(959.92,722,o),
(936.739,722,qs),
(901,722,o),
(812,669,o),
(723,581,o),
(649,476,o),
(604,371,o),
(604,327.857,qs),
(604,278.831,o),
(649.907,220,o),
(688,220,qs),
(733.693,220,o),
(837,267,o),
(940,347,o),
(1033,451,o),
(1106,565,o),
(1148,679.496,o),
(1148,730.272,qs),
(1148,792,o),
(1074.071,868,o),
(1014.929,868,qs),
(941,868,o),
(786,815,o),
(638.395,721.261,o),
(509.739,597.606,o),
(412,456,o),
(357,307.972,o),
(357,236.441,qs),
(357,125.172,o),
(479.227,-1,o),
(586,-1,qs),
(631,-1,o),
(742,38,o),
(858,107,o),
(969,199.738,o),
(1014,254,q),
(1007,254,l),
(961.706,201,o),
(853,110,o),
(739,43,o),
(631,5,o),
(585.604,5,qs),
(494.811,5,o),
(402,105,o),
(402,201.619,qs),
(402,269.052,o),
(458,417,o),
(555.345,564.333,o),
(679.786,696.633,o),
(819.281,799.866,o),
(958.776,859,o),
(1022,859,qs),
(1080.983,859,o),
(1142,792,o),
(1142,729.858,qs),
(1142,680.747,o),
(1100,568.491,o),
(1028,455.233,o),
(936,353,o),
(834,272,o),
(733,226,o),
(687.9,226,qs),
(652.025,226,o),
(610,281.149,o),
(610,328.128,qs),
(610,370,o),
(655,473,o),
(728,576,o),
(815,663,o),
(902.713,716,o),
(938,716,qs),
(956.9,716,o),
(980,690,o),
(980,669.878,qs),
(980,627.621,o),
(921,535.058,o),
(818,443.502,o),
(685,361,o),
(536,298,o),
(386,261,o),
(317.292,261,qs),
(231.406,261,o),
(95,310,o),
(17,394.613,o),
(17,448,qs),
(17,503.374,o),
(82,596,o),
(199.316,663.644,o),
(358.746,701,o),
(453,701,qs),
(546.665,701,o),
(733,655,o),
(903,568,o),
(970,508,q),
(973,514,l),
(906,574,o),
(736,661,o),
(548,707,o),
(453.445,707,qs),
(323.059,707,o),
(123,641,o),
(11,525,o),
(11,448.348,qs),
(11,392.602,o),
(90,305,o),
(228,255,o),
(315.62,255,qs),
(386.313,255,o)
);
},
{
closed = 1;
nodes = (
(-52,204,o),
(58,288,o),
(206,334,o),
(293.506,334,qs),
(379,334,o),
(507,288,o),
(578,205,o),
(578,149.413,qs),
(578,101.911,o),
(528.688,19.036,o),
(442.14,-43.626,o),
(327.414,-79,o),
(262,-79,qs),
(177,-79,o),
(78,-12,o),
(78,44.122,qs),
(78,77.796,o),
(131.169,131.878,o),
(169,138,q),
(161,141,l),
(122.848,135.094,o),
(71,78,o),
(71,42.651,qs),
(71,-15.283,o),
(174,-85,o),
(261.573,-85,qs),
(329.243,-85,o),
(445.675,-49.305,o),
(534.243,15.144,o),
(584,100.415,o),
(584,149,qs),
(584,207,o),
(512,292,o),
(381.688,340,o),
(294.151,340,qs),
(205.618,340,o),
(55.412,292,o),
(-56,206,o),
(-118,91,o),
(-118,23.401,qs),
(-118,-41.215,o),
(-49,-156.531,o),
(70,-246,o),
(224.716,-297,o),
(311,-297,qs),
(387.76,-297,o),
(514.364,-271.286,o),
(631,-207,o),
(751,-94,o),
(889,78,o),
(975,199,qs),
(1023,262,o),
(1089,343,o),
(1139,395,o),
(1184,428,o),
(1211,442,q),
(1162,442,l),
(1115,389.356,o),
(1036,294,o),
(1007,254,qs),
(904,114.579,o),
(720,-77,o),
(537,-192,o),
(340,-244,o),
(222.732,-244,qs),
(155,-244,o),
(34,-202,o),
(-59,-128,o),
(-112,-31.418,o),
(-112,22.909,qs),
(-112,90.315,o)
);
}
);
width = 1013;
}
);
note = G;
unicode = 71;
},
{
glyphname = H;
layers = (
{
anchors = (
{
name = top;
pos = (1642,770);
}
);
layerId = m01;
shapes = (
{
closed = 1;
nodes = (
(1445,275,l),
(993,275,l),
(987,264,l),
(1445,264,l)
);
},
{
closed = 1;
nodes = (
(2005,738,o),
(2008,738,o),
(2005,738,qs),
(1906,738,o),
(1654,595,o),
(1517,461,qs),
(1443,390,o),
(1316,238,o),
(1222,93,o),
(1170,-31,o),
(1170,-74,qs),
(1170,-133,o),
(1234,-206,o),
(1285,-206,qs),
(1327,-206,o),
(1358,-179,q),
(1358,-170,l),
(1327,-197,o),
(1286,-197,qs),
(1245,-197,o),
(1202,-139,o),
(1202,-84,qs),
(1202,-24,o),
(1274,140,o),
(1403,324,o),
(1488,413,qs),
(1639,570,o),
(1904,729,o),
(2013,729,qs),
(2025,729,o),
(2033,729,o),
(2036,728,q),
(2039,736,l),
(2015,738,o)
);
},
{
closed = 1;
nodes = (
(824,742,o),
(888,742,qs),
(966,742,o),
(1060,670,o),
(1060,610,qs),
(1060,556,o),
(988,468,o),
(867,416,o),
(793,416,qs),
(696,416,o),
(548,475,o),
(465,580,o),
(465,649,qs),
(465,710,o),
(527,814,o),
(639,891,o),
(789,934,o),
(877,934,qs),
(955,934,o),
(1104,888,o),
(1240,820,o),
(1357,753,o),
(1450,707,o),
(1482,708,q),
(1482,719,l),
(1453,718,o),
(1360,765,o),
(1241,834,o),
(1102,904,o),
(951,951,o),
(872,951,qs),
(769,951,o),
(612,900,o),
(506,813,o),
(453,708,o),
(453,654,qs),
(453,591,o),
(528,478,o),
(679,407,o),
(792,407,qs),
(883,407,o),
(1007,469,o),
(1071,564,o),
(1071,612,qs),
(1071,649,o),
(1031,713,o),
(950,752,o),
(888,752,qs),
(820,752,o),
(709,706,o),
(687,668,q),
(699,668,l),
(723,702,o)
);
},
{
closed = 1;
nodes = (
(243,-177,o),
(85,-52,o),
(-4,114,o),
(-4,208,qs),
(-4,303,o),
(85,468,o),
(243,594,o),
(450,665,o),
(568,665,qs),
(622,665,o),
(733,647,o),
(835,610,o),
(913,552,o),
(933,511,q),
(943,514,l),
(922,556,o),
(842,617,o),
(737,656,o),
(622,675,o),
(568,675,qs),
(448,675,o),
(237,602,o),
(77,474,o),
(-14,304,o),
(-14,208,qs),
(-14,112,o),
(77,-57,o),
(237,-185,o),
(448,-258,o),
(569,-258,qs),
(699,-258,o),
(884,-192,o),
(1002,-86,o),
(1058,35,o),
(1058,90,qs),
(1058,149,o),
(1000,247,o),
(894,320,o),
(752,360,o),
(668,360,qs),
(570,360,o),
(440,311,o),
(376,240,o),
(376,207,qs),
(376,181,o),
(410,131,o),
(487,99,o),
(551,99,qs),
(626,99,o),
(742,140,o),
(822,207,o),
(864,287,o),
(864,326,qs),
(864,372,o),
(808,452,o),
(690,502,o),
(596,502,qs),
(505,502,o),
(356,451,o),
(251,365,o),
(194,259,o),
(194,203,qs),
(194,124,o),
(276,-1,o),
(441,-74,o),
(563,-74,qs),
(682,-74,o),
(895,7,o),
(978,84,qs),
(1035,136,o),
(1128,269,o),
(1212,412,o),
(1299,548,o),
(1350,603,qs),
(1375,629,o),
(1438,676,o),
(1502,712,o),
(1526,719,q),
(1474,719,l),
(1442,701,o),
(1377,648,o),
(1342,611,qs),
(1292,559,o),
(1186,426,o),
(1070,283,o),
(942,148,o),
(799,40,o),
(638,-24,o),
(548,-24,qs),
(444,-24,o),
(289,23,o),
(204,123,o),
(204,203,qs),
(204,255,o),
(259,358,o),
(362,442,o),
(506,492,o),
(596,492,qs),
(685,492,o),
(799,445,o),
(854,369,o),
(854,326,qs),
(854,289,o),
(813,212,o),
(735,148,o),
(623,109,o),
(551,109,qs),
(490,109,o),
(418,138,o),
(386,184,o),
(386,208,qs),
(386,238,o),
(447,303,o),
(572,349,o),
(667,349,qs),
(750,349,o),
(889,311,o),
(991,241,o),
(1048,146,o),
(1048,90,qs),
(1048,37,o),
(994,-80,o),
(878,-183,o),
(696,-248,o),
(568,-248,qs),
(450,-248,o)
);
}
);
width = 1420;
},
{
layerId = "D8AEADB0-1DB0-4081-A325-B35DA37C7650";
shapes = (
{
closed = 1;
nodes = (
(1443,273,l),
(994,273,l),
(990,266,l),
(1443,266,l)
);
},
{
closed = 1;
nodes = (
(2004,736,o),
(2008,736,o),
(2005.029,736,qs),
(1907,736,o),
(1655,594,o),
(1518.317,460,qs),
(1444.488,389,o),
(1317.782,237,o),
(1224,92,o),
(1172,-31,o),
(1172,-73.509,qs),
(1172,-131.834,o),
(1235,-204,o),
(1284.766,-204,qs),
(1325.75,-204,o),
(1356,-178,q),
(1356,-174,l),
(1325,-199,o),
(1286,-199,qs),
(1244.024,-199,o),
(1200,-139,o),
(1200,-84,qs),
(1200,-24,o),
(1272,140.471,o),
(1401,325,o),
(1487,414,qs),
(1637,571,o),
(1903.417,731,o),
(2013,731,qs),
(2024.478,731,o),
(2032.13,731,o),
(2035,730,q),
(2036,734,l),
(2014,736,o)
);
},
{
closed = 1;
nodes = (
(824,744,o),
(888,744,qs),
(966.907,744,o),
(1062,671,o),
(1062,610.474,qs),
(1062,556,o),
(989.627,466.743,o),
(868,414,o),
(793.304,414,qs),
(695.392,414,o),
(546,473,o),
(463,579.207,o),
(463,649,qs),
(463,710.504,o),
(525,815.364,o),
(637,893,o),
(788.261,936,o),
(877,936,qs),
(958,936,o),
(1107,890,o),
(1240,823,o),
(1353,756,o),
(1446,710,o),
(1480,710,q),
(1480,717,l),
(1446,717,o),
(1353,764,o),
(1240,833,o),
(1106,902,o),
(955,949,o),
(872,949,qs),
(769.492,949,o),
(613.241,898.42,o),
(507.747,812.136,o),
(455,708,o),
(455,654,qs),
(455,591,o),
(529.336,479.228,o),
(679,409,o),
(791.655,409,qs),
(882.378,409,o),
(1006,471,o),
(1069,564.944,o),
(1069,612.411,qs),
(1069,649,o),
(1030,711,o),
(949.768,750,o),
(888.355,750,qs),
(821,750,o),
(713,705,o),
(691,670,q),
(698,670,l),
(723,705,o)
);
},
{
closed = 1;
nodes = (
(241.864,-178.742,o),
(83.311,-53.289,o),
(-6,113.314,o),
(-6,207.655,qs),
(-6,303,o),
(83,470,o),
(241.866,596,o),
(450,667,o),
(568,667,qs),
(622,667,o),
(733,649,o),
(835,612,o),
(913,554,o),
(934,513,q),
(940,515,l),
(919,557,o),
(839,616,o),
(735,655,o),
(622,673,o),
(568.14,673,qs),
(448.452,673,o),
(238,601,o),
(78,473,o),
(-12,304,o),
(-12,208.196,qs),
(-12,112.393,o),
(78.637,-56.262,o),
(238,-184,o),
(449,-256,o),
(569.036,-256,qs),
(698,-256,o),
(883,-190.384,o),
(1001,-85,o),
(1056,36,o),
(1056,90,qs),
(1056,149,o),
(997,247,o),
(891.855,318.708,o),
(751,358,o),
(667.808,358,qs),
(570.75,358,o),
(442,309,o),
(378,239.092,o),
(378,206.6,qs),
(378,181,o),
(411.387,132.22,o),
(487,101,o),
(550.749,101,qs),
(625.455,101,o),
(741,141,o),
(821,208,o),
(862,287,o),
(862,325.637,qs),
(862,371.209,o),
(806.331,450.465,o),
(689.028,500,o),
(595.583,500,qs),
(505.12,500,o),
(357,449,o),
(252,364,o),
(196,258,o),
(196,202.83,qs),
(196,125,o),
(278,0,o),
(441,-72,o),
(563,-72,qs),
(681.283,-72,o),
(893,7,o),
(977,85,qs),
(1034,137.562,o),
(1127,272,o),
(1211,414.144,o),
(1298,549.329,o),
(1349,604,qs),
(1377,634,o),
(1440,680,o),
(1501,712,o),
(1526,717,q),
(1475.238,717,l),
(1444,700,o),
(1379,648,o),
(1343,610,qs),
(1288,554,o),
(1177,417,o),
(1059,274,o),
(932,142,o),
(792,36,o),
(636,-26,o),
(548,-26,qs),
(443.598,-26,o),
(288,21,o),
(202,123,o),
(202,203.34,qs),
(202,255.562,o),
(257,359,o),
(361,443,o),
(505.615,494,o),
(596,494,qs),
(685.877,494,o),
(801,446,o),
(856,370,o),
(856,326,qs),
(856,288.792,o),
(814.655,211.36,o),
(736,147,o),
(623,107,o),
(551,107,qs),
(490,107,o),
(416,137,o),
(384,183.46,o),
(384,207.7,qs),
(384,238,o),
(446,304,o),
(571.568,351,o),
(667,351,qs),
(748,351,o),
(887,313,o),
(991.566,243,o),
(1050,148,o),
(1050,90,qs),
(1050,36.688,o),
(995,-81,o),
(878.728,-184.613,o),
(696.3,-250,o),
(568,-250,qs),
(449.587,-250,o)
);
}
);
width = 1384;
}
);
note = H;
unicode = 72;
},
{
glyphname = I;
layers = (
{
anchors = (
{
name = bottom;
pos = (566,0);
},
{
name = top;
pos = (1435,770);
}
);
layerId = m01;
shapes = (
{
closed = 1;
nodes = (
(849,-205,o),
(983,-110,o),
(1057,17,o),
(1057,90,qs),
(1057,149,o),
(999,247,o),
(894,320,o),
(751,360,o),
(667,360,qs),
(587,360,o),
(454,319,o),
(375,249,o),
(375,207,qs),
(375,174,o),
(418,126,o),
(497,99,o),
(551,99,qs),
(616,99,o),
(729,134,o),
(815,197,o),
(864,279,o),
(864,326,qs),
(864,380,o),
(798,459,o),
(678,502,o),
(596,502,qs),
(513,502,o),
(368,456,o),
(257,373,o),
(194,265,o),
(194,203,qs),
(194,118,o),
(284,-6,o),
(450,-74,o),
(563,-74,qs),
(682,-74,o),
(895,7,o),
(978,84,qs),
(1030,131,o),
(1118,250,o),
(1197,382,o),
(1275,516,o),
(1357,639,o),
(1405,688,qs),
(1429,712,o),
(1491,759,o),
(1555,795,o),
(1581,804,q),
(1529,804,l),
(1503,789,o),
(1445,743,o),
(1397,696,qs),
(1361,661,o),
(1276,550,o),
(1176,415,o),
(1062,274,o),
(934,142,o),
(791,38,o),
(634,-24,o),
(548,-24,qs),
(440,-24,o),
(286,30,o),
(204,132,o),
(204,203,qs),
(204,262,o),
(266,367,o),
(374,447,o),
(516,492,o),
(596,492,qs),
(674,492,o),
(790,451,o),
(854,376,o),
(854,326,qs),
(854,282,o),
(806,203,o),
(722,143,o),
(613,109,o),
(551,109,qs),
(500,109,o),
(425,133,o),
(385,178,o),
(385,208,qs),
(385,247,o),
(461,311,o),
(589,349,o),
(666,349,qs),
(749,349,o),
(888,311,o),
(990,241,o),
(1047,146,o),
(1047,90,qs),
(1047,19,o),
(974,-104,o),
(843,-196,o),
(669,-248,o),
(568,-248,qs),
(442,-248,o),
(233,-181,o),
(81,-60,o),
(-3,108,o),
(-3,208,qs),
(-3,309,o),
(81,476,o),
(234,598,o),
(443,665,o),
(568,665,qs),
(633,665,o),
(750,643,o),
(847,603,o),
(916,546,o),
(933,511,q),
(943,514,l),
(925,550,o),
(854,609,o),
(755,652,o),
(634,675,o),
(568,675,qs),
(441,675,o),
(228,606,o),
(72,481,o),
(-13,310,o),
(-13,208,qs),
(-13,105,o),
(72,-65,o),
(227,-190,o),
(440,-258,o),
(568,-258,qs),
(672,-258,o)
);
},
{
closed = 1;
nodes = (
(1217,338,o),
(1275,403,o),
(1310,482,o),
(1310,524,qs),
(1310,586,o),
(1255,688,o),
(1154,762,o),
(1017,802,o),
(935,801,qs),
(874,801,o),
(758,771,o),
(659,718,o),
(585,647,o),
(567,605,q),
(577,602,l),
(595,643,o),
(665,712,o),
(762,763,o),
(875,791,o),
(935,791,qs),
(1016,791,o),
(1150,752,o),
(1247,681,o),
(1300,583,o),
(1300,524,qs),
(1300,485,o),
(1267,408,o),
(1211,347,o),
(1142,310,o),
(1106,310,qs),
(1074,310,o),
(1031,360,o),
(1031,399,qs),
(1031,441,o),
(1076,531,o),
(1155,620,o),
(1256,699,o),
(1370,760,o),
(1485,795,o),
(1537,794,q),
(1537,804,l),
(1483,805,o),
(1366,769,o),
(1250,707,o),
(1147,626,o),
(1067,535,o),
(1021,442,o),
(1021,399,qs),
(1021,356,o),
(1069,300,o),
(1106,300,qs),
(1144,300,o)
);
}
);
width = 1168;
},
{
layerId = "D8AEADB0-1DB0-4081-A325-B35DA37C7650";
shapes = (
{
closed = 1;
nodes = (
(882,-190,o),
(1000,-85,o),
(1055,36,o),
(1055,90,qs),
(1055,149,o),
(996,247,o),
(891,319,o),
(750,358,o),
(667,358,qs),
(570,358,o),
(441,309,o),
(377,239,o),
(377,207,qs),
(377,181,o),
(411,132,o),
(487,101,o),
(551,101,qs),
(625,101,o),
(741,141,o),
(821,208,o),
(862,287,o),
(862,326,qs),
(862,371,o),
(806,450,o),
(689,500,o),
(596,500,qs),
(505,500,o),
(357,449,o),
(252,364,o),
(196,258,o),
(196,203,qs),
(196,125,o),
(278,0,o),
(441,-72,o),
(563,-72,qs),
(681,-72,o),
(893,7,o),
(977,85,qs),
(1030,133,o),
(1118,253,o),
(1197,385,o),
(1274,518,o),
(1356,640,o),
(1404,689,qs),
(1432,719,o),
(1495,765,o),
(1556,796,o),
(1581,802,q),
(1530,802,l),
(1499,785,o),
(1434,733,o),
(1398,695,qs),
(1349,640,o),
(1247,509,o),
(1141,370,o),
(1028,236,o),
(906,117,o),
(774,26,o),
(628,-26,o),
(548,-26,qs),
(452,-26,o),
(295,21,o),
(202,123,o),
(202,203,qs),
(202,256,o),
(257,359,o),
(361,443,o),
(506,494,o),
(596,494,qs),
(686,494,o),
(801,446,o),
(856,370,o),
(856,326,qs),
(856,289,o),
(815,211,o),
(736,147,o),
(623,107,o),
(551,107,qs),
(490,107,o),
(416,137,o),
(383,183,o),
(383,208,qs),
(383,238,o),
(445,304,o),
(571,351,o),
(666,351,qs),
(747,351,o),
(886,313,o),
(991,243,o),
(1049,148,o),
(1049,90,qs),
(1049,37,o),
(994,-81,o),
(878,-185,o),
(696,-250,o),
(568,-250,qs),
(442,-250,o),
(232,-183,o),
(79,-61,o),
(-5,107,o),
(-5,208,qs),
(-5,309,o),
(79,477,o),
(232,600,o),
(442,667,o),
(568,667,qs),
(622,667,o),
(733,649,o),
(835,612,o),
(913,554,o),
(934,513,q),
(940,515,l),
(919,557,o),
(839,616,o),
(735,655,o),
(622,673,o),
(568,673,qs),
(441,673,o),
(229,605,o),
(74,480,o),
(-11,310,o),
(-11,208,qs),
(-11,106,o),
(73,-64,o),
(228,-188,o),
(440,-256,o),
(568,-256,qs),
(697,-256,o)
);
},
{
closed = 1;
nodes = (
(1224,345,o),
(1278,412,o),
(1308,490,o),
(1308,524,qs),
(1308,570,o),
(1268,667,o),
(1180,749,o),
(1037,800,o),
(935,799,qs),
(882,799,o),
(771,773,o),
(669,724,o),
(591,653,o),
(570,606,q),
(576,604,l),
(596,649,o),
(672,720,o),
(772,768,o),
(882,793,o),
(935,793,qs),
(1036,793,o),
(1177,744,o),
(1263,663,o),
(1302,569,o),
(1302,524,qs),
(1302,491,o),
(1273,416,o),
(1220,350,o),
(1148,308,o),
(1106,308,qs),
(1069,308,o),
(1029,365,o),
(1029,399,qs),
(1029,448,o),
(1079,544,o),
(1163,632,o),
(1269,708,o),
(1383,765,o),
(1491,796,o),
(1535,796,q),
(1535,802,l),
(1490,802,o),
(1380,770,o),
(1265,713,o),
(1158,636,o),
(1073,546,o),
(1023,449,o),
(1023,399,qs),
(1023,362,o),
(1066,302,o),
(1106,302,qs),
(1150,302,o)
);
}
);
width = 1132;
}
);
note = I;
unicode = 73;
},
{
glyphname = J;
layers = (
{
anchors = (
{
name = bottom;
pos = (566,0);
},
{
name = top;
pos = (1435,770);
}
);
layerId = m01;
shapes = (
{
closed = 1;
nodes = (
(177,-272,o),
(23,-147,o),
(-63,19,o),
(-61,113,qs),
(-59,208,o),
(32,374,o),
(192,499,o),
(400,570,o),
(518,570,qs),
(572,570,o),
(683,552,o),
(783,515,o),
(861,457,o),
(880,416,q),
(890,419,l),
(870,461,o),
(790,522,o),
(687,561,o),
(572,580,o),
(518,580,qs),
(398,580,o),
(186,507,o),
(24,379,o),
(-69,209,o),
(-71,113,qs),
(-73,17,o),
(14,-152,o),
(172,-280,o),
(381,-353,o),
(502,-353,qs),
(632,-353,o),
(819,-287,o),
(938,-181,o),
(996,-60,o),
(997,-5,qs),
(998,54,o),
(942,152,o),
(838,225,o),
(696,265,o),
(612,265,qs),
(514,265,o),
(384,216,o),
(319,145,o),
(318,112,qs),
(318,86,o),
(351,36,o),
(428,4,o),
(492,4,qs),
(565,5,o),
(680,44,o),
(761,109,o),
(806,187,o),
(808,226,qs),
(810,273,o),
(756,355,o),
(638,407,o),
(543,407,qs),
(447,407,o),
(291,348,o),
(178,250,o),
(116,130,o),
(115,68,qs),
(114,-10,o),
(194,-136,o),
(357,-209,o),
(479,-209,qs),
(595,-209,o),
(812,-127,o),
(897,-51,qs),
(959,4,o),
(1066,151,o),
(1162,317,o),
(1257,482,o),
(1356,631,o),
(1412,688,qs),
(1438,714,o),
(1501,761,o),
(1565,796,o),
(1590,804,q),
(1538,804,l),
(1471,767,o),
(1378,673,o),
(1328,605,qs),
(1243,487,o),
(1092,282,o),
(952,112,o),
(817,-21,o),
(677,-112,o),
(525,-160,o),
(438,-160,qs),
(349,-160,o),
(207,-109,o),
(124,-8,o),
(125,68,qs),
(126,126,o),
(186,242,o),
(296,339,o),
(449,397,o),
(543,397,qs),
(634,397,o),
(748,348,o),
(800,270,o),
(798,226,qs),
(796,189,o),
(752,115,o),
(673,53,o),
(562,15,o),
(491,14,qs),
(431,14,o),
(359,43,o),
(328,89,o),
(328,113,qs),
(329,143,o),
(391,208,o),
(516,254,o),
(611,254,qs),
(694,254,o),
(832,216,o),
(933,146,o),
(988,51,o),
(987,-5,qs),
(986,-58,o),
(930,-175,o),
(812,-278,o),
(629,-343,o),
(501,-343,qs),
(383,-343,o)
);
},
{
closed = 1;
nodes = (
(1188,293,o),
(1235,361,o),
(1262,439,o),
(1262,475,qs),
(1262,520,o),
(1220,613,o),
(1131,690,o),
(994,737,o),
(901,737,qs),
(801,737,o),
(635,681,o),
(517,587,o),
(489,529,q),
(495,520,l),
(523,580,o),
(642,674,o),
(807,727,o),
(903,727,qs),
(993,727,o),
(1125,682,o),
(1211,609,o),
(1253,522,o),
(1253,480,qs),
(1253,446,o),
(1228,370,o),
(1183,303,o),
(1119,260,o),
(1080,260,qs),
(1052,260,o),
(1026,302,o),
(1026,329,qs),
(1027,385,o),
(1079,496,o),
(1166,601,o),
(1275,690,o),
(1391,757,o),
(1502,795,o),
(1546,794,q),
(1546,804,l),
(1500,805,o),
(1387,769,o),
(1267,705,o),
(1155,618,o),
(1066,517,o),
(1012,409,o),
(1011,354,qs),
(1011,308,o),
(1049,250,o),
(1080,250,qs),
(1121,250,o)
);
}
);
width = 1171;
},
{
layerId = "D8AEADB0-1DB0-4081-A325-B35DA37C7650";
shapes = (
{
closed = 1;
nodes = (
(175.851,-273.742,o),
(21.305,-148.289,o),
(-65,18.314,o),
(-63,112.655,qs),
(-61,208,o),
(31,375,o),
(190,501,o),
(400,572,o),
(518,572,qs),
(572,572,o),
(683,554,o),
(784,517,o),
(861,459,o),
(881,418,q),
(887,420,l),
(867,462,o),
(788,521,o),
(685,560,o),
(572,578,o),
(518.14,578,qs),
(398.451,578,o),
(187,506,o),
(26,378,o),
(-67,208.516,o),
(-69,112.807,qs),
(-71,17.099,o),
(16,-151.388,o),
(173,-279,o),
(382,-351,o),
(502.036,-351,qs),
(631,-351,o),
(818,-285.384,o),
(937,-180,o),
(994,-59,o),
(995,-5,qs),
(996,54,o),
(939,152,o),
(835,224,o),
(694.753,263,o),
(611.79,263,qs),
(515,263,o),
(385,214,o),
(320.985,144.092,o),
(320,111.6,qs),
(320,86,o),
(352.4,37.22,o),
(428,6,o),
(491.808,6,qs),
(564.589,6.99,o),
(679.243,45.619,o),
(760,110,o),
(804,187,o),
(806,225.768,qs),
(808,272.488,o),
(755,354,o),
(638,405,o),
(543.207,405,qs),
(447.415,405,o),
(291.754,346.376,o),
(179,249,o),
(117.969,129.462,o),
(116.984,67.7,qs),
(116,-10,o),
(195,-134,o),
(357.428,-207,o),
(479,-207,qs),
(596,-207,o),
(811,-126,o),
(896,-50,qs),
(958,6,o),
(1064,153,o),
(1161,318,o),
(1254,482,o),
(1354,631,o),
(1411,689,qs),
(1440,718,o),
(1504,765,o),
(1565,796,o),
(1590,802,q),
(1539,802,l),
(1508,785,o),
(1440,734,o),
(1405,695,qs),
(1337,617,o),
(1201,430,o),
(1059,237,o),
(907,60,o),
(738,-80,o),
(547.205,-162,o),
(438,-162,qs),
(349,-162,o),
(205,-111,o),
(122,-8,o),
(123,68,qs),
(124,126.667,o),
(184,244,o),
(295,340,o),
(448.677,399,o),
(543.093,399,qs),
(634.496,399,o),
(749,350,o),
(802,271,o),
(799.987,226.484,qs),
(797.974,189.051,o),
(753.689,114.184,o),
(674.178,51.457,o),
(562.46,13.012,o),
(491,12,qs),
(430.091,12,o),
(357,42,o),
(326,88,o),
(326,112.605,qs),
(327,143.361,o),
(389,210,o),
(516,256,o),
(611,256,qs),
(692,256,o),
(831,218,o),
(933.942,148,o),
(990,53,o),
(989,-5,qs),
(987.982,-58.312,o),
(931,-176,o),
(814,-280,o),
(629,-345,o),
(501,-345,qs),
(382.582,-345,o)
);
},
{
closed = 1;
nodes = (
(1186,294,o),
(1234,362,o),
(1260,439.509,o),
(1260,475.283,qs),
(1260,520,o),
(1218.273,612.143,o),
(1129.852,688.433,o),
(993.744,735,o),
(901.349,735,qs),
(802,735,o),
(637.169,679.747,o),
(520,587,o),
(491,529,q),
(495,524,l),
(524,584,o),
(643,676,o),
(807,729,o),
(903,729,qs),
(993,729,o),
(1126.015,683.68,o),
(1212.677,610.16,o),
(1255,522.541,o),
(1255,480.242,qs),
(1255,446,o),
(1229.627,369.183,o),
(1183.955,301.462,o),
(1119,258,o),
(1080,258,qs),
(1052,258,o),
(1024,302,o),
(1024,329,qs),
(1025,385,o),
(1077,496,o),
(1164,601.402,o),
(1273,690.743,o),
(1389,758,o),
(1499,796,o),
(1544,796,q),
(1544,802,l),
(1498,802,o),
(1385,766,o),
(1267,702,o),
(1155.557,615.926,o),
(1067,516,o),
(1014,408,o),
(1013,354,qs),
(1013,314,o),
(1046,252,o),
(1080,252,qs),
(1121,252,o)
);
}
);
width = 1135;
}
);
note = J;
unicode = 74;
},
{
glyphname = K;
layers = (
{
layerId = m01;
shapes = (
{
closed = 1;
nodes = (
(932,454,o),
(1006,550,o),
(1006,609,qs),
(1006,676,o),
(907,756,o),
(824,756,qs),
(786,756,o),
(718,737,o),
(694,718,q),
(701,711,l),
(746,746,o),
(824,746,qs),
(902,746,o),
(996,671,o),
(996,609,qs),
(996,553,o),
(924,462,o),
(803,408,o),
(729,408,qs),
(634,408,o),
(491,468,o),
(413,576,o),
(413,649,qs),
(413,710,o),
(475,814,o),
(587,891,o),
(737,934,o),
(825,934,qs),
(905,934,o),
(1052,888,o),
(1182,820,o),
(1292,753,o),
(1379,707,o),
(1409,708,q),
(1410,719,l),
(1384,718,o),
(1298,765,o),
(1185,835,o),
(1050,905,o),
(899,953,o),
(819,953,qs),
(715,953,o),
(559,899,o),
(455,810,o),
(403,702,o),
(403,649,qs),
(403,582,o),
(458,487,o),
(551,427,o),
(667,398,o),
(729,398,qs),
(807,398,o)
);
},
{
closed = 1;
nodes = (
(1121,356,o),
(1121,314,qs),
(1121,262,o),
(1098,146,o),
(1074,31,o),
(1074,-20,qs),
(1074,-97,o),
(1135,-181,o),
(1193,-181,qs),
(1219,-181,o),
(1253,-166,o),
(1269,-154,q),
(1265,-146,l),
(1236,-172,o),
(1195,-172,qs),
(1143,-172,o),
(1103,-94,o),
(1103,-33,qs),
(1103,12,o),
(1121,118,o),
(1138,231,o),
(1138,284,qs),
(1138,345,o),
(1106,405,o),
(1074,405,qs),
(1061,405,o),
(1043,385,o),
(1043,371,qs),
(1043,354,o),
(1070,315,o),
(1128,287,o),
(1175,287,qs),
(1240,287,o),
(1349,334,o),
(1442,412,o),
(1524,509,o),
(1562,558,qs),
(1588,592,o),
(1653,668,o),
(1727,735,o),
(1807,778,o),
(1848,778,qs),
(1859,778,o),
(1879,774,o),
(1887,768,q),
(1892,778,l),
(1875,788,o),
(1849,788,qs),
(1804,788,o),
(1719,742,o),
(1642,671,o),
(1577,595,o),
(1553,564,qs),
(1514,515,o),
(1433,420,o),
(1342,344,o),
(1237,298,o),
(1175,298,qs),
(1132,298,o),
(1079,323,o),
(1055,358,o),
(1055,371,qs),
(1055,382,o),
(1066,395,o),
(1074,395,qs),
(1097,395,o)
);
},
{
closed = 1;
nodes = (
(244,23,o),
(152,123,o),
(152,203,qs),
(152,255,o),
(207,358,o),
(310,442,o),
(454,492,o),
(544,492,qs),
(633,492,o),
(747,445,o),
(802,369,o),
(802,326,qs),
(802,289,o),
(761,212,o),
(683,148,o),
(571,109,o),
(499,109,qs),
(438,109,o),
(365,138,o),
(333,184,o),
(333,208,qs),
(333,238,o),
(394,303,o),
(519,349,o),
(614,349,qs),
(697,349,o),
(836,311,o),
(938,241,o),
(995,146,o),
(995,90,qs),
(995,37,o),
(941,-80,o),
(825,-183,o),
(644,-248,o),
(516,-248,qs),
(390,-248,o),
(181,-181,o),
(29,-60,o),
(-55,108,o),
(-55,208,qs),
(-55,309,o),
(29,476,o),
(182,598,o),
(391,665,o),
(516,665,qs),
(570,665,o),
(681,647,o),
(783,610,o),
(861,552,o),
(881,511,q),
(891,514,l),
(870,556,o),
(790,617,o),
(685,656,o),
(570,675,o),
(516,675,qs),
(389,675,o),
(176,606,o),
(20,481,o),
(-65,310,o),
(-65,208,qs),
(-65,105,o),
(20,-65,o),
(175,-190,o),
(388,-258,o),
(516,-258,qs),
(646,-258,o),
(831,-192,o),
(949,-86,o),
(1005,35,o),
(1005,90,qs),
(1005,149,o),
(947,247,o),
(841,320,o),
(699,360,o),
(615,360,qs),
(517,360,o),
(387,311,o),
(323,240,o),
(323,207,qs),
(323,181,o),
(357,131,o),
(435,99,o),
(499,99,qs),
(574,99,o),
(690,140,o),
(770,207,o),
(812,287,o),
(812,326,qs),
(812,372,o),
(756,452,o),
(638,502,o),
(544,502,qs),
(453,502,o),
(304,451,o),
(199,365,o),
(142,259,o),
(142,203,qs),
(142,124,o),
(224,-1,o),
(389,-74,o),
(511,-74,qs),
(639,-74,o),
(852,5,o),
(933,84,qs),
(988,137,o),
(1076,269,o),
(1155,412,o),
(1238,548,o),
(1287,603,qs),
(1311,629,o),
(1373,676,o),
(1435,712,o),
(1459,719,q),
(1407,719,l),
(1375,700,o),
(1314,645,o),
(1279,611,qs),
(1236,569,o),
(1137,443,o),
(1026,300,o),
(899,160,o),
(754,45,o),
(590,-24,o),
(496,-24,qs),
(400,-24,o)
);
}
);
width = 1292;
},
{
layerId = "D8AEADB0-1DB0-4081-A325-B35DA37C7650";
shapes = (
{
closed = 1;
nodes = (
(931,456,o),
(1004,551,o),
(1004,609.141,qs),
(1004,675.165,o),
(906,754,o),
(824.317,754,qs),
(786.921,754,o),
(720,735,o),
(697,718,q),
(701,714,l),
(746,748,o),
(824,748,qs),
(902.907,748,o),
(998,672,o),
(998,609.475,qs),
(998,553,o),
(926,460,o),
(803.748,406,o),
(728.983,406,qs),
(633,406,o),
(490,466,o),
(411,576,o),
(411,649.307,qs),
(411,710.563,o),
(473,815,o),
(585.855,892.642,o),
(737,936,o),
(825.279,936,qs),
(905.533,936,o),
(1053,890,o),
(1181,823,o),
(1289,756,o),
(1376,710,o),
(1407,710,q),
(1408,717,l),
(1378,717,o),
(1292,764,o),
(1182.645,834,o),
(1052,904,o),
(902,951,o),
(819,951,qs),
(715.286,951,o),
(559.714,897.378,o),
(456,809,o),
(405,701.947,o),
(405,649.412,qs),
(405,583,o),
(459.257,488,o),
(551,428,o),
(667,400,o),
(728.766,400,qs),
(806.472,400,o)
);
},
{
closed = 1;
nodes = (
(1123,351,o),
(1123,314,qs),
(1123,259,o),
(1100,146.013,o),
(1076,34,o),
(1076,-20,qs),
(1076,-90,o),
(1132,-179,o),
(1193,-179,qs),
(1218.133,-179,o),
(1251,-165,o),
(1266,-153,q),
(1264,-149,l),
(1236,-174,o),
(1195,-174,qs),
(1143,-174,o),
(1101,-94,o),
(1101,-33,qs),
(1101,15,o),
(1119,118.58,o),
(1136,229,o),
(1136,284,qs),
(1136,334,o),
(1110,403,o),
(1074,403,qs),
(1061,403,o),
(1045,383,o),
(1045,371,qs),
(1045,355,o),
(1071,316,o),
(1128.659,289,o),
(1175.382,289,qs),
(1240,289,o),
(1347.921,336,o),
(1440,414,o),
(1522,510,o),
(1560,559,qs),
(1586,593,o),
(1651,669,o),
(1725.718,736.609,o),
(1806.495,780,o),
(1847.893,780,qs),
(1859,780,o),
(1878.286,776.4,o),
(1886,771,q),
(1889,777,l),
(1873.186,786,o),
(1849,786,qs),
(1804.435,786,o),
(1720.256,740.393,o),
(1644,670,o),
(1579,594,o),
(1554.833,563,qs),
(1515.562,514,o),
(1434,419,o),
(1343,342.377,o),
(1238,296,o),
(1175.215,296,qs),
(1131.671,296,o),
(1078,322,o),
(1053,357,o),
(1053,370.542,qs),
(1053,382,o),
(1064,397,o),
(1073.806,397,qs),
(1102,397,o)
);
},
{
closed = 1;
nodes = (
(243,21,o),
(150,123,o),
(150,203.34,qs),
(150,255.562,o),
(205,359,o),
(309,443,o),
(453.615,494,o),
(544,494,qs),
(633.877,494,o),
(749,446,o),
(804,370,o),
(804,326,qs),
(804,288.792,o),
(762.655,211.36,o),
(684,147,o),
(571.391,107,o),
(499,107,qs),
(437.545,107,o),
(364,137,o),
(331,183.46,o),
(331,207.7,qs),
(331,238,o),
(393,304,o),
(518.568,351,o),
(614,351,qs),
(695,351,o),
(834,313,o),
(938.566,243,o),
(997,148,o),
(997,90,qs),
(997,36.688,o),
(942,-81,o),
(825.727,-184.613,o),
(644.301,-250,o),
(516,-250,qs),
(389.559,-250,o),
(179.827,-182.759,o),
(27.294,-61.325,o),
(-57,107.278,o),
(-57,207.637,qs),
(-57,309,o),
(27,477.156,o),
(180,600,o),
(390.251,667,o),
(516,667,qs),
(570,667,o),
(681,649,o),
(783,612,o),
(861,554,o),
(882,513,q),
(888,515,l),
(867,557,o),
(787,616,o),
(683,655,o),
(570,673,o),
(516.137,673,qs),
(389.459,673,o),
(177,605,o),
(22,480,o),
(-63,310,o),
(-63,208.272,qs),
(-63,105.547,o),
(21,-64,o),
(175.618,-188.352,o),
(388.092,-256,o),
(515.777,-256,qs),
(645.456,-256,o),
(830,-190,o),
(948,-85,o),
(1003,36,o),
(1003,90,qs),
(1003,149,o),
(944,247,o),
(838.855,318.708,o),
(698,358,o),
(614.808,358,qs),
(517.75,358,o),
(389,309,o),
(325,239.34,o),
(325,206.962,qs),
(325,181.453,o),
(359,132.396,o),
(435,101,o),
(498.749,101,qs),
(573.455,101,o),
(689,141,o),
(769,208,o),
(810,287,o),
(810,325.637,qs),
(810,371.209,o),
(754.331,450.465,o),
(637.028,500,o),
(543.583,500,qs),
(453.12,500,o),
(305,449,o),
(200,364,o),
(144,258,o),
(144,202.83,qs),
(144,125,o),
(226,0,o),
(389,-72,o),
(511.488,-72,qs),
(640,-72,o),
(852,8,o),
(932,85,qs),
(988,138,o),
(1076,272,o),
(1154,414,o),
(1237,549.288,o),
(1286,604,qs),
(1313,634,o),
(1375,680,o),
(1435,712,o),
(1459,717,q),
(1408,717,l),
(1378,700,o),
(1315,648,o),
(1280,610,qs),
(1226,554,o),
(1117,417,o),
(1003,274,o),
(879,142,o),
(741,36,o),
(585.264,-26,o),
(496,-26,qs),
(399.619,-26,o)
);
}
);
width = 1256;
}
);
note = K;
unicode = 75;
},
{
glyphname = L;
layers = (
{
anchors = (
{
name = bottom;
pos = (479,-140);
},
{
name = center;
pos = (886,234);
},
{
name = top;
pos = (1308,770);
},
{
name = topright;
pos = (1053,770);
}
);
layerId = m01;
shapes = (
{
closed = 1;
nodes = (
(1013,65,o),
(878,-29,o),
(724,-96,o),
(560,-132,o),
(479,-132,qs),
(368,-132,o),
(181,-63,o),
(43,61,o),
(-33,231,o),
(-33,331,qs),
(-33,447,o),
(60,645,o),
(227,793,o),
(451,875,o),
(582,875,qs),
(651,875,o),
(783,851,o),
(897,808,o),
(980,751,o),
(998,718,q),
(1007,723,l),
(988,757,o),
(903,816,o),
(787,860,o),
(652,885,o),
(582,885,qs),
(449,885,o),
(221,801,o),
(51,651,o),
(-43,449,o),
(-43,331,qs),
(-43,228,o),
(34,55,o),
(175,-72,o),
(365,-142,o),
(479,-142,qs),
(562,-142,o),
(727,-105,o),
(883,-36,o),
(1019,61,o),
(1073,121,qs),
(1116,169,l),
(1106,169,l),
(1065,123,ls)
);
},
{
closed = 1;
nodes = (
(315,-11,o),
(315,6,qs),
(315,20,o),
(346,36,o),
(371,36,qs),
(438,37,o),
(612,-33,o),
(701,-98,qs),
(787,-160,o),
(913,-240,o),
(1012,-286,o),
(1100,-305,o),
(1147,-305,qs),
(1242,-305,o),
(1353,-238,o),
(1353,-182,qs),
(1353,-153,o),
(1331,-118,q),
(1322,-123,l),
(1341,-151,o),
(1341,-176,qs),
(1341,-223,o),
(1249,-276,o),
(1166,-276,qs),
(1087,-276,o),
(946,-229,o),
(816,-156,o),
(692,-74,o),
(568,-1,o),
(440,46,o),
(370,46,qs),
(342,46,o),
(305,23,o),
(305,4,qs),
(305,-17,o),
(340,-45,o),
(411,-58,o),
(464,-58,qs),
(544,-58,o),
(704,10,o),
(771,66,qs),
(838,123,o),
(958,268,o),
(1068,421,o),
(1172,562,o),
(1223,615,qs),
(1272,661,o),
(1342,708,o),
(1363,708,qs),
(1383,708,o),
(1383,682,qs),
(1383,632,o),
(1309,508,o),
(1179,378,o),
(1012,257,o),
(825,160,o),
(635,103,o),
(549,103,qs),
(437,103,o),
(274,169,o),
(186,291,o),
(186,376,qs),
(186,442,o),
(248,555,o),
(360,639,o),
(510,685,o),
(598,685,qs),
(717,685,o),
(856,583,o),
(856,494,qs),
(856,435,o),
(775,339,o),
(637,282,o),
(553,282,qs),
(479,282,o),
(388,336,o),
(388,380,qs),
(388,420,o),
(463,485,o),
(591,523,o),
(670,523,qs),
(742,523,o),
(896,492,o),
(1041,437,o),
(1159,365,o),
(1195,325,q),
(1202,332,l),
(1166,373,o),
(1046,446,o),
(898,502,o),
(742,533,o),
(670,533,qs),
(588,533,o),
(455,492,o),
(378,423,o),
(378,380,qs),
(378,331,o),
(474,272,o),
(553,272,qs),
(618,272,o),
(731,306,o),
(817,367,o),
(866,448,o),
(866,494,qs),
(866,544,o),
(813,636,o),
(695,695,o),
(598,695,qs),
(508,695,o),
(354,647,o),
(239,561,o),
(176,444,o),
(176,376,qs),
(176,298,o),
(257,169,o),
(423,93,o),
(549,93,qs),
(624,93,o),
(787,136,o),
(951,211,o),
(1105,309,o),
(1237,419,o),
(1337,532,o),
(1393,638,o),
(1393,682,qs),
(1393,718,o),
(1363,718,qs),
(1338,718,o),
(1261,669,o),
(1214,623,qs),
(1179,589,o),
(1086,490,o),
(981,375,o),
(873,259,o),
(772,156,o),
(729,119,qs),
(676,69,o),
(555,1,o),
(441,-33,o),
(396,-33,qs),
(359,-33,o)
);
}
);
width = 1106;
},
{
layerId = "D8AEADB0-1DB0-4081-A325-B35DA37C7650";
shapes = (
{
closed = 1;
nodes = (
(1015,65,o),
(879,-29,o),
(723,-97,o),
(559,-134,o),
(479,-134,qs),
(367.255,-134,o),
(179,-65,o),
(41,59.629,o),
(-35,230.492,o),
(-35,331,qs),
(-35,448,o),
(58,646.572,o),
(225,795,o),
(450.262,877,o),
(582,877,qs),
(650,877,o),
(783,853,o),
(897,810.43,o),
(980,754,o),
(999,721,q),
(1004,724,l),
(985,757.269,o),
(900,815,o),
(785,859,o),
(651.317,883,o),
(582,883,qs),
(449.368,883,o),
(222,800,o),
(53,650,o),
(-41,448.764,o),
(-41,331.211,qs),
(-41,228.6,o),
(36,56.255,o),
(176.421,-70.265,o),
(365.533,-140,o),
(479,-140,qs),
(559,-140,o),
(727,-101,o),
(886,-31,o),
(1024,65,o),
(1074,122,qs),
(1081,130,l),
(1073,130,l),
(1066,122,ls)
);
},
{
closed = 1;
nodes = (
(313,-13,o),
(313,6,qs),
(313,20,o),
(346,38,o),
(371.188,38,qs),
(438.692,39,o),
(614,-32,o),
(702,-96,qs),
(787.807,-158,o),
(913.525,-238,o),
(1012.303,-284,o),
(1100.105,-303,o),
(1147,-303,qs),
(1241.078,-303,o),
(1351,-237.089,o),
(1351,-182,qs),
(1351,-154.359,o),
(1330,-121,q),
(1325,-124,l),
(1343,-151,o),
(1343,-176.4,qs),
(1343,-224.152,o),
(1249,-278,o),
(1166,-278,qs),
(1088,-278,o),
(945.959,-231,o),
(815,-158,o),
(689,-76,o),
(565.492,-3,o),
(438,44,o),
(370,44,qs),
(338,44,o),
(307,18,o),
(307,4,qs),
(307,-9,o),
(329,-37,o),
(396,-56,o),
(464,-56,qs),
(543.739,-56,o),
(703.218,12,o),
(770,68,qs),
(836,124,o),
(956,269,o),
(1066,422,o),
(1171,564,o),
(1222,616,qs),
(1274,666,o),
(1343,710,o),
(1363,710,qs),
(1385,710,o),
(1385,682,qs),
(1385,631.713,o),
(1310,507,o),
(1181,377,o),
(1013.056,255.445,o),
(825,158,o),
(636,101,o),
(549.285,101,qs),
(436.355,101,o),
(272,168,o),
(184,290.519,o),
(184,375.881,qs),
(184,442.162,o),
(246,555.643,o),
(358,640,o),
(509,687,o),
(598.275,687,qs),
(719,687,o),
(858,583,o),
(858,494,qs),
(858,434.619,o),
(776,338,o),
(638,280,o),
(552.988,280,qs),
(478.096,280,o),
(386,335.174,o),
(386,380.13,qs),
(386,421,o),
(461,486,o),
(590.237,525,o),
(670,525,qs),
(742,525,o),
(896,494.157,o),
(1041,439.434,o),
(1159,367.798,o),
(1195,328,q),
(1199,332,l),
(1163,372.64,o),
(1043,445,o),
(897,500,o),
(741.503,531,o),
(669.735,531,qs),
(588,531,o),
(456.267,490.628,o),
(380,422.686,o),
(380,380.345,qs),
(380,332.096,o),
(476,274,o),
(553.354,274,qs),
(617,274,o),
(730,308,o),
(815,368,o),
(864,448.398,o),
(864,494.056,qs),
(864,543.684,o),
(811,635,o),
(695,693,o),
(598,693,qs),
(508,693,o),
(355.145,645,o),
(241,559,o),
(178,444,o),
(178,376,qs),
(178,298,o),
(259,171,o),
(423,95,o),
(548.761,95,qs),
(623.619,95,o),
(786.311,138,o),
(950,213,o),
(1103,310,o),
(1235,419.705,o),
(1335,532.402,o),
(1391,638.118,o),
(1391,682,qs),
(1391,716,o),
(1363,716,qs),
(1342,716,o),
(1268,674,o),
(1215,622,qs),
(1174,582,o),
(1080,481,o),
(979,370,o),
(876,259,o),
(776,158,o),
(730,118,qs),
(677,67,o),
(555.618,-1,o),
(441.259,-35,o),
(396.117,-35,qs),
(359,-35,o)
);
}
);
width = 1073;
}
);
note = L;
unicode = 76;
},
{
glyphname = uni01C7;
layers = (
{
layerId = m01;
shapes = (
{
closed = 1;
nodes = (
(1977,293,o),
(2024,361,o),
(2051,439,o),
(2051,475,qs),
(2051,520,o),
(2009,613,o),
(1920,690,o),
(1783,737,o),
(1690,737,qs),
(1590,737,o),
(1424,681,o),
(1306,587,o),
(1278,529,q),
(1284,520,l),
(1312,580,o),
(1431,674,o),
(1596,727,o),
(1692,727,qs),
(1782,727,o),
(1914,682,o),
(2000,609,o),
(2042,522,o),
(2042,480,qs),
(2042,446,o),
(2017,370,o),
(1972,303,o),
(1908,260,o),
(1869,260,qs),
(1841,260,o),
(1815,302,o),
(1815,329,qs),
(1816,385,o),
(1868,496,o),
(1955,601,o),
(2064,690,o),
(2180,757,o),
(2291,795,o),
(2335,794,q),
(2335,804,l),
(2289,805,o),
(2176,769,o),
(2056,705,o),
(1944,618,o),
(1855,517,o),
(1801,409,o),
(1800,354,qs),
(1800,308,o),
(1838,250,o),
(1869,250,qs),
(1910,250,o)
);
},
{
closed = 1;
nodes = (
(101,541,o),
(209,631,o),
(362,685,o),
(456,685,qs),
(546,685,o),
(661,631,o),
(716,544,o),
(714,494,qs),
(713,457,o),
(671,383,o),
(593,321,o),
(482,283,o),
(411,282,qs),
(350,282,o),
(278,310,o),
(246,356,o),
(246,381,qs),
(246,411,o),
(307,476,o),
(432,522,o),
(527,522,qs),
(591,522,o),
(733,496,o),
(871,449,o),
(991,384,o),
(1032,345,q),
(1045,348,l),
(1004,389,o),
(882,457,o),
(739,506,o),
(593,533,o),
(528,533,qs),
(430,533,o),
(300,484,o),
(236,413,o),
(236,380,qs),
(236,354,o),
(270,304,o),
(348,272,o),
(412,272,qs),
(486,272,o),
(600,311,o),
(680,377,o),
(723,455,o),
(724,494,qs),
(726,547,o),
(671,638,o),
(551,695,o),
(456,695,qs),
(360,695,o),
(204,640,o),
(93,547,o),
(34,434,o),
(34,376,qs),
(34,299,o),
(116,170,o),
(282,93,o),
(407,93,qs),
(476,93,o),
(633,137,o),
(796,214,o),
(952,313,o),
(1088,423,o),
(1192,536,o),
(1251,640,o),
(1251,682,qs),
(1251,717,o),
(1221,717,qs),
(1196,717,o),
(1119,668,o),
(1072,623,qs),
(1038,592,o),
(946,494,o),
(841,378,o),
(733,261,o),
(630,157,o),
(587,120,qs),
(531,72,o),
(411,3,o),
(299,-33,o),
(254,-33,qs),
(217,-33,o),
(173,-11,o),
(173,6,qs),
(173,19,o),
(204,36,o),
(229,36,qs),
(301,36,o),
(432,-7,o),
(561,-82,o),
(629,-131,qs),
(676,-164,o),
(776,-230,o),
(889,-290,o),
(1021,-336,o),
(1178,-363,o),
(1271,-363,qs),
(1406,-363,o),
(1600,-295,o),
(1725,-186,o),
(1785,-61,o),
(1786,-5,qs),
(1787,54,o),
(1731,152,o),
(1627,225,o),
(1485,265,o),
(1401,265,qs),
(1303,265,o),
(1173,216,o),
(1108,145,o),
(1107,112,qs),
(1107,86,o),
(1140,36,o),
(1217,4,o),
(1281,4,qs),
(1354,5,o),
(1469,44,o),
(1550,109,o),
(1595,187,o),
(1597,226,qs),
(1599,273,o),
(1545,355,o),
(1427,407,o),
(1332,407,qs),
(1236,407,o),
(1080,348,o),
(967,250,o),
(905,130,o),
(904,68,qs),
(903,-10,o),
(983,-136,o),
(1146,-209,o),
(1268,-209,qs),
(1384,-209,o),
(1601,-127,o),
(1686,-51,qs),
(1748,4,o),
(1854,151,o),
(1951,315,o),
(2045,480,o),
(2144,630,o),
(2201,688,qs),
(2227,714,o),
(2292,761,o),
(2355,796,o),
(2379,804,q),
(2327,804,l),
(2263,768,o),
(2157,659,o),
(2055,521,o),
(1995,440,qs),
(1943,368,o),
(1834,224,o),
(1718,89,o),
(1594,-25,o),
(1459,-112,o),
(1310,-160,o),
(1227,-160,qs),
(1138,-160,o),
(996,-109,o),
(913,-8,o),
(914,68,qs),
(915,126,o),
(975,242,o),
(1085,339,o),
(1238,397,o),
(1332,397,qs),
(1423,397,o),
(1537,348,o),
(1589,270,o),
(1587,226,qs),
(1585,189,o),
(1541,115,o),
(1462,53,o),
(1351,15,o),
(1280,14,qs),
(1220,14,o),
(1148,43,o),
(1117,89,o),
(1117,113,qs),
(1118,143,o),
(1180,208,o),
(1305,254,o),
(1400,254,qs),
(1483,254,o),
(1621,216,o),
(1722,146,o),
(1777,51,o),
(1776,-5,qs),
(1775,-58,o),
(1719,-175,o),
(1601,-278,o),
(1418,-343,o),
(1290,-343,qs),
(1199,-343,o),
(1012,-287,o),
(824,-198,o),
(641,-99,o),
(465,-10,o),
(302,46,o),
(228,46,qs),
(200,46,o),
(163,23,o),
(163,4,qs),
(163,-17,o),
(201,-44,o),
(277,-58,o),
(334,-58,qs),
(411,-58,o),
(563,9,o),
(629,66,qs),
(692,121,o),
(811,266,o),
(923,420,o),
(1030,562,o),
(1081,615,qs),
(1131,665,o),
(1202,708,o),
(1221,708,qs),
(1242,708,o),
(1242,682,qs),
(1242,641,o),
(1183,538,o),
(1078,428,o),
(942,319,o),
(787,221,o),
(627,146,o),
(473,103,o),
(407,103,qs),
(285,103,o),
(123,178,o),
(44,302,o),
(44,376,qs),
(44,431,o)
);
}
);
width = 1960;
},
{
layerId = "D8AEADB0-1DB0-4081-A325-B35DA37C7650";
shapes = (
{
closed = 1;
nodes = (
(1975,294,o),
(2023,362,o),
(2049,439.509,o),
(2049,475.283,qs),
(2049,520,o),
(2007.273,612.143,o),
(1918.852,688.433,o),
(1782.744,735,o),
(1690.349,735,qs),
(1591,735,o),
(1426.169,679.747,o),
(1309,587,o),
(1280,529,q),
(1284,524,l),
(1313,584,o),
(1432,676,o),
(1596,729,o),
(1692,729,qs),
(1782,729,o),
(1915.015,683.68,o),
(2001.677,610.16,o),
(2044,522.541,o),
(2044,480.242,qs),
(2044,446,o),
(2018.627,369.183,o),
(1972.955,301.462,o),
(1908,258,o),
(1869,258,qs),
(1841,258,o),
(1813,302,o),
(1813,329,qs),
(1814,385,o),
(1866,496,o),
(1953,601.402,o),
(2062,690.743,o),
(2178,758,o),
(2288,796,o),
(2333,796,q),
(2333,802,l),
(2287,802,o),
(2174,766,o),
(2056,702,o),
(1944.557,615.926,o),
(1856,516,o),
(1803,408,o),
(1802,354,qs),
(1802,314,o),
(1835,252,o),
(1869,252,qs),
(1910,252,o)
);
},
{
closed = 1;
nodes = (
(100,542,o),
(209,632,o),
(362,687,o),
(456,687,qs),
(546.878,687,o),
(663,633,o),
(718,545,o),
(716,494.425,qs),
(715,457,o),
(673,382.149,o),
(594.24,319.437,o),
(482,281,o),
(411,280,qs),
(350,280,o),
(276,309,o),
(244,355.648,o),
(244,381,qs),
(244,411.426,o),
(305.656,477.348,o),
(432,524,o),
(527,524,qs),
(591,524,o),
(733,498,o),
(872,451,o),
(991,386,o),
(1033,347,q),
(1041,349,l),
(999,389,o),
(878.484,456.056,o),
(737.224,504.375,o),
(593,531,o),
(528.444,531,qs),
(431.113,531,o),
(302,482,o),
(238,412.34,o),
(238,379.962,qs),
(238,354.453,o),
(272,305.396,o),
(348,274,o),
(411.746,274,qs),
(485.452,274,o),
(599,313,o),
(678,378,o),
(721,455.264,o),
(722,493.896,qs),
(724,546.396,o),
(669.14,636.538,o),
(551,693,o),
(456,693,qs),
(360,693,o),
(206,638,o),
(95,547,o),
(36,434,o),
(36,376.34,qs),
(36,299.792,o),
(117.589,171.548,o),
(282.758,95,o),
(407.132,95,qs),
(475.786,95,o),
(632,139,o),
(795,215,o),
(950.466,314,o),
(1086,424,o),
(1190,536.564,o),
(1249,640.162,o),
(1249,682,qs),
(1249,715,o),
(1221,715,qs),
(1200,715,o),
(1126,673,o),
(1073,622,qs),
(1032,583,o),
(938,482,o),
(837,370,o),
(734,259,o),
(634,158,o),
(588,118,qs),
(531.849,70,o),
(411.524,1,o),
(299.222,-35,o),
(254.1,-35,qs),
(217,-35,o),
(171,-13,o),
(171,6,qs),
(171,17,o),
(198,38,o),
(229,38,qs),
(274,38,o),
(376,14,o),
(478,-28,o),
(522,-56,qs),
(578,-91,o),
(693,-173,o),
(820,-254,o),
(971,-321,o),
(1156,-361,o),
(1271,-361,qs),
(1406,-361,o),
(1598.976,-293.45,o),
(1723.317,-185.172,o),
(1783,-61,o),
(1784,-5,qs),
(1785,54,o),
(1728,152,o),
(1624,224,o),
(1483.753,263,o),
(1400.79,263,qs),
(1304,263,o),
(1174,214,o),
(1109.985,144.092,o),
(1109,111.6,qs),
(1109,86,o),
(1141.4,37.22,o),
(1217,6,o),
(1280.808,6,qs),
(1353.589,6.99,o),
(1468.243,45.619,o),
(1549,110,o),
(1593,187,o),
(1595,225.768,qs),
(1597,272.488,o),
(1544,354,o),
(1427,405,o),
(1332.207,405,qs),
(1236.415,405,o),
(1080.754,346.376,o),
(968,249,o),
(906.969,129.462,o),
(905.984,67.7,qs),
(905,-10,o),
(984,-134,o),
(1146.428,-207,o),
(1268,-207,qs),
(1385,-207,o),
(1600,-126,o),
(1685,-49.656,qs),
(1747,5.593,o),
(1853,153.258,o),
(1950,318,o),
(2043,482,o),
(2142.635,631.279,o),
(2200,689,qs),
(2229,718,o),
(2293,765,o),
(2354,796,o),
(2379,802,q),
(2328,802,l),
(2308,791,o),
(2264,761,o),
(2218,721,o),
(2194,695,qs),
(2126,617,o),
(1990,430,o),
(1848,237,o),
(1696,60,o),
(1527,-80,o),
(1336,-162,o),
(1227,-162,qs),
(1138,-162,o),
(994,-111,o),
(911,-8,o),
(912,68,qs),
(913,126.667,o),
(973,244,o),
(1084,340,o),
(1237.677,399,o),
(1332.093,399,qs),
(1423.496,399,o),
(1538,350,o),
(1591,271,o),
(1588.987,226.484,qs),
(1586.974,189.051,o),
(1542.689,114.184,o),
(1463.178,51.457,o),
(1351.46,13.012,o),
(1280,12,qs),
(1219.091,12,o),
(1146,42,o),
(1115,88,o),
(1115,112.605,qs),
(1116,143.361,o),
(1178,210,o),
(1305,256,o),
(1400,256,qs),
(1481,256,o),
(1620,218,o),
(1722.942,148,o),
(1779,53,o),
(1778,-5,qs),
(1776.982,-58.312,o),
(1720,-176,o),
(1603,-280,o),
(1418,-345,o),
(1290,-345,qs),
(1201,-345,o),
(1013.501,-289,o),
(825,-200,o),
(639.451,-101,o),
(461,-12,o),
(299,44,o),
(228,44,qs),
(196,44,o),
(165,18,o),
(165,4,qs),
(165,-9,o),
(189,-37,o),
(261,-56,o),
(334,-56,qs),
(410.739,-56,o),
(562.224,11,o),
(628,68,qs),
(694,125,o),
(813,270,o),
(924,424,o),
(1029,564,o),
(1080,616,qs),
(1130,666.538,o),
(1201,710,o),
(1221.425,710,qs),
(1244,710,o),
(1244,682,qs),
(1244,640,o),
(1185,538,o),
(1080,426.995,o),
(944,317,o),
(788,220,o),
(627,144,o),
(473,101,o),
(407,101,qs),
(285,101,o),
(123,176,o),
(42,302,o),
(42,376.31,qs),
(42,431.54,o)
);
}
);
width = 1924;
}
);
note = uni01C7;
unicode = 455;
},
{
glyphname = Lslash;
layers = (
{
layerId = m01;
shapes = (
{
closed = 1;
nodes = (
(966,188,l),
(716,188,l),
(716,182,l),
(966,182,l)
);
},
{
closed = 1;
nodes = (
(1013,65,o),
(878,-29,o),
(724,-96,o),
(560,-132,o),
(479,-132,qs),
(368,-132,o),
(181,-63,o),
(43,61,o),
(-33,231,o),
(-33,331,qs),
(-33,447,o),
(60,645,o),
(227,793,o),
(451,875,o),
(582,875,qs),
(651,875,o),
(783,851,o),
(897,808,o),
(980,751,o),
(998,718,q),
(1007,723,l),
(988,757,o),
(903,816,o),
(787,860,o),
(652,885,o),
(582,885,qs),
(449,885,o),
(221,801,o),
(51,651,o),
(-43,449,o),
(-43,331,qs),
(-43,228,o),
(34,55,o),
(175,-72,o),
(365,-142,o),
(479,-142,qs),
(562,-142,o),
(727,-105,o),
(883,-36,o),
(1019,61,o),
(1073,121,qs),
(1116,169,l),
(1106,169,l),
(1065,123,ls)
);
},
{
closed = 1;
nodes = (
(315,-11,o),
(315,6,qs),
(315,20,o),
(346,36,o),
(371,36,qs),
(438,37,o),
(612,-33,o),
(701,-98,qs),
(787,-160,o),
(913,-240,o),
(1012,-286,o),
(1100,-305,o),
(1147,-305,qs),
(1242,-305,o),
(1353,-238,o),
(1353,-182,qs),
(1353,-153,o),
(1331,-118,q),
(1322,-123,l),
(1341,-151,o),
(1341,-176,qs),
(1341,-223,o),
(1249,-276,o),
(1166,-276,qs),
(1087,-276,o),
(946,-229,o),
(816,-156,o),
(692,-74,o),
(568,-1,o),
(440,46,o),
(370,46,qs),
(342,46,o),
(305,23,o),
(305,4,qs),
(305,-17,o),
(340,-45,o),
(411,-58,o),
(464,-58,qs),
(544,-58,o),
(704,10,o),
(771,66,qs),
(838,123,o),
(958,268,o),
(1068,421,o),
(1172,562,o),
(1223,615,qs),
(1272,661,o),
(1342,708,o),
(1363,708,qs),
(1383,708,o),
(1383,682,qs),
(1383,632,o),
(1309,508,o),
(1179,378,o),
(1012,257,o),
(825,160,o),
(635,103,o),
(549,103,qs),
(437,103,o),
(274,169,o),
(186,291,o),
(186,376,qs),
(186,442,o),
(248,555,o),
(360,639,o),
(510,685,o),
(598,685,qs),
(717,685,o),
(856,583,o),
(856,494,qs),
(856,435,o),
(775,339,o),
(637,282,o),
(553,282,qs),
(479,282,o),
(388,336,o),
(388,380,qs),
(388,420,o),
(463,485,o),
(591,523,o),
(670,523,qs),
(742,523,o),
(896,492,o),
(1041,437,o),
(1159,365,o),
(1195,325,q),
(1202,332,l),
(1166,373,o),
(1046,446,o),
(898,502,o),
(742,533,o),
(670,533,qs),
(588,533,o),
(455,492,o),
(378,423,o),
(378,380,qs),
(378,331,o),
(474,272,o),
(553,272,qs),
(618,272,o),
(731,306,o),
(817,367,o),
(866,448,o),
(866,494,qs),
(866,544,o),
(813,636,o),
(695,695,o),
(598,695,qs),
(508,695,o),
(354,647,o),
(239,561,o),
(176,444,o),
(176,376,qs),
(176,298,o),
(257,169,o),
(423,93,o),
(549,93,qs),
(624,93,o),
(787,136,o),
(951,211,o),
(1105,309,o),
(1237,419,o),
(1337,532,o),
(1393,638,o),
(1393,682,qs),
(1393,718,o),
(1363,718,qs),
(1338,718,o),
(1261,669,o),
(1214,623,qs),
(1179,589,o),
(1086,490,o),
(981,375,o),
(873,259,o),
(772,156,o),
(729,119,qs),
(676,69,o),
(555,1,o),
(441,-33,o),
(396,-33,qs),
(359,-33,o)
);
}
);
width = 1073;
},
{
layerId = "D8AEADB0-1DB0-4081-A325-B35DA37C7650";
shapes = (
{
closed = 1;
nodes = (
(966,188,l),
(716,188,l),
(716,182,l),
(966,182,l)
);
},
{
closed = 1;
nodes = (
(1015,65,o),
(879,-29,o),
(723,-97,o),
(559,-134,o),
(479,-134,qs),
(367.255,-134,o),
(179,-65,o),
(41,59.629,o),
(-35,230.492,o),
(-35,331,qs),
(-35,448,o),
(58,646.572,o),
(225,795,o),
(450.262,877,o),
(582,877,qs),
(650,877,o),
(783,853,o),
(897,810.43,o),
(980,754,o),
(999,721,q),
(1004,724,l),
(985,757.269,o),
(900,815,o),
(785,859,o),
(651.317,883,o),
(582,883,qs),
(449.368,883,o),
(222,800,o),
(53,650,o),
(-41,448.764,o),
(-41,331.211,qs),
(-41,228.6,o),
(36,56.255,o),
(176.421,-70.265,o),
(365.533,-140,o),
(479,-140,qs),
(559,-140,o),
(727,-101,o),
(886,-31,o),
(1024,65,o),
(1074,122,qs),
(1081,130,l),
(1073,130,l),
(1066,122,ls)
);
},
{
closed = 1;
nodes = (
(313,-13,o),
(313,6,qs),
(313,20,o),
(346,38,o),
(371.188,38,qs),
(438.692,39,o),
(614,-32,o),
(702,-96,qs),
(787.807,-158,o),
(913.525,-238,o),
(1012.303,-284,o),
(1100.105,-303,o),
(1147,-303,qs),
(1241.078,-303,o),
(1351,-237.089,o),
(1351,-182,qs),
(1351,-154.359,o),
(1330,-121,q),
(1325,-124,l),
(1343,-151,o),
(1343,-176.4,qs),
(1343,-224.152,o),
(1249,-278,o),
(1166,-278,qs),
(1088,-278,o),
(945.959,-231,o),
(815,-158,o),
(689,-76,o),
(565.492,-3,o),
(438,44,o),
(370,44,qs),
(338,44,o),
(307,18,o),
(307,4,qs),
(307,-9,o),
(329,-37,o),
(396,-56,o),
(464,-56,qs),
(543.739,-56,o),
(703.218,12,o),
(770,68,qs),
(836,124,o),
(956,269,o),
(1066,422,o),
(1171,564,o),
(1222,616,qs),
(1274,666,o),
(1343,710,o),
(1363,710,qs),
(1385,710,o),
(1385,682,qs),
(1385,631.713,o),
(1310,507,o),
(1181,377,o),
(1013.056,255.445,o),
(825,158,o),
(636,101,o),
(549.285,101,qs),
(436.355,101,o),
(272,168,o),
(184,290.519,o),
(184,375.881,qs),
(184,442.162,o),
(246,555.643,o),
(358,640,o),
(509,687,o),
(598.275,687,qs),
(719,687,o),
(858,583,o),
(858,494,qs),
(858,434.619,o),
(776,338,o),
(638,280,o),
(552.988,280,qs),
(478.096,280,o),
(386,335.174,o),
(386,380.13,qs),
(386,421,o),
(461,486,o),
(590.237,525,o),
(670,525,qs),
(742,525,o),
(896,494.157,o),
(1041,439.434,o),
(1159,367.798,o),
(1195,328,q),
(1199,332,l),
(1163,372.64,o),
(1043,445,o),
(897,500,o),
(741.503,531,o),
(669.735,531,qs),
(588,531,o),
(456.267,490.628,o),
(380,422.686,o),
(380,380.345,qs),
(380,332.096,o),
(476,274,o),
(553.354,274,qs),
(617,274,o),
(730,308,o),
(815,368,o),
(864,448.398,o),
(864,494.056,qs),
(864,543.684,o),
(811,635,o),
(695,693,o),
(598,693,qs),
(508,693,o),
(355.145,645,o),
(241,559,o),
(178,444,o),
(178,376,qs),
(178,298,o),
(259,171,o),
(423,95,o),
(548.761,95,qs),
(623.619,95,o),
(786.311,138,o),
(950,213,o),
(1103,310,o),
(1235,419.705,o),
(1335,532.402,o),
(1391,638.118,o),
(1391,682,qs),
(1391,716,o),
(1363,716,qs),
(1342,716,o),
(1268,674,o),
(1215,622,qs),
(1174,582,o),
(1080,481,o),
(979,370,o),
(876,259,o),
(776,158,o),
(730,118,qs),
(677,67,o),
(555.618,-1,o),
(441.259,-35,o),
(396.117,-35,qs),
(359,-35,o)
);
}
);
width = 1073;
}
);
note = Lslash;
unicode = 321;
},
{
glyphname = M;
layers = (
{
layerId = m01;
shapes = (
{
closed = 1;
nodes = (
(936,466,o),
(1010,559,o),
(1010,616,qs),
(1010,657,o),
(970,718,o),
(933,734,q),
(927,726,l),
(962,713,o),
(999,654,o),
(999,616,qs),
(999,562,o),
(927,473,o),
(806,420,o),
(732,420,qs),
(643,420,o),
(508,475,o),
(434,573,o),
(434,639,qs),
(434,702,o),
(502,811,o),
(624,893,o),
(787,938,o),
(881,938,qs),
(953,938,o),
(1094,891,o),
(1225,822,o),
(1337,753,o),
(1425,706,o),
(1453,707,q),
(1453,718,l),
(1431,718,o),
(1362,752,o),
(1273,806,o),
(1168,867,o),
(1053,922,o),
(933,957,o),
(872,957,qs),
(764,957,o),
(595,904,o),
(480,815,o),
(420,705,o),
(420,648,qs),
(420,589,o),
(485,480,o),
(622,411,o),
(731,411,qs),
(809,411,o)
);
},
{
closed = 1;
nodes = (
(2181,727,o),
(2225,747,o),
(2225,762,qs),
(2225,773,o),
(2184,785,o),
(2153,785,qs),
(2089,785,o),
(1954,724,o),
(1821,627,o),
(1699,519,o),
(1648,471,qs),
(1616,440,o),
(1528,345,o),
(1435,230,o),
(1355,107,o),
(1305,-14,o),
(1305,-67,qs),
(1305,-128,o),
(1370,-207,o),
(1420,-207,qs),
(1464,-207,o),
(1495,-178,q),
(1492,-171,l),
(1460,-197,o),
(1421,-197,qs),
(1382,-197,o),
(1337,-136,o),
(1337,-84,qs),
(1337,-28,o),
(1385,100,o),
(1466,234,o),
(1569,365,o),
(1623,423,qs),
(1679,480,o),
(1807,602,o),
(1947,709,o),
(2090,775,o),
(2159,775,qs),
(2176,775,o),
(2197,766,o),
(2197,761,qs),
(2197,742,o),
(2090,724,o),
(1977,712,qs),
(1904,706,o),
(1742,640,o),
(1578,537,o),
(1422,411,o),
(1287,278,o),
(1185,153,o),
(1128,52,o),
(1128,22,qs),
(1128,15,o),
(1135,15,qs),
(1142,15,o),
(1167,40,qs),
(1206,81,o),
(1265,200,o),
(1312,337,o),
(1353,475,o),
(1395,599,o),
(1444,690,o),
(1476,711,q),
(1464,714,l),
(1403,661,o),
(1334,540,o),
(1298,413,o),
(1273,287,o),
(1239,168,o),
(1205,116,qs),
(1195,101,o),
(1172,66,o),
(1153,40,o),
(1150,40,qs),
(1149,40,o),
(1149,42,qs),
(1149,69,o),
(1205,163,o),
(1305,282,o),
(1437,410,o),
(1589,532,o),
(1749,632,o),
(1906,696,o),
(1977,702,qs),
(2073,711,o)
);
},
{
closed = 1;
nodes = (
(1164,445,o),
(1053,302,o),
(928,161,o),
(786,45,o),
(623,-25,o),
(530,-25,qs),
(436,-25,o),
(290,26,o),
(206,128,o),
(206,204,qs),
(206,267,o),
(266,374,o),
(376,455,o),
(523,499,o),
(610,499,qs),
(750,499,o),
(953,411,o),
(1064,249,o),
(1064,137,qs),
(1064,52,o),
(985,-89,o),
(842,-192,o),
(645,-249,o),
(528,-249,qs),
(413,-249,o),
(215,-180,o),
(66,-55,o),
(-17,111,o),
(-17,207,qs),
(-17,302,o),
(72,467,o),
(228,592,o),
(436,663,o),
(554,663,qs),
(669,663,o),
(842,596,o),
(939,477,o),
(939,398,qs),
(939,337,o),
(880,231,o),
(776,152,o),
(637,108,o),
(557,108,qs),
(472,108,o),
(373,160,o),
(373,206,qs),
(373,245,o),
(428,304,o),
(525,337,o),
(589,337,qs),
(673,337,o),
(721,298,q),
(728,306,l),
(675,347,o),
(589,347,qs),
(522,347,o),
(420,312,o),
(363,248,o),
(363,206,qs),
(363,156,o),
(466,98,o),
(557,98,qs),
(640,98,o),
(782,144,o),
(889,226,o),
(949,335,o),
(949,398,qs),
(949,480,o),
(849,603,o),
(672,673,o),
(554,673,qs),
(433,673,o),
(223,601,o),
(63,473,o),
(-27,304,o),
(-27,207,qs),
(-27,108,o),
(57,-61,o),
(208,-188,o),
(410,-259,o),
(528,-259,qs),
(648,-259,o),
(847,-201,o),
(994,-95,o),
(1074,50,o),
(1074,137,qs),
(1074,251,o),
(961,418,o),
(753,509,o),
(610,509,qs),
(521,509,o),
(370,463,o),
(258,380,o),
(196,269,o),
(196,204,qs),
(196,110,o),
(291,-15,o),
(451,-76,o),
(548,-76,qs),
(668,-76,o),
(867,-4,o),
(940,67,qs),
(999,125,o),
(1093,264,o),
(1177,409,o),
(1265,546,o),
(1318,602,qs),
(1345,628,o),
(1411,675,o),
(1477,711,o),
(1501,718,q),
(1450,718,l),
(1420,702,o),
(1356,653,o),
(1310,610,qs),
(1264,570,o)
);
}
);
width = 1572;
},
{
layerId = "D8AEADB0-1DB0-4081-A325-B35DA37C7650";
shapes = (
{
closed = 1;
nodes = (
(934,467,o),
(1008,560,o),
(1008,615.925,qs),
(1008,656.151,o),
(969,716,o),
(934,732,q),
(930,727,l),
(964,713,o),
(1001,655,o),
(1001,616.37,qs),
(1001,561.475,o),
(929,471,o),
(806.722,418,o),
(731.94,418,qs),
(642,418,o),
(507,473,o),
(432,573,o),
(432,639.277,qs),
(432,702.542,o),
(500,812,o),
(623,894,o),
(786,940,o),
(881,940,qs),
(956,940,o),
(1098,893,o),
(1227,825,o),
(1336.76,756,o),
(1423,709,o),
(1451,709,q),
(1451,716,l),
(1427,716,o),
(1358,751,o),
(1271,805,o),
(1170,866,o),
(1057,920,o),
(936,955,o),
(872,955,qs),
(764,955,o),
(597,902,o),
(481,814,o),
(422,704.659,o),
(422,648,qs),
(422,589.702,o),
(486,482,o),
(622.577,413,o),
(731.241,413,qs),
(809,413,o)
);
},
{
closed = 1;
nodes = (
(2174,727,o),
(2223,747,o),
(2223,762,qs),
(2223,770,o),
(2185,783,o),
(2153,783,qs),
(2090,783,o),
(1955,722.386,o),
(1822,626,o),
(1700,518,o),
(1649,470,qs),
(1617,439,o),
(1529,344,o),
(1436,229,o),
(1357,106,o),
(1307,-14.485,o),
(1307,-67.26,qs),
(1307,-128,o),
(1371,-205,o),
(1419.8,-205,qs),
(1462.744,-205,o),
(1493,-178,q),
(1491,-174,l),
(1460,-199,o),
(1421,-199,qs),
(1381.071,-199,o),
(1335,-136.92,o),
(1335,-84,qs),
(1335,-28,o),
(1383,100,o),
(1465,235,o),
(1567,366,o),
(1622,424,qs),
(1678.304,481.318,o),
(1807,604,o),
(1946,710,o),
(2089,777,o),
(2159,777,qs),
(2181,777,o),
(2199,766,o),
(2199,760.762,qs),
(2199,740.857,o),
(2090,722,o),
(1977.169,710,qs),
(1904.278,704,o),
(1742.521,638,o),
(1578.766,535,o),
(1423,409,o),
(1289,277,o),
(1187,152.488,o),
(1130,51.883,o),
(1130,22,qs),
(1130,17,o),
(1135,17,qs),
(1144,17,o),
(1166,41,qs),
(1205,83,o),
(1263,201,o),
(1308,335,o),
(1348.012,470.893,o),
(1389,593,o),
(1439,685,o),
(1472,708,q),
(1464,712,l),
(1403,659,o),
(1335,536,o),
(1297,406,o),
(1272,278,o),
(1238,162,o),
(1207,115,qs),
(1201,104,o),
(1177,67,o),
(1155,38,o),
(1150,38,qs),
(1147,38,o),
(1147,42,qs),
(1147,69.223,o),
(1204,164,o),
(1304,283,o),
(1436,411,o),
(1588,533,o),
(1749,634,o),
(1906,698,o),
(1977,704,qs),
(2066,712,o)
);
},
{
closed = 1;
nodes = (
(1165,442,o),
(1054,299.358,o),
(929,158.71,o),
(787,43,o),
(623.534,-27,o),
(530.269,-27,qs),
(436,-27,o),
(288,24,o),
(204,127.146,o),
(204,204,qs),
(204,266,o),
(263,374,o),
(372,455,o),
(521,501,o),
(610,501,qs),
(750.816,501,o),
(955,412,o),
(1066,249.352,o),
(1066,136.904,qs),
(1066,51.564,o),
(987,-90,o),
(843,-194,o),
(646,-251,o),
(528.184,-251,qs),
(412.381,-251,o),
(213,-181,o),
(64,-56,o),
(-19,110,o),
(-19,206.522,qs),
(-19,302.038,o),
(70.259,467.935,o),
(226.714,593.614,o),
(435.321,665,o),
(553.665,665,qs),
(669,665,o),
(843.281,597.589,o),
(941,477.859,o),
(941,398.374,qs),
(941,337,o),
(882,230.427,o),
(778,151,o),
(638,106,o),
(556.545,106,qs),
(470,106,o),
(371,160,o),
(371,206.319,qs),
(371,245.59,o),
(426,305,o),
(524.205,339,o),
(589,339,qs),
(671,339,o),
(721,301,q),
(725,306,l),
(673.144,345,o),
(589,345,qs),
(522.396,345,o),
(421,310,o),
(365,248,o),
(365,206,qs),
(365,156.926,o),
(466.884,100,o),
(556.899,100,qs),
(639,100,o),
(781,146,o),
(887.359,227.141,o),
(947,335,o),
(947,397.765,qs),
(947,479.459,o),
(848,602,o),
(671,671,o),
(553.987,671,qs),
(434,671,o),
(224.457,599.195,o),
(64.804,471.542,o),
(-25,303,o),
(-25,207,qs),
(-25,108.501,o),
(59,-59.643,o),
(210,-186,o),
(410.738,-257,o),
(528,-257,qs),
(647.485,-257,o),
(845.631,-199,o),
(992,-93,o),
(1072,51.04,o),
(1072,137.464,qs),
(1072,250.709,o),
(959.172,416.603,o),
(752.255,507,o),
(610,507,qs),
(520,507,o),
(369,461,o),
(259,378,o),
(198,268.261,o),
(198,204,qs),
(198,110,o),
(293,-13,o),
(451.727,-74,o),
(547.955,-74,qs),
(667,-74,o),
(866,-2.358,o),
(939,68.289,qs),
(998,126,o),
(1091,265,o),
(1175.373,410,o),
(1263.764,547,o),
(1317,603,qs),
(1345,631,o),
(1410,677,o),
(1475,710,o),
(1501,716,q),
(1450.352,716,l),
(1420.559,700,o),
(1357,651,o),
(1311,609,qs),
(1265,568,o)
);
}
);
width = 1536;
}
);
note = M;
unicode = 77;
},
{
glyphname = N;
layers = (
{
anchors = (
{
name = top;
pos = (1677,770);
}
);
layerId = m01;
shapes = (
{
closed = 1;
nodes = (
(979,634,o),
(979,596,qs),
(979,542,o),
(907,453,o),
(786,400,o),
(712,400,qs),
(623,400,o),
(488,455,o),
(414,553,o),
(414,619,qs),
(414,682,o),
(482,791,o),
(604,873,o),
(767,918,o),
(861,918,qs),
(942,918,o),
(1099,871,o),
(1242,802,o),
(1365,733,o),
(1462,686,o),
(1493,687,q),
(1493,698,l),
(1468,698,o),
(1392,732,o),
(1294,786,o),
(1180,847,o),
(1054,902,o),
(920,937,o),
(852,937,qs),
(744,937,o),
(575,884,o),
(460,795,o),
(400,685,o),
(400,628,qs),
(400,569,o),
(465,460,o),
(602,391,o),
(711,391,qs),
(802,391,o),
(926,453,o),
(990,548,o),
(990,596,qs),
(990,637,o),
(950,698,o),
(913,714,q),
(907,706,l),
(942,693,o)
);
},
{
closed = 1;
nodes = (
(933,391,o),
(1044,229,o),
(1044,117,qs),
(1044,32,o),
(965,-109,o),
(822,-212,o),
(625,-269,o),
(508,-269,qs),
(393,-269,o),
(195,-200,o),
(46,-75,o),
(-37,91,o),
(-37,187,qs),
(-37,282,o),
(52,447,o),
(208,572,o),
(416,643,o),
(534,643,qs),
(649,643,o),
(822,576,o),
(919,457,o),
(919,378,qs),
(919,317,o),
(860,211,o),
(756,132,o),
(617,88,o),
(537,88,qs),
(452,88,o),
(353,140,o),
(353,186,qs),
(353,225,o),
(408,284,o),
(505,317,o),
(569,317,qs),
(653,317,o),
(701,278,q),
(708,286,l),
(655,327,o),
(569,327,qs),
(502,327,o),
(400,292,o),
(343,228,o),
(343,186,qs),
(343,136,o),
(446,78,o),
(537,78,qs),
(620,78,o),
(762,124,o),
(869,206,o),
(929,315,o),
(929,378,qs),
(929,460,o),
(829,583,o),
(652,653,o),
(534,653,qs),
(413,653,o),
(203,581,o),
(43,453,o),
(-47,284,o),
(-47,187,qs),
(-47,88,o),
(37,-81,o),
(188,-208,o),
(390,-279,o),
(508,-279,qs),
(628,-279,o),
(827,-221,o),
(974,-115,o),
(1054,30,o),
(1054,117,qs),
(1054,231,o),
(941,398,o),
(733,489,o),
(590,489,qs),
(501,489,o),
(350,443,o),
(238,360,o),
(176,249,o),
(176,184,qs),
(176,113,o),
(235,8,o),
(340,-62,o),
(479,-96,o),
(558,-96,qs),
(677,-96,o),
(884,-12,o),
(965,58,qs),
(1026,112,o),
(1125,248,o),
(1213,392,o),
(1304,528,o),
(1358,582,qs),
(1384,607,o),
(1450,654,o),
(1516,690,o),
(1541,698,q),
(1490,698,l),
(1458,681,o),
(1391,625,o),
(1350,590,qs),
(1301,548,o),
(1195,423,o),
(1076,279,o),
(941,140,o),
(788,24,o),
(611,-45,o),
(510,-45,qs),
(416,-45,o),
(270,6,o),
(186,108,o),
(186,184,qs),
(186,247,o),
(246,354,o),
(356,435,o),
(503,479,o),
(590,479,qs),
(730,479,o)
);
},
{
closed = 1;
nodes = (
(1286,134,o),
(1384,253,o),
(1508,384,o),
(1643,509,o),
(1773,612,o),
(1827,643,qs),
(1879,672,o),
(1992,707,o),
(2035,707,qs),
(2043,707,o),
(2059,706,o),
(2068,705,q),
(2069,715,l),
(2060,716,o),
(2044,717,o),
(2035,717,qs),
(1990,717,o),
(1875,681,o),
(1822,652,qs),
(1775,625,o),
(1663,540,o),
(1545,434,o),
(1431,318,o),
(1330,204,o),
(1252,102,o),
(1208,23,o),
(1208,2,qs),
(1208,-5,o),
(1215,-5,qs),
(1224,-5,o),
(1247,20,qs),
(1286,61,o),
(1338,178,o),
(1375,313,o),
(1405,451,o),
(1437,575,o),
(1481,668,o),
(1513,690,q),
(1493,684,l),
(1441,640,o),
(1385,524,o),
(1356,395,o),
(1337,264,o),
(1311,144,o),
(1285,96,qs),
(1277,80,o),
(1253,45,o),
(1233,20,o),
(1230,20,qs),
(1229,20,o),
(1229,22,qs),
(1229,43,o)
);
}
);
width = 1433;
},
{
layerId = "D8AEADB0-1DB0-4081-A325-B35DA37C7650";
shapes = (
{
closed = 1;
nodes = (
(981,635,o),
(981,596.37,qs),
(981,541.475,o),
(909,451,o),
(786.722,398,o),
(711.94,398,qs),
(622,398,o),
(487,453,o),
(412,553,o),
(412,619.277,qs),
(412,682.542,o),
(480,792,o),
(603,874,o),
(766,920,o),
(861.074,920,qs),
(943,920,o),
(1099,873,o),
(1242,805,o),
(1363.882,736,o),
(1460,689,o),
(1491,689,q),
(1491,696,l),
(1464,696,o),
(1387,731,o),
(1290.849,785,o),
(1179,846,o),
(1055,900,o),
(922,935,o),
(852,935,qs),
(744,935,o),
(577,882,o),
(461,794,o),
(402,684.659,o),
(402,628,qs),
(402,569.702,o),
(466,462,o),
(603,393,o),
(710.91,393,qs),
(801,393,o),
(925,455,o),
(988,548.671,o),
(988,596,qs),
(988,631,o),
(953,695,o),
(914,712,q),
(910,707,l),
(944,693,o)
);
},
{
closed = 1;
nodes = (
(935,392,o),
(1046,229.352,o),
(1046,116.904,qs),
(1046,31.564,o),
(967,-110,o),
(823,-214,o),
(626,-271,o),
(508.184,-271,qs),
(392.381,-271,o),
(193,-201,o),
(44,-76,o),
(-39,90,o),
(-39,186.522,qs),
(-39,282.038,o),
(50.259,447.935,o),
(206.714,573.614,o),
(415.321,645,o),
(533.665,645,qs),
(649,645,o),
(823.281,577.589,o),
(921,457.859,o),
(921,378.374,qs),
(921,317,o),
(862,210.427,o),
(758,131,o),
(618,86,o),
(536.545,86,qs),
(450,86,o),
(351,140,o),
(351,186.319,qs),
(351,225.59,o),
(406,285,o),
(504.205,319,o),
(569,319,qs),
(651,319,o),
(701,281,q),
(705,286,l),
(653.144,325,o),
(569,325,qs),
(502.396,325,o),
(401,290,o),
(345,228,o),
(345,186,qs),
(345,136.926,o),
(446.884,80,o),
(536.899,80,qs),
(619,80,o),
(761,126,o),
(867.359,207.141,o),
(927,315,o),
(927,377.765,qs),
(927,459.459,o),
(828,582,o),
(651,651,o),
(533.987,651,qs),
(414,651,o),
(204.457,579.195,o),
(44.804,451.542,o),
(-45,283,o),
(-45,187,qs),
(-45,88.501,o),
(39,-79.643,o),
(190,-206,o),
(390.738,-277,o),
(508,-277,qs),
(627.485,-277,o),
(825.631,-219,o),
(972,-113,o),
(1052,31.04,o),
(1052,117.464,qs),
(1052,230.709,o),
(939.172,396.603,o),
(732.255,487,o),
(590,487,qs),
(500,487,o),
(349,441,o),
(239,358,o),
(178,248.261,o),
(178,184,qs),
(178,113.507,o),
(236.611,9.257,o),
(340.917,-60.243,o),
(479,-94,o),
(557.837,-94,qs),
(676.593,-94,o),
(883.167,-10,o),
(964,60,qs),
(1025,113,o),
(1123,248,o),
(1210,392,o),
(1302,528,o),
(1357,583,qs),
(1387,613,o),
(1454,659,o),
(1517,691,o),
(1541,696,q),
(1490,696,l),
(1459,679,o),
(1390,627,o),
(1351,589,qs),
(1287,528,o),
(1166,387,o),
(1044,244,o),
(914,114,o),
(771,12,o),
(606,-47,o),
(510,-47,qs),
(416,-47,o),
(268,4,o),
(184,107.146,o),
(184,184,qs),
(184,246,o),
(243,354,o),
(352,435,o),
(501,481,o),
(590,481,qs),
(730.816,481,o)
);
},
{
closed = 1;
nodes = (
(1284,134,o),
(1383,254,o),
(1507,385,o),
(1641,511,o),
(1771.663,614,o),
(1825.939,645,qs),
(1878.204,674,o),
(1991.781,709,o),
(2035,709,qs),
(2042.515,709,o),
(2057.545,708,o),
(2066,707,q),
(2067,713.364,l),
(2059,714,o),
(2043.457,715,o),
(2034.714,715,qs),
(1991,715,o),
(1876,680,o),
(1823,650.482,qs),
(1776,623,o),
(1664.487,538,o),
(1547,432,o),
(1432,316,o),
(1332,203,o),
(1254,101,o),
(1210,22.79,o),
(1210,2,qs),
(1210,-3,o),
(1215,-3,qs),
(1223.719,-3,o),
(1246,21,qs),
(1285,62.519,o),
(1337,181,o),
(1373,315,o),
(1403,451.056,o),
(1435,573.31,o),
(1479,665,o),
(1512,688,q),
(1494,682,l),
(1443,639,o),
(1387,523,o),
(1358,392,o),
(1338,261,o),
(1313,141,o),
(1287,95,qs),
(1281,84,o),
(1257,47,o),
(1235,18,o),
(1230,18,qs),
(1227,18,o),
(1227,22,qs),
(1227,44,o)
);
}
);
width = 1397;
}
);
note = N;
unicode = 78;
},
{
glyphname = uni01CA;
layers = (
{
layerId = m01;
shapes = (
{
closed = 1;
nodes = (
(2114,-287,o),
(2233,-181,o),
(2291,-60,o),
(2292,-5,qs),
(2293,54,o),
(2236,152,o),
(2133,225,o),
(1991,265,o),
(1907,265,qs),
(1809,265,o),
(1679,216,o),
(1614,145,o),
(1613,112,qs),
(1613,86,o),
(1646,36,o),
(1723,4,o),
(1787,4,qs),
(1860,4,o),
(1975,43,o),
(2056,109,o),
(2101,187,o),
(2103,226,qs),
(2106,273,o),
(2052,355,o),
(1933,407,o),
(1838,407,qs),
(1742,407,o),
(1586,348,o),
(1473,250,o),
(1411,130,o),
(1410,68,qs),
(1409,-10,o),
(1489,-136,o),
(1652,-209,o),
(1774,-209,qs),
(1890,-209,o),
(2107,-127,o),
(2192,-51,qs),
(2254,5,o),
(2360,152,o),
(2457,317,o),
(2551,483,o),
(2651,632,o),
(2707,688,qs),
(2733,714,o),
(2796,761,o),
(2860,796,o),
(2885,804,q),
(2833,804,l),
(2766,767,o),
(2673,673,o),
(2623,605,qs),
(2538,487,o),
(2387,282,o),
(2247,112,o),
(2112,-21,o),
(1972,-112,o),
(1820,-160,o),
(1733,-160,qs),
(1644,-160,o),
(1502,-109,o),
(1419,-8,o),
(1420,68,qs),
(1421,126,o),
(1481,242,o),
(1591,339,o),
(1744,397,o),
(1838,397,qs),
(1929,397,o),
(2043,348,o),
(2095,270,o),
(2093,226,qs),
(2092,189,o),
(2048,115,o),
(1969,53,o),
(1857,15,o),
(1786,14,qs),
(1726,14,o),
(1654,43,o),
(1623,89,o),
(1623,113,qs),
(1624,143,o),
(1686,208,o),
(1811,254,o),
(1906,254,qs),
(1989,254,o),
(2127,216,o),
(2228,146,o),
(2283,51,o),
(2282,-5,qs),
(2281,-58,o),
(2224,-175,o),
(2107,-278,o),
(1924,-343,o),
(1796,-343,qs),
(1686,-343,o),
(1492,-281,o),
(1340,-170,o),
(1294,-97,q),
(1286,-102,l),
(1333,-176,o),
(1487,-290,o),
(1685,-353,o),
(1797,-353,qs),
(1927,-353,o)
);
},
{
closed = 1;
nodes = (
(827,-221,o),
(974,-115,o),
(1054,30,o),
(1054,117,qs),
(1054,231,o),
(941,398,o),
(733,489,o),
(590,489,qs),
(501,489,o),
(350,443,o),
(238,360,o),
(176,249,o),
(176,184,qs),
(176,113,o),
(235,8,o),
(340,-62,o),
(479,-96,o),
(558,-96,qs),
(677,-96,o),
(884,-12,o),
(965,58,qs),
(1026,112,o),
(1125,248,o),
(1213,392,o),
(1304,528,o),
(1358,582,qs),
(1384,607,o),
(1450,654,o),
(1516,690,o),
(1541,698,q),
(1490,698,l),
(1458,681,o),
(1391,625,o),
(1350,590,qs),
(1301,548,o),
(1195,423,o),
(1076,279,o),
(941,140,o),
(788,24,o),
(611,-45,o),
(510,-45,qs),
(416,-45,o),
(270,6,o),
(186,108,o),
(186,184,qs),
(186,247,o),
(246,354,o),
(356,435,o),
(503,479,o),
(590,479,qs),
(730,479,o),
(933,391,o),
(1044,229,o),
(1044,117,qs),
(1044,32,o),
(965,-109,o),
(822,-212,o),
(625,-269,o),
(508,-269,qs),
(393,-269,o),
(195,-200,o),
(46,-75,o),
(-37,91,o),
(-37,187,qs),
(-37,282,o),
(52,447,o),
(208,572,o),
(416,643,o),
(534,643,qs),
(649,643,o),
(822,576,o),
(919,457,o),
(919,378,qs),
(919,317,o),
(860,211,o),
(756,132,o),
(617,88,o),
(537,88,qs),
(452,88,o),
(353,140,o),
(353,186,qs),
(353,225,o),
(408,284,o),
(505,317,o),
(569,317,qs),
(653,317,o),
(701,278,q),
(708,286,l),
(655,327,o),
(569,327,qs),
(502,327,o),
(400,292,o),
(343,228,o),
(343,186,qs),
(343,136,o),
(446,78,o),
(537,78,qs),
(620,78,o),
(762,124,o),
(869,206,o),
(929,315,o),
(929,378,qs),
(929,460,o),
(829,583,o),
(652,653,o),
(534,653,qs),
(413,653,o),
(203,581,o),
(43,453,o),
(-47,284,o),
(-47,187,qs),
(-47,88,o),
(37,-81,o),
(188,-208,o),
(390,-279,o),
(508,-279,qs),
(628,-279,o)
);
},
{
closed = 1;
nodes = (
(926,453,o),
(990,548,o),
(990,596,qs),
(990,637,o),
(950,698,o),
(913,714,q),
(907,706,l),
(942,693,o),
(979,634,o),
(979,596,qs),
(979,542,o),
(907,453,o),
(786,400,o),
(712,400,qs),
(623,400,o),
(488,455,o),
(414,553,o),
(414,619,qs),
(414,682,o),
(482,791,o),
(604,873,o),
(767,918,o),
(861,918,qs),
(942,918,o),
(1099,871,o),
(1242,802,o),
(1365,733,o),
(1462,686,o),
(1493,687,q),
(1493,698,l),
(1468,698,o),
(1392,732,o),
(1294,786,o),
(1180,847,o),
(1054,902,o),
(920,937,o),
(852,937,qs),
(744,937,o),
(575,884,o),
(460,795,o),
(400,685,o),
(400,628,qs),
(400,569,o),
(465,460,o),
(602,391,o),
(711,391,qs),
(802,391,o)
);
},
{
closed = 1;
nodes = (
(1247,20,qs),
(1285,61,o),
(1338,178,o),
(1376,314,o),
(1406,452,o),
(1439,575,o),
(1481,668,o),
(1511,690,q),
(1493,684,l),
(1441,640,o),
(1385,524,o),
(1356,395,o),
(1337,264,o),
(1311,144,o),
(1285,96,qs),
(1277,80,o),
(1253,45,o),
(1233,20,o),
(1230,20,qs),
(1229,20,o),
(1229,22,qs),
(1229,49,o),
(1284,151,o),
(1383,282,o),
(1518,423,o),
(1680,557,o),
(1859,664,o),
(2048,727,o),
(2141,727,q),
(2137,737,l),
(2041,737,o),
(1849,672,o),
(1667,560,o),
(1502,422,o),
(1364,276,o),
(1263,139,o),
(1208,31,o),
(1208,2,qs),
(1208,-5,o),
(1215,-5,qs),
(1224,-5,o)
);
},
{
closed = 1;
nodes = (
(2483,293,o),
(2530,361,o),
(2557,439,o),
(2557,475,qs),
(2557,520,o),
(2513,613,o),
(2414,690,o),
(2253,737,o),
(2137,737,q),
(2141,727,l),
(2253,727,o),
(2409,682,o),
(2504,609,o),
(2548,522,o),
(2548,480,qs),
(2548,446,o),
(2523,370,o),
(2478,303,o),
(2414,260,o),
(2375,260,qs),
(2347,260,o),
(2321,302,o),
(2321,329,qs),
(2321,385,o),
(2372,496,o),
(2460,601,o),
(2569,690,o),
(2686,757,o),
(2797,795,o),
(2841,794,q),
(2841,804,l),
(2795,805,o),
(2682,769,o),
(2562,705,o),
(2450,618,o),
(2361,517,o),
(2307,409,o),
(2306,354,qs),
(2305,308,o),
(2344,250,o),
(2375,250,qs),
(2416,250,o)
);
}
);
width = 2466;
},
{
layerId = "D8AEADB0-1DB0-4081-A325-B35DA37C7650";
shapes = (
{
closed = 1;
nodes = (
(2113,-285.384,o),
(2232,-180,o),
(2289.033,-59.363,o),
(2290.017,-4.529,qs),
(2291,54.294,o),
(2234,152,o),
(2130,224,o),
(1989.753,263,o),
(1906.79,263,qs),
(1810,263,o),
(1680,214,o),
(1615.985,144.092,o),
(1615,111.6,qs),
(1615,86,o),
(1647.4,37.22,o),
(1723,6,o),
(1786.808,6,qs),
(1859.589,6,o),
(1974.243,44.629,o),
(2055,110,o),
(2099,187,o),
(2101,225.768,qs),
(2104,272.488,o),
(2050,354,o),
(1933,405,o),
(1838.207,405,qs),
(1742.415,405,o),
(1586.754,346.376,o),
(1474,249,o),
(1412.969,129.462,o),
(1411.984,67.7,qs),
(1411,-10,o),
(1490,-134,o),
(1652.428,-207,o),
(1774,-207,qs),
(1891,-207,o),
(2106,-126,o),
(2191.336,-50,qs),
(2253.581,6,o),
(2360,153,o),
(2455.984,317.502,o),
(2549,483,o),
(2649,632,o),
(2706,689,qs),
(2735,718,o),
(2799,765,o),
(2860,796,o),
(2885,802,q),
(2834,802,l),
(2803,785,o),
(2735,734,o),
(2700,695,qs),
(2630,618,o),
(2493,432,o),
(2352,240,o),
(2200,62,o),
(2032,-79,o),
(1841.841,-162,o),
(1733,-162,qs),
(1644,-162,o),
(1500,-111,o),
(1417,-8,o),
(1418,68,qs),
(1419,126.667,o),
(1479,244,o),
(1590,340,o),
(1743.677,399,o),
(1838.093,399,qs),
(1929.496,399,o),
(2044,350,o),
(2097,271,o),
(2094.987,226.484,qs),
(2093.981,189.051,o),
(2049.696,114.184,o),
(1970.184,51.457,o),
(1857.46,13.012,o),
(1786,12,qs),
(1725.091,12,o),
(1652,41,o),
(1621,88.115,o),
(1621,112.697,qs),
(1622,143.424,o),
(1684,210,o),
(1811,256,o),
(1906,256,qs),
(1987,256,o),
(2126,218,o),
(2228.942,148,o),
(2285,53,o),
(2284,-5,qs),
(2282.994,-58.314,o),
(2225.676,-176.006,o),
(2108.022,-279.615,o),
(1924,-345,o),
(1795.781,-345,qs),
(1685.592,-345,o),
(1491.26,-282.642,o),
(1339,-171,o),
(1292,-98,q),
(1288,-101,l),
(1334.78,-174.705,o),
(1488.059,-288.251,o),
(1685.133,-351,o),
(1796.608,-351,qs),
(1926,-351,o)
);
},
{
closed = 1;
nodes = (
(825.631,-219,o),
(972,-113,o),
(1052,31.04,o),
(1052,117.464,qs),
(1052,230.709,o),
(939.172,396.603,o),
(732.255,487,o),
(590,487,qs),
(500,487,o),
(349,441,o),
(239,358,o),
(178,248.261,o),
(178,184,qs),
(178,113.507,o),
(236.611,9.257,o),
(340.917,-60.243,o),
(479,-94,o),
(557.837,-94,qs),
(676.593,-94,o),
(883.167,-10,o),
(964,60,qs),
(1025,113,o),
(1123,248,o),
(1210,392,o),
(1302,528,o),
(1357,583,qs),
(1387,613,o),
(1454,659,o),
(1517,691,o),
(1541,696,q),
(1490,696,l),
(1459,679,o),
(1390,627,o),
(1351,589,qs),
(1287,528,o),
(1166,387,o),
(1044,244,o),
(914,114,o),
(771,12,o),
(606,-47,o),
(510,-47,qs),
(416,-47,o),
(268,4,o),
(184,107.146,o),
(184,184,qs),
(184,246,o),
(243,354,o),
(352,435,o),
(501,481,o),
(590,481,qs),
(730.816,481,o),
(935,392,o),
(1046,229.352,o),
(1046,116.904,qs),
(1046,31.564,o),
(967,-110,o),
(823,-214,o),
(626,-271,o),
(508.184,-271,qs),
(392.381,-271,o),
(193,-201,o),
(44,-76,o),
(-39,90,o),
(-39,186.522,qs),
(-39,282.038,o),
(50.259,447.935,o),
(206.714,573.614,o),
(415.321,645,o),
(533.665,645,qs),
(649,645,o),
(823.281,577.589,o),
(921,457.859,o),
(921,378.374,qs),
(921,317,o),
(862,210.427,o),
(758,131,o),
(618,86,o),
(536.545,86,qs),
(450,86,o),
(351,140,o),
(351,186.319,qs),
(351,225.59,o),
(406,285,o),
(504.205,319,o),
(569,319,qs),
(651,319,o),
(701,281,q),
(705,286,l),
(653.144,325,o),
(569,325,qs),
(502.396,325,o),
(401,290,o),
(345,228,o),
(345,186,qs),
(345,136.926,o),
(446.884,80,o),
(536.899,80,qs),
(619,80,o),
(761,126,o),
(867.359,207.141,o),
(927,315,o),
(927,377.765,qs),
(927,459.459,o),
(828,582,o),
(651,651,o),
(533.987,651,qs),
(414,651,o),
(204.457,579.195,o),
(44.804,451.542,o),
(-45,283,o),
(-45,187,qs),
(-45,88.501,o),
(39,-79.643,o),
(190,-206,o),
(390.738,-277,o),
(508,-277,qs),
(627.485,-277,o)
);
},
{
closed = 1;
nodes = (
(925,455,o),
(988,548.671,o),
(988,596,qs),
(988,631,o),
(953,695,o),
(914,712,q),
(910,707,l),
(944,693,o),
(981,635,o),
(981,596.37,qs),
(981,541.475,o),
(909,451,o),
(786.722,398,o),
(711.94,398,qs),
(622,398,o),
(487,453,o),
(412,553,o),
(412,619.277,qs),
(412,682.542,o),
(480,792,o),
(603,874,o),
(766,920,o),
(861.074,920,qs),
(943,920,o),
(1099,873,o),
(1242,805,o),
(1363.882,736,o),
(1460,689,o),
(1491,689,q),
(1491,696,l),
(1464,696,o),
(1387,731,o),
(1290.849,785,o),
(1179,846,o),
(1055,900,o),
(922,935,o),
(852,935,qs),
(744,935,o),
(577,882,o),
(461,794,o),
(402,684.659,o),
(402,628,qs),
(402,569.702,o),
(466,462,o),
(603,393,o),
(710.91,393,qs),
(801,393,o)
);
},
{
closed = 1;
nodes = (
(1246,21,qs),
(1285,63,o),
(1337,181,o),
(1373,315,o),
(1403,451,o),
(1435,573,o),
(1479,665,o),
(1512,688,q),
(1494.257,682.12,l),
(1443,639,o),
(1387,523,o),
(1358,392,o),
(1338,261,o),
(1313,141,o),
(1287,95,qs),
(1281,84,o),
(1257,47,o),
(1235,18,o),
(1230,18,qs),
(1227,18,o),
(1227,22,qs),
(1227,49,o),
(1282,151,o),
(1381,282.482,o),
(1516,424,o),
(1677,557,o),
(1857,665,o),
(2045.33,729,o),
(2138,729,q),
(2136,735,l),
(2041,735,o),
(1849,669,o),
(1667,558,o),
(1503,421,o),
(1366,274,o),
(1265,138,o),
(1210,30.788,o),
(1210,2,qs),
(1210,-3,o),
(1215,-3,qs),
(1223.719,-3,o)
);
},
{
closed = 1;
nodes = (
(2481,294,o),
(2529,362,o),
(2555,440,o),
(2555,475,qs),
(2555,523,o),
(2510,616,o),
(2410,691,o),
(2250,735,o),
(2136,735,q),
(2138,729,l),
(2248,729,o),
(2404,686,o),
(2503,613,o),
(2550,525,o),
(2550,480,qs),
(2550,445.691,o),
(2524.627,369,o),
(2478.955,301.391,o),
(2414,258,o),
(2375,258,qs),
(2347,258,o),
(2319,302,o),
(2319,329,qs),
(2319,385,o),
(2369.633,496,o),
(2457,601,o),
(2566,691,o),
(2683,758,o),
(2794,796,o),
(2839,796,q),
(2839,802,l),
(2793,802,o),
(2680,766,o),
(2562,702,o),
(2450.557,615.926,o),
(2362,516,o),
(2309,408,o),
(2308,354,qs),
(2307,314,o),
(2341,252,o),
(2375,252,qs),
(2416,252,o)
);
}
);
width = 2430;
}
);
note = uni01CA;
unicode = 458;
},
{
glyphname = Eng;
layers = (
{
layerId = m01;
shapes = (
{
closed = 1;
nodes = (
(827,-221,o),
(974,-115,o),
(1054,30,o),
(1054,117,qs),
(1054,231,o),
(941,398,o),
(733,489,o),
(590,489,qs),
(501,489,o),
(350,443,o),
(238,360,o),
(176,249,o),
(176,184,qs),
(176,113,o),
(235,8,o),
(340,-62,o),
(479,-96,o),
(558,-96,qs),
(677,-96,o),
(884,-12,o),
(965,58,qs),
(1026,112,o),
(1124,248,o),
(1213,393,o),
(1304,529,o),
(1358,582,qs),
(1384,608,o),
(1450,655,o),
(1516,690,o),
(1541,698,q),
(1493,698,l),
(1460,683,o),
(1392,633,o),
(1345,592,qs),
(1298,550,o),
(1193,424,o),
(1076,280,o),
(943,140,o),
(789,24,o),
(612,-45,o),
(510,-45,qs),
(416,-45,o),
(270,6,o),
(186,108,o),
(186,184,qs),
(186,247,o),
(246,354,o),
(356,435,o),
(503,479,o),
(590,479,qs),
(730,479,o),
(933,391,o),
(1044,229,o),
(1044,117,qs),
(1044,32,o),
(965,-109,o),
(822,-212,o),
(625,-269,o),
(508,-269,qs),
(393,-269,o),
(195,-200,o),
(46,-75,o),
(-37,91,o),
(-37,187,qs),
(-37,282,o),
(52,447,o),
(208,572,o),
(416,643,o),
(534,643,qs),
(649,643,o),
(822,576,o),
(919,457,o),
(919,378,qs),
(919,317,o),
(860,211,o),
(756,132,o),
(617,88,o),
(537,88,qs),
(452,88,o),
(353,140,o),
(353,186,qs),
(353,225,o),
(408,284,o),
(505,317,o),
(569,317,qs),
(653,317,o),
(701,278,q),
(708,286,l),
(655,327,o),
(569,327,qs),
(502,327,o),
(400,292,o),
(343,228,o),
(343,186,qs),
(343,136,o),
(446,78,o),
(537,78,qs),
(620,78,o),
(762,124,o),
(869,206,o),
(929,315,o),
(929,378,qs),
(929,460,o),
(829,583,o),
(652,653,o),
(534,653,qs),
(413,653,o),
(203,581,o),
(43,453,o),
(-47,284,o),
(-47,187,qs),
(-47,88,o),
(37,-81,o),
(188,-208,o),
(390,-279,o),
(508,-279,qs),
(628,-279,o)
);
},
{
closed = 1;
nodes = (
(874,-408,o),
(968,-330,o),
(1016,-284,qs),
(1120,-185,o),
(1255,12,o),
(1339,198,o),
(1388,367,o),
(1406,439,qs),
(1427,526,o),
(1470,657,o),
(1513,689,q),
(1493,684,l),
(1439,634,o),
(1385,539,o),
(1361,443,o),
(1352,389,qs),
(1343,337,o),
(1316,218,o),
(1257,78,o),
(1148,-90,o),
(1058,-192,qs),
(1044,-207,o),
(990,-268,o),
(921,-339,o),
(845,-404,o),
(772,-446,o),
(742,-446,qs),
(735,-446,o),
(735,-441,qs),
(735,-430,o),
(789,-364,o),
(880,-271,o),
(990,-162,o),
(1104,-51,o),
(1206,47,o),
(1279,120,o),
(1292,136,q),
(1292,153,l),
(1277,134,o),
(1202,58,o),
(1097,-43,o),
(981,-156,o),
(869,-266,o),
(777,-361,o),
(722,-427,o),
(722,-439,qs),
(722,-456,o),
(745,-456,qs),
(786,-456,o)
);
},
{
closed = 1;
nodes = (
(926,453,o),
(990,548,o),
(990,596,qs),
(990,637,o),
(950,698,o),
(913,714,q),
(907,706,l),
(942,693,o),
(979,634,o),
(979,596,qs),
(979,542,o),
(907,453,o),
(786,400,o),
(712,400,qs),
(623,400,o),
(488,455,o),
(414,553,o),
(414,619,qs),
(414,682,o),
(482,791,o),
(604,873,o),
(767,918,o),
(861,918,qs),
(941,918,o),
(1097,871,o),
(1240,802,o),
(1364,733,o),
(1462,686,o),
(1493,687,q),
(1493,698,l),
(1468,698,o),
(1392,732,o),
(1294,786,o),
(1179,847,o),
(1052,902,o),
(919,937,o),
(852,937,qs),
(744,937,o),
(575,884,o),
(460,795,o),
(400,685,o),
(400,628,qs),
(400,569,o),
(465,460,o),
(602,391,o),
(711,391,qs),
(802,391,o)
);
},
{
closed = 1;
nodes = (
(1487,376,o),
(1617,523,o),
(1760,640,o),
(1921,707,o),
(2015,707,qs),
(2026,707,o),
(2055,706,o),
(2068,705,q),
(2069,715,l),
(2056,716,o),
(2029,717,o),
(2015,717,qs),
(1921,717,o),
(1759,651,o),
(1616,537,o),
(1485,392,o),
(1361,232,o),
(1299,155,q),
(1296,134,l),
(1361,213,o)
);
}
);
width = 1433;
},
{
layerId = "D8AEADB0-1DB0-4081-A325-B35DA37C7650";
shapes = (
{
closed = 1;
nodes = (
(825.631,-219,o),
(972,-113,o),
(1052,31.04,o),
(1052,117.464,qs),
(1052,230.709,o),
(939.172,396.603,o),
(732.255,487,o),
(590,487,qs),
(500,487,o),
(349,441,o),
(239,358,o),
(178,248.261,o),
(178,184,qs),
(178,113.507,o),
(236.611,9.257,o),
(340.917,-60.243,o),
(479,-94,o),
(557.837,-94,qs),
(676.593,-94,o),
(883.167,-10,o),
(964,60,qs),
(1025,113.432,o),
(1123,248,o),
(1210,392,o),
(1302,528,o),
(1357,583,qs),
(1387,613,o),
(1454,659,o),
(1517,691,o),
(1541,696,q),
(1491,696,l),
(1460,679,o),
(1390,627,o),
(1351,589,qs),
(1287,528,o),
(1166,387,o),
(1044,244,o),
(914,114,o),
(771,12,o),
(606,-47,o),
(510,-47,qs),
(416,-47,o),
(268,4,o),
(184,107.146,o),
(184,184,qs),
(184,246,o),
(243,354,o),
(352,435,o),
(501,481,o),
(590,481,qs),
(730.816,481,o),
(935,392,o),
(1046,229.352,o),
(1046,116.904,qs),
(1046,31.564,o),
(967,-110,o),
(823,-214,o),
(626,-271,o),
(508.184,-271,qs),
(392.381,-271,o),
(193,-201,o),
(44,-76,o),
(-39,90,o),
(-39,186.522,qs),
(-39,282.038,o),
(50.259,447.935,o),
(206.714,573.614,o),
(415.321,645,o),
(533.665,645,qs),
(649,645,o),
(823.281,577.589,o),
(921,457.859,o),
(921,378.374,qs),
(921,317,o),
(862,210.427,o),
(758,131,o),
(618,86,o),
(536.545,86,qs),
(450,86,o),
(351,140,o),
(351,186.319,qs),
(351,225.59,o),
(406,285,o),
(504.205,319,o),
(569,319,qs),
(651,319,o),
(701,281,q),
(705,286,l),
(653.144,325,o),
(569,325,qs),
(502.396,325,o),
(401,290,o),
(345,228,o),
(345,186,qs),
(345,136.926,o),
(446.884,80,o),
(536.899,80,qs),
(619,80,o),
(761,126,o),
(867.359,207.141,o),
(927,315,o),
(927,377.765,qs),
(927,459.459,o),
(828,582,o),
(651,651,o),
(533.987,651,qs),
(414,651,o),
(204.457,579.195,o),
(44.804,451.542,o),
(-45,283,o),
(-45,187,qs),
(-45,88.501,o),
(39,-79.643,o),
(190,-206,o),
(390.738,-277,o),
(508,-277,qs),
(627.485,-277,o)
);
},
{
closed = 1;
nodes = (
(873,-407,o),
(967,-329,o),
(1015,-283,qs),
(1117,-184,o),
(1252,11,o),
(1335,195,o),
(1384,363.299,o),
(1402,435,qs),
(1425,524,o),
(1468,655,o),
(1512,688,q),
(1494,682,l),
(1441,633.034,o),
(1388,540,o),
(1364,445,o),
(1354,392,qs),
(1345.095,339.666,o),
(1318.379,219.9,o),
(1260,79,o),
(1151,-91,o),
(1059,-193,qs),
(1045.206,-208,o),
(992,-269,o),
(922,-340,o),
(846,-406,o),
(772.291,-448,o),
(742,-448,qs),
(733,-448,o),
(733,-441.438,qs),
(733,-427,o),
(782.159,-365.981,o),
(865,-280,o),
(969,-181,o),
(1080,-77,o),
(1183,23,o),
(1266,107,o),
(1290,137,q),
(1290,147,l),
(1262,111,o),
(1173,21,o),
(1067,-81,o),
(956,-184,o),
(853,-282,o),
(772,-365,o),
(724,-425,o),
(724,-439,qs),
(724,-454,o),
(745,-454,qs),
(785.682,-454,o)
);
},
{
closed = 1;
nodes = (
(925,455,o),
(988,548.671,o),
(988,596,qs),
(988,631,o),
(953,695,o),
(914,712,q),
(910,707,l),
(944,693,o),
(981,635,o),
(981,596.37,qs),
(981,541.475,o),
(909,451,o),
(786.722,398,o),
(711.94,398,qs),
(622,398,o),
(487,453,o),
(412,553,o),
(412,619.277,qs),
(412,682.542,o),
(480,792,o),
(603,874,o),
(766,920,o),
(861,920,qs),
(943,920,o),
(1099,873.405,o),
(1242,805,o),
(1363.766,736,o),
(1460,689,o),
(1491,689,q),
(1491,696,l),
(1464,696,o),
(1387,731,o),
(1291.3,785,o),
(1179,846,o),
(1055,900,o),
(922,935,o),
(852,935,qs),
(744,935,o),
(577,882,o),
(461,794,o),
(402,684.659,o),
(402,628,qs),
(402,569.702,o),
(466,462,o),
(603,393,o),
(710.91,393,qs),
(801,393,o)
);
},
{
closed = 1;
nodes = (
(1485,377,o),
(1616,525,o),
(1759,641,o),
(1920.631,709,o),
(2015,709,qs),
(2029,709,o),
(2052,708,o),
(2065.929,707,q),
(2067,713,l),
(2054.481,714,o),
(2028.481,715,o),
(2015,715,qs),
(1922,715,o),
(1760,649,o),
(1617,535,o),
(1487,390,o),
(1363,230.675,o),
(1301,154,q),
(1294,135,l),
(1359,214,o)
);
}
);
width = 1397;
}
);
note = Eng;
unicode = 330;
},
{
glyphname = O;
layers = (
{
anchors = (
{
name = bottom;
pos = (437,-134);
},
{
name = center;
pos = (675,391);
},
{
name = ogonek;
pos = (437,-134);
},
{
name = top;
pos = (883,770);
}
);
layerId = m01;
shapes = (
{
closed = 1;
nodes = (
(448,829,o),
(285,717,o),
(145,568,o),
(39,395,o),
(-20,209,o),
(-20,117,qs),
(-20,3,o),
(65,-181,o),
(225,-314,o),
(447,-385,o),
(583,-385,qs),
(667,-385,o),
(828,-354,o),
(969,-295,o),
(1022,-255,q),
(1011,-249,l),
(929,-309,o),
(704,-375,o),
(583,-375,qs),
(450,-375,o),
(232,-305,o),
(75,-175,o),
(-9,6,o),
(-9,117,qs),
(-9,207,o),
(50,389,o),
(155,560,o),
(293,708,o),
(454,819,o),
(625,882,o),
(709,882,qs),
(813,882,o),
(927,772,o),
(927,671,qs),
(927,616,o),
(890,493,o),
(827,370,o),
(745,261,o),
(653,176,o),
(562,127,o),
(520,127,qs),
(456,127,o),
(456,195,qs),
(456,243,o),
(505,354,o),
(588,468,o),
(694,571,o),
(811,653,o),
(925,700,o),
(974,700,qs),
(1029,700,o),
(1086,637,o),
(1086,578,qs),
(1086,506,o),
(1028,346,o),
(926,188,o),
(796,47,o),
(650,-63,o),
(504,-126,o),
(437,-126,qs),
(347,-126,o),
(245,-21,o),
(245,70,qs),
(245,148,o),
(308,318,o),
(418,486,o),
(560,636,o),
(719,752,o),
(880,819,o),
(954,819,qs),
(1014,819,o),
(1114,779,o),
(1137,744,q),
(1145,751,l),
(1120,789,o),
(1018,831,o),
(948,831,qs),
(862,831,o),
(685,771,o),
(516,665,o),
(369,526,o),
(257,366,o),
(194,198,o),
(194,116,qs),
(194,42,o),
(256,-72,o),
(366,-136,o),
(437,-136,qs),
(505,-136,o),
(655,-72,o),
(802,39,o),
(935,182,o),
(1037,343,o),
(1096,505,o),
(1096,578,qs),
(1096,710,o),
(974,710,qs),
(923,710,o),
(806,662,o),
(688,579,o),
(580,474,o),
(495,358,o),
(446,245,o),
(446,195,qs),
(446,117,o),
(520,117,qs),
(577,117,o),
(695,182,o),
(805,294,o),
(891,435,o),
(942,589,o),
(942,662,qs),
(942,772,o),
(820,892,o),
(709,892,qs),
(623,892,o)
);
}
);
width = 1006;
},
{
layerId = "D8AEADB0-1DB0-4081-A325-B35DA37C7650";
shapes = (
{
closed = 1;
nodes = (
(449,827,o),
(286,715.429,o),
(146,567,o),
(41,394,o),
(-18,208.715,o),
(-18,117.069,qs),
(-18,3.508,o),
(66.904,-179.785,o),
(226.316,-312.273,o),
(447.5,-383,o),
(583,-383,qs),
(665.971,-383,o),
(825,-352,o),
(965,-295,o),
(1018,-255,q),
(1011,-251,l),
(928.912,-311,o),
(703.672,-377,o),
(582.543,-377,qs),
(449.401,-377,o),
(231.168,-307,o),
(74,-176,o),
(-11,6,o),
(-11,117,qs),
(-11,207,o),
(48,389,o),
(153.319,560.694,o),
(291.737,709.294,o),
(453.226,820.744,o),
(624.745,884,o),
(709,884,qs),
(815,884,o),
(929,772.869,o),
(929,670.83,qs),
(929,615.265,o),
(892,491,o),
(829,369,o),
(746,259,o),
(655,174,o),
(562,125,o),
(520,125,qs),
(454,125,o),
(454,195,qs),
(454,243.302,o),
(503,355,o),
(587,469,o),
(693,573,o),
(810.418,655,o),
(924.825,702,o),
(974,702,qs),
(1029.982,702,o),
(1088,639,o),
(1088,578,qs),
(1088,505,o),
(1030,346,o),
(927.56,186.943,o),
(797,45,o),
(650.593,-65,o),
(504.187,-128,o),
(437,-128,qs),
(346.062,-128,o),
(243,-22,o),
(243,69.537,qs),
(243,147.997,o),
(306,319,o),
(416.341,487.335,o),
(558.78,637.635,o),
(718.272,753.866,o),
(879.771,821,o),
(954,821,qs),
(1013.625,821,o),
(1113,781,o),
(1137,747,q),
(1142,751,l),
(1117,789,o),
(1016.581,829,o),
(947.667,829,qs),
(863,829,o),
(685,769,o),
(517,664,o),
(370.457,525,o),
(258.804,365,o),
(196,197,o),
(196,115.911,qs),
(196,42.733,o),
(257,-70,o),
(366.392,-134,o),
(437,-134,qs),
(504.727,-134,o),
(654.124,-70,o),
(800.534,41,o),
(933,184,o),
(1035,343,o),
(1094,505,o),
(1094,578,qs),
(1094,708,o),
(974.116,708,qs),
(924,708,o),
(807,660.366,o),
(689,578,o),
(582,473,o),
(497,358,o),
(448,244,o),
(448,195.172,qs),
(448,119,o),
(520.305,119,qs),
(576,119,o),
(695,184,o),
(803,296,o),
(890,436,o),
(940,589,o),
(940,662,qs),
(940,772,o),
(819,890,o),
(708.597,890,qs),
(623.059,890,o)
);
}
);
width = 970;
}
);
note = O;
unicode = 79;
},
{
glyphname = P;
layers = (
{
layerId = m01;
shapes = (
{
closed = 1;
nodes = (
(910,739,qs),
(960,739,o),
(1038,702,o),
(1083,637,o),
(1083,595,qs),
(1083,538,o),
(1015,450,o),
(894,401,o),
(815,401,qs),
(725,401,o),
(583,462,o),
(501,568,o),
(501,635,qs),
(501,701,o),
(566,815,o),
(682,900,o),
(838,948,o),
(929,948,qs),
(1030,948,o),
(1204,893,o),
(1336,796,o),
(1410,667,o),
(1410,592,qs),
(1410,528,o),
(1360,414,o),
(1273,327,o),
(1160,277,o),
(1096,277,qs),
(1071,277,o),
(1029,286,o),
(1012,293,q),
(1008,284,l),
(1047,267,o),
(1096,267,qs),
(1162,267,o),
(1279,318,o),
(1369,409,o),
(1420,526,o),
(1420,592,qs),
(1420,669,o),
(1345,802,o),
(1211,902,o),
(1033,958,o),
(929,958,qs),
(836,958,o),
(676,909,o),
(557,821,o),
(491,704,o),
(491,635,qs),
(491,565,o),
(575,454,o),
(721,391,o),
(815,391,qs),
(897,391,o),
(1022,443,o),
(1093,535,o),
(1093,595,qs),
(1093,640,o),
(1046,710,o),
(964,749,o),
(910,749,qs),
(816,749,o),
(750,679,q),
(757,672,l),
(820,739,o)
);
},
{
closed = 1;
nodes = (
(1008,257,o),
(868,109,o),
(740,18,o),
(603,-24,o),
(517,-24,qs),
(355,-24,o),
(173,96,o),
(173,203,qs),
(173,262,o),
(235,367,o),
(343,447,o),
(485,492,o),
(565,492,qs),
(643,492,o),
(759,451,o),
(823,376,o),
(823,326,qs),
(823,282,o),
(775,203,o),
(691,143,o),
(582,109,o),
(520,109,qs),
(444,109,o),
(354,162,o),
(354,208,qs),
(354,246,o),
(430,310,o),
(558,349,o),
(635,349,qs),
(745,349,o),
(917,282,o),
(1016,165,o),
(1016,90,qs),
(1016,18,o),
(943,-105,o),
(812,-197,o),
(638,-248,o),
(537,-248,qs),
(411,-248,o),
(202,-181,o),
(50,-60,o),
(-34,108,o),
(-34,208,qs),
(-34,309,o),
(50,476,o),
(203,598,o),
(412,665,o),
(537,665,qs),
(625,665,o),
(773,626,o),
(879,557,o),
(902,511,q),
(912,514,l),
(888,562,o),
(778,635,o),
(626,675,o),
(537,675,qs),
(410,675,o),
(197,606,o),
(41,481,o),
(-44,310,o),
(-44,208,qs),
(-44,105,o),
(41,-65,o),
(196,-190,o),
(409,-258,o),
(537,-258,qs),
(641,-258,o),
(818,-205,o),
(952,-110,o),
(1026,17,o),
(1026,90,qs),
(1026,148,o),
(968,247,o),
(863,320,o),
(720,360,o),
(636,360,qs),
(557,360,o),
(424,319,o),
(344,250,o),
(344,207,qs),
(344,158,o),
(439,99,o),
(520,99,qs),
(585,99,o),
(698,134,o),
(784,197,o),
(833,279,o),
(833,326,qs),
(833,380,o),
(767,459,o),
(647,502,o),
(565,502,qs),
(482,502,o),
(336,456,o),
(225,373,o),
(163,265,o),
(163,203,qs),
(163,118,o),
(253,-6,o),
(419,-74,o),
(532,-74,qs),
(612,-74,o),
(768,-36,o),
(904,35,o),
(954,84,qs),
(1008,136,o),
(1096,269,o),
(1176,413,o),
(1259,549,o),
(1308,603,qs),
(1332,629,o),
(1393,676,o),
(1456,712,o),
(1480,719,q),
(1428,719,l),
(1393,699,o),
(1326,644,o),
(1299,611,qs),
(1182,469,o)
);
}
);
width = 1219;
},
{
layerId = "D8AEADB0-1DB0-4081-A325-B35DA37C7650";
shapes = (
{
closed = 1;
nodes = (
(910,741,qs),
(960.781,741,o),
(1040,703,o),
(1085,638,o),
(1085,595.152,qs),
(1085,537,o),
(1016,449,o),
(895,399,o),
(815.238,399,qs),
(724.37,399,o),
(581,460,o),
(499,567.331,o),
(499,635.172,qs),
(499,702,o),
(564,816,o),
(680.853,901.639,o),
(838,950,o),
(929,950,qs),
(1030,950,o),
(1206,895,o),
(1338,797.355,o),
(1412,667.498,o),
(1412,592,qs),
(1412,527.594,o),
(1361.6,412.87,o),
(1273.904,325.317,o),
(1160,275,o),
(1096.432,275,qs),
(1071.601,275,o),
(1029.885,283.438,o),
(1013,290,q),
(1011,285,l),
(1048,269,o),
(1096.148,269,qs),
(1161,269,o),
(1278,320,o),
(1367.362,410.336,o),
(1418,526.482,o),
(1418,592,qs),
(1418,668.503,o),
(1343,800.645,o),
(1209,900,o),
(1031.949,956,o),
(928.504,956,qs),
(836,956,o),
(678,907,o),
(559,819.512,o),
(493,703.192,o),
(493,634.593,qs),
(493,565,o),
(577,456,o),
(721.64,393,o),
(814.764,393,qs),
(896,393,o),
(1021,444,o),
(1091,535.533,o),
(1091,595.228,qs),
(1091,640,o),
(1045,708,o),
(963,747,o),
(910.009,747,qs),
(817.766,747,o),
(753,679,q),
(757,675,l),
(820,741,o)
);
},
{
closed = 1;
nodes = (
(1049,302,o),
(912,145,o),
(775,34,o),
(617,-26,o),
(517,-26,qs),
(354.058,-26,o),
(171,95.259,o),
(171,203.381,qs),
(171,263,o),
(233.365,368,o),
(342,448,o),
(484,494,o),
(565.013,494,qs),
(644,494,o),
(760,452,o),
(825,377,o),
(825,325.936,qs),
(825,281,o),
(777,202,o),
(693,142,o),
(582,107,o),
(520,107,qs),
(443.084,107,o),
(352,162,o),
(352,208.492,qs),
(352,246.898,o),
(428.745,311.583,o),
(558,351,o),
(635.429,351,qs),
(746.042,351,o),
(919,283,o),
(1018,165.511,o),
(1018,90.198,qs),
(1018,17.898,o),
(945,-105.616,o),
(814,-198,o),
(639,-250,o),
(537.549,-250,qs),
(410.987,-250,o),
(201.054,-182.722,o),
(48.375,-61.221,o),
(-36,107.475,o),
(-36,207.89,qs),
(-36,309.308,o),
(48,477,o),
(201,600,o),
(411.251,667,o),
(537,667,qs),
(624,667,o),
(773,629,o),
(880,560,o),
(903,513,q),
(909,515,l),
(885.179,561.81,o),
(776,633,o),
(625.261,673,o),
(537,673,qs),
(410.374,673,o),
(198,605,o),
(43,480,o),
(-42,309.694,o),
(-42,208.108,qs),
(-42,105.526,o),
(43,-63.783,o),
(197.375,-188.276,o),
(409.516,-256,o),
(537,-256,qs),
(640,-256,o),
(817,-203,o),
(950,-109,o),
(1024,17.365,o),
(1024,90,qs),
(1024,147.57,o),
(966.379,245.837,o),
(862.065,318.296,o),
(720,358,o),
(636,358,qs),
(557,358,o),
(425.249,317.406,o),
(346,249.089,o),
(346,206.515,qs),
(346,158,o),
(439.817,101,o),
(519.809,101,qs),
(584,101,o),
(696.544,135.806,o),
(782.198,198.456,o),
(831,280,o),
(831,326.368,qs),
(831,379.641,o),
(765.531,457.578,o),
(646.497,500,o),
(565.157,500,qs),
(482.825,500,o),
(338,454,o),
(227,372,o),
(165,264.57,o),
(165,202.897,qs),
(165,118.346,o),
(254,-5,o),
(419,-72,o),
(532,-72,qs),
(612,-72,o),
(768,-33,o),
(904,37,o),
(953,85,qs),
(1008,139,o),
(1096,272,o),
(1175,414,o),
(1258,549,o),
(1307,604,qs),
(1333,632,o),
(1393,679,o),
(1454,711,o),
(1480,717,q),
(1428.598,717,l),
(1394,697,o),
(1330,643,o),
(1301,610,qs),
(1204,497,o)
);
}
);
width = 1183;
}
);
note = P;
unicode = 80;
},
{
glyphname = Thorn;
layers = (
{
layerId = m01;
shapes = (
{
closed = 1;
nodes = (
(944,115,o),
(966,113,o),
(976,113,qs),
(1042,113,o),
(1159,164,o),
(1249,255,o),
(1300,372,o),
(1300,438,qs),
(1300,515,o),
(1225,648,o),
(1091,748,o),
(913,804,o),
(809,804,qs),
(716,804,o),
(556,755,o),
(437,667,o),
(371,550,o),
(371,481,qs),
(371,411,o),
(455,300,o),
(601,237,o),
(695,237,qs),
(777,237,o),
(902,289,o),
(973,381,o),
(973,441,qs),
(973,486,o),
(926,556,o),
(844,595,o),
(790,595,qs),
(696,595,o),
(630,525,q),
(637,518,l),
(700,585,o),
(790,585,qs),
(840,585,o),
(918,548,o),
(963,483,o),
(963,441,qs),
(963,384,o),
(895,296,o),
(774,247,o),
(695,247,qs),
(605,247,o),
(463,308,o),
(381,414,o),
(381,481,qs),
(381,547,o),
(446,661,o),
(562,746,o),
(718,794,o),
(809,794,qs),
(910,794,o),
(1084,739,o),
(1216,642,o),
(1290,513,o),
(1290,438,qs),
(1290,374,o),
(1240,260,o),
(1153,173,o),
(1040,123,o),
(976,123,qs),
(955,123,o),
(937,126,q),
(933,117,l)
);
},
{
closed = 1;
nodes = (
(379,130,o),
(462,99,o),
(520,99,qs),
(585,99,o),
(698,134,o),
(784,197,o),
(833,279,o),
(833,326,qs),
(833,380,o),
(767,459,o),
(647,502,o),
(565,502,qs),
(482,502,o),
(336,456,o),
(225,373,o),
(163,265,o),
(163,203,qs),
(163,118,o),
(253,-6,o),
(419,-74,o),
(532,-74,qs),
(612,-74,o),
(768,-36,o),
(904,35,o),
(954,84,qs),
(1008,136,o),
(1096,269,o),
(1176,413,o),
(1259,549,o),
(1308,603,qs),
(1332,629,o),
(1393,676,o),
(1456,712,o),
(1480,719,q),
(1428,719,l),
(1393,699,o),
(1326,644,o),
(1299,611,qs),
(1182,469,o),
(1008,257,o),
(868,109,o),
(740,18,o),
(603,-24,o),
(517,-24,qs),
(355,-24,o),
(173,96,o),
(173,203,qs),
(173,262,o),
(235,367,o),
(343,447,o),
(485,492,o),
(565,492,qs),
(643,492,o),
(759,451,o),
(823,376,o),
(823,326,qs),
(823,282,o),
(775,203,o),
(691,143,o),
(582,109,o),
(520,109,qs),
(465,109,o),
(385,138,o),
(367,164,q),
(359,158,l)
);
}
);
width = 1207;
},
{
layerId = "D8AEADB0-1DB0-4081-A325-B35DA37C7650";
shapes = (
{
closed = 1;
nodes = (
(944.333,117,o),
(965,115,o),
(976,115,qs),
(1041,115,o),
(1158,166,o),
(1247.362,256.336,o),
(1298,372.482,o),
(1298,438,qs),
(1298,514.503,o),
(1223,646.645,o),
(1089,746,o),
(911.949,802,o),
(808.504,802,qs),
(716,802,o),
(558,753,o),
(439,665.512,o),
(373,549.192,o),
(373,480.593,qs),
(373,411,o),
(457,302,o),
(601.64,239,o),
(694.764,239,qs),
(776,239,o),
(901,290,o),
(971,381.533,o),
(971,441.228,qs),
(971,486,o),
(925,554,o),
(843,593,o),
(790.009,593,qs),
(697.766,593,o),
(633,525,q),
(637,521,l),
(700,587,o),
(790,587,qs),
(840.781,587,o),
(920,549,o),
(965,484,o),
(965,441.152,qs),
(965,383,o),
(896,295,o),
(775,245,o),
(695.238,245,qs),
(604.37,245,o),
(461,306,o),
(379,413.331,o),
(379,481.172,qs),
(379,548,o),
(444,662,o),
(560.853,747.639,o),
(718,796,o),
(809,796,qs),
(910,796,o),
(1086,741,o),
(1218,643.355,o),
(1292,513.498,o),
(1292,438,qs),
(1292,373.594,o),
(1241.682,258.87,o),
(1154.127,171.317,o),
(1040.408,121,o),
(976,121,qs),
(957,121,o),
(937,124,q),
(934,119,l)
);
},
{
closed = 1;
nodes = (
(380,131,o),
(462.194,101,o),
(519.631,101,qs),
(584,101,o),
(696.544,135.806,o),
(782.198,198.456,o),
(831,280,o),
(831,326.368,qs),
(831,379.641,o),
(765.531,457.578,o),
(646.497,500,o),
(565.157,500,qs),
(482.825,500,o),
(338,454,o),
(227,372,o),
(165,264.57,o),
(165,202.897,qs),
(165,118.346,o),
(254,-5,o),
(419,-72,o),
(532,-72,qs),
(612,-72,o),
(768,-33,o),
(904,37,o),
(953,85,qs),
(1008,139,o),
(1096,272,o),
(1175,414,o),
(1258,549,o),
(1307,604,qs),
(1333,632,o),
(1393,679,o),
(1454,711,o),
(1480,717,q),
(1428.598,717,l),
(1394,697,o),
(1330,643,o),
(1301,610,qs),
(1204,497,o),
(1049,302,o),
(912,145,o),
(775,34,o),
(617,-26,o),
(517,-26,qs),
(354.058,-26,o),
(171,95.259,o),
(171,203.381,qs),
(171,263,o),
(233.365,368,o),
(342,448,o),
(484,494,o),
(565.013,494,qs),
(644,494,o),
(760,452,o),
(825,377,o),
(825,325.936,qs),
(825,281,o),
(777,202,o),
(693,142,o),
(582,107,o),
(519.712,107,qs),
(464.456,107,o),
(384.084,136.527,o),
(366,163,q),
(361,159,l)
);
}
);
width = 1207;
}
);
note = Thorn;
unicode = 222;
},
{
glyphname = Q;
layers = (
{
layerId = m01;
shapes = (
{
closed = 1;
nodes = (
(590,-33,o),
(753,63,o),
(894,190,o),
(1002,335,o),
(1062,489,o),
(1062,564,qs),
(1062,640,o),
(1006,751,o),
(904,813,o),
(835,813,qs),
(773,813,o),
(628,758,o),
(481,664,o),
(346,544,o),
(241,412,o),
(179,283,o),
(179,227,qs),
(179,185,o),
(227,139,o),
(272,139,qs),
(314,139,o),
(422,184,o),
(538,259,o),
(646,353,o),
(733,453,o),
(785,546,o),
(785,583,qs),
(785,648,o),
(718,648,qs),
(680,648,o),
(582,595,o),
(476,506,o),
(377,396,o),
(296,279,o),
(249,170,o),
(249,128,qs),
(249,91,o),
(301,46,o),
(344,46,qs),
(410,46,o),
(545,97,o),
(673,188,o),
(783,308,o),
(866,447,o),
(913,595,o),
(913,667,qs),
(913,783,o),
(796,908,o),
(686,908,qs),
(588,908,o),
(399,850,o),
(227,744,o),
(83,602,o),
(-23,432,o),
(-82,244,o),
(-82,147,qs),
(-82,31,o),
(-2,-157,o),
(147,-291,o),
(355,-363,o),
(484,-363,qs),
(569,-363,o),
(736,-332,o),
(885,-274,o),
(941,-234,q),
(936,-225,l),
(881,-264,o),
(735,-322,o),
(569,-353,o),
(484,-353,qs),
(358,-353,o),
(153,-282,o),
(7,-151,o),
(-72,33,o),
(-72,147,qs),
(-72,243,o),
(-14,427,o),
(91,595,o),
(233,736,o),
(403,840,o),
(590,898,o),
(686,898,qs),
(791,898,o),
(903,780,o),
(903,667,qs),
(903,599,o),
(855,457,o),
(772,320,o),
(662,200,o),
(537,108,o),
(407,56,o),
(345,56,qs),
(307,56,o),
(259,96,o),
(259,128,qs),
(259,168,o),
(306,274,o),
(385,389,o),
(484,498,o),
(587,586,o),
(682,638,o),
(718,638,qs),
(771,638,o),
(771,592,qs),
(771,559,o),
(719,468,o),
(632,368,o),
(524,273,o),
(412,195,o),
(310,149,o),
(272,149,qs),
(232,149,o),
(189,190,o),
(189,227,qs),
(189,281,o),
(250,408,o),
(355,537,o),
(487,656,o),
(632,749,o),
(774,803,o),
(835,803,qs),
(1005,803,o),
(1005,607,qs),
(1005,536,o),
(945,380,o),
(841,227,o),
(707,90,o),
(557,-16,o),
(405,-77,o),
(335,-77,qs),
(299,-77,o),
(251,-57,o),
(251,-41,qs),
(251,-29,o),
(282,-13,o),
(306,-13,qs),
(348,-13,o),
(415,-40,o),
(479,-74,o),
(550,-101,o),
(597,-101,qs),
(641,-101,o),
(740,-70,o),
(844,-12,o),
(944,69,o),
(990,120,qs),
(1034,169,l),
(1024,169,l),
(983,123,ls),
(942,77,o),
(843,-2,o),
(739,-59,o),
(638,-91,o),
(595,-91,qs),
(552,-91,o),
(481,-64,o),
(417,-30,o),
(348,-3,o),
(306,-3,qs),
(277,-3,o),
(241,-24,o),
(241,-41,qs),
(241,-60,o),
(295,-87,o),
(335,-87,qs),
(419,-87,o)
);
}
);
width = 1024;
},
{
layerId = "D8AEADB0-1DB0-4081-A325-B35DA37C7650";
shapes = (
{
closed = 1;
nodes = (
(590,-31,o),
(752,65,o),
(893,191,o),
(1000.357,336,o),
(1060,490,o),
(1060,564.007,qs),
(1060,639,o),
(1004,750,o),
(903.193,811,o),
(835,811,qs),
(773.254,811,o),
(628.847,756,o),
(482.448,662,o),
(348,542,o),
(242,411,o),
(181,282.697,o),
(181,227,qs),
(181,185.955,o),
(229,141,o),
(272,141,qs),
(313.684,141,o),
(420.872,186,o),
(536,261,o),
(645,354,o),
(732,454,o),
(783,547,o),
(783,582.912,qs),
(783,646,o),
(718,646,qs),
(680.162,646,o),
(582.58,593.204,o),
(477.032,504.546,o),
(378.454,394.969,o),
(297.8,278.419,o),
(251,169.838,o),
(251,128,qs),
(251,91.902,o),
(303,48,o),
(344,48,qs),
(410,48,o),
(545,99,o),
(672,189,o),
(781,309,o),
(864,447.707,o),
(911,595.396,o),
(911,667.244,qs),
(911,783,o),
(795.08,906,o),
(686.095,906,qs),
(589,906,o),
(400,848,o),
(229,743,o),
(85,600,o),
(-21,431,o),
(-80,243.709,o),
(-80,147.075,qs),
(-80,31.513,o),
(-0.083,-155.777,o),
(148.328,-289.272,o),
(355.506,-361,o),
(483.996,-361,qs),
(568.66,-361,o),
(735,-330,o),
(882,-272,o),
(938,-233,q),
(935,-228,l),
(880,-266.598,o),
(734,-324,o),
(569,-355,o),
(483.735,-355,qs),
(357.342,-355,o),
(151.702,-283.632,o),
(5.246,-151.953,o),
(-74,33,o),
(-74,147.203,qs),
(-74,243.374,o),
(-15.644,427.701,o),
(90,596,o),
(232,738,o),
(402,842,o),
(589,900,o),
(685.92,900,qs),
(791.927,900,o),
(905,780,o),
(905,666.754,qs),
(905,598.607,o),
(856.634,456.298,o),
(773,319,o),
(663,198,o),
(537.606,106,o),
(407.196,54,o),
(345,54,qs),
(306.116,54,o),
(257,95.071,o),
(257,127.929,qs),
(257,169,o),
(304.373,275,o),
(384,390,o),
(482,499,o),
(585.88,587.629,o),
(681.692,640,o),
(718,640,qs),
(773,640,o),
(773,592,qs),
(773,558.734,o),
(721,467,o),
(633,367,o),
(525,271,o),
(412,193,o),
(310,147,o),
(272,147,qs),
(231.036,147,o),
(187,188.932,o),
(187,226.773,qs),
(187,282,o),
(248,409,o),
(353.443,538,o),
(486,657,o),
(632,751,o),
(774,805,o),
(835,805,qs),
(1007,805,o),
(1007,607,qs),
(1007,536,o),
(947,380,o),
(842.563,225.945,o),
(708,88,o),
(557.597,-18,o),
(405.188,-79,o),
(335,-79,qs),
(298.143,-79,o),
(249,-57,o),
(249,-41,qs),
(249,-28.143,o),
(281,-11,o),
(306.455,-11,qs),
(351,-11,o),
(425,-38,o),
(490,-72,o),
(558,-99,o),
(597,-99,qs),
(652,-99,o),
(763,-58,o),
(867,8,o),
(956,85,o),
(988,121,qs),
(996,130,l),
(988,130,l),
(980,121,ls),
(951,88,o),
(866,14,o),
(763,-51,o),
(651,-93,o),
(595,-93,qs),
(557,-93,o),
(492,-66,o),
(427,-32,o),
(353,-5,o),
(306.268,-5,qs),
(274,-5,o),
(243,-27,o),
(243,-41.167,qs),
(243,-57,o),
(289,-85,o),
(335,-85,qs),
(418,-85,o)
);
}
);
width = 988;
}
);
note = Q;
unicode = 81;
},
{
glyphname = R;
layers = (
{
anchors = (
{
name = bottom;
pos = (621,0);
},
{
name = top;
pos = (1210,770);
}
);
layerId = m01;
shapes = (
{
closed = 1;
nodes = (
(1308,368,o),
(1392,506,o),
(1392,592,qs),
(1392,670,o),
(1318,803,o),
(1184,902,o),
(1005,958,o),
(901,958,qs),
(808,958,o),
(649,908,o),
(530,820,o),
(463,702,o),
(463,634,qs),
(463,561,o),
(543,452,o),
(689,391,o),
(786,391,qs),
(864,391,o),
(991,448,o),
(1065,544,o),
(1065,603,qs),
(1065,672,o),
(1010,713,q),
(1002,706,l),
(1054,668,o),
(1054,602,qs),
(1054,546,o),
(982,455,o),
(861,401,o),
(787,401,qs),
(693,401,o),
(551,459,o),
(473,565,o),
(473,635,qs),
(473,701,o),
(539,815,o),
(655,900,o),
(811,948,o),
(901,948,qs),
(1002,948,o),
(1176,893,o),
(1308,796,o),
(1382,667,o),
(1382,592,qs),
(1382,508,o),
(1301,376,o),
(1160,299,o),
(1071,299,qs),
(1046,299,o),
(1010,318,o),
(1010,331,qs),
(1010,342,o),
(1028,354,o),
(1042,354,qs),
(1071,354,o),
(1111,314,o),
(1111,286,qs),
(1111,252,o),
(1093,170,o),
(1069,83,o),
(1051,-4,o),
(1051,-44,qs),
(1051,-122,o),
(1113,-207,o),
(1171,-207,qs),
(1193,-207,o),
(1230,-193,o),
(1247,-178,q),
(1241,-172,l),
(1226,-185,o),
(1194,-197,o),
(1173,-197,qs),
(1121,-197,o),
(1081,-119,o),
(1081,-58,qs),
(1081,-16,o),
(1105,89,o),
(1128,203,o),
(1128,258,qs),
(1128,296,o),
(1099,344,o),
(1059,366,o),
(1040,366,qs),
(1021,366,o),
(998,347,o),
(998,333,qs),
(998,318,o),
(1036,289,o),
(1071,289,qs),
(1163,289,o)
);
},
{
closed = 1;
nodes = (
(978,257,o),
(838,109,o),
(710,18,o),
(573,-24,o),
(487,-24,qs),
(325,-24,o),
(143,96,o),
(143,203,qs),
(143,262,o),
(205,367,o),
(313,447,o),
(455,492,o),
(535,492,qs),
(613,492,o),
(729,451,o),
(793,376,o),
(793,326,qs),
(793,282,o),
(745,203,o),
(661,143,o),
(552,109,o),
(490,109,qs),
(414,109,o),
(324,162,o),
(324,208,qs),
(324,246,o),
(400,310,o),
(528,349,o),
(605,349,qs),
(715,349,o),
(887,282,o),
(986,165,o),
(986,90,qs),
(986,18,o),
(913,-105,o),
(782,-197,o),
(608,-248,o),
(507,-248,qs),
(381,-248,o),
(172,-181,o),
(20,-60,o),
(-64,108,o),
(-64,208,qs),
(-64,309,o),
(20,476,o),
(173,598,o),
(382,665,o),
(507,665,qs),
(595,665,o),
(743,626,o),
(849,557,o),
(872,511,q),
(882,514,l),
(858,562,o),
(748,635,o),
(596,675,o),
(507,675,qs),
(380,675,o),
(167,606,o),
(11,481,o),
(-74,310,o),
(-74,208,qs),
(-74,105,o),
(11,-65,o),
(166,-190,o),
(379,-258,o),
(507,-258,qs),
(611,-258,o),
(788,-205,o),
(922,-110,o),
(996,17,o),
(996,90,qs),
(996,148,o),
(938,247,o),
(833,320,o),
(690,360,o),
(606,360,qs),
(527,360,o),
(394,319,o),
(314,250,o),
(314,207,qs),
(314,158,o),
(409,99,o),
(490,99,qs),
(555,99,o),
(668,134,o),
(754,197,o),
(803,279,o),
(803,326,qs),
(803,380,o),
(737,459,o),
(617,502,o),
(535,502,qs),
(452,502,o),
(306,456,o),
(195,373,o),
(133,265,o),
(133,203,qs),
(133,118,o),
(223,-6,o),
(389,-74,o),
(502,-74,qs),
(582,-74,o),
(738,-36,o),
(874,35,o),
(924,84,qs),
(978,136,o),
(1066,269,o),
(1146,413,o),
(1229,549,o),
(1278,603,qs),
(1302,629,o),
(1363,676,o),
(1426,712,o),
(1450,719,q),
(1398,719,l),
(1363,699,o),
(1296,644,o),
(1269,611,qs),
(1152,469,o)
);
}
);
width = 1277;
},
{
layerId = "D8AEADB0-1DB0-4081-A325-B35DA37C7650";
shapes = (
{
closed = 1;
nodes = (
(1307,370,o),
(1390,506,o),
(1390,591.71,qs),
(1390,669.448,o),
(1316,802,o),
(1182,901,o),
(1005,956,o),
(901.292,956,qs),
(808.553,956,o),
(650,907,o),
(531,819,o),
(465,702,o),
(465,634.272,qs),
(465,561.564,o),
(545,453,o),
(690.09,393,o),
(786.486,393,qs),
(864,393,o),
(989,449,o),
(1063,545,o),
(1063,603,qs),
(1063,669,o),
(1010,710,q),
(1005,706,l),
(1056,667,o),
(1056,601.541,qs),
(1056,546,o),
(984,453,o),
(861.744,399,o),
(786.976,399,qs),
(692,399,o),
(550,458,o),
(471,564,o),
(471,634.548,qs),
(471,701.065,o),
(537.25,815.958,o),
(653.688,901.624,o),
(810.278,950,o),
(900.618,950,qs),
(1002,950,o),
(1178,895,o),
(1310,797,o),
(1384,667.221,o),
(1384,591.769,qs),
(1384,507.262,o),
(1302.941,374.465,o),
(1160.751,297,o),
(1071,297,qs),
(1045.18,297,o),
(1008,317,o),
(1008,330.542,qs),
(1008,342,o),
(1026,356,o),
(1042,356,qs),
(1071,356,o),
(1113,314.824,o),
(1113,286,qs),
(1113,249,o),
(1095,168,o),
(1071,83,o),
(1053,-2,o),
(1053,-44,qs),
(1053,-115,o),
(1110,-205,o),
(1170.9,-205,qs),
(1194,-205,o),
(1230,-190,o),
(1244,-178,q),
(1241,-175,l),
(1228,-186,o),
(1196,-199,o),
(1173,-199,qs),
(1121,-199,o),
(1079,-119,o),
(1079,-58,qs),
(1079,-15,o),
(1103,87,o),
(1126,200,o),
(1126,258,qs),
(1126,296,o),
(1098,342,o),
(1058,364,o),
(1040,364,qs),
(1024,364,o),
(1000,348,o),
(1000,333,qs),
(1000,318.682,o),
(1036.959,291,o),
(1071,291,qs),
(1162.612,291,o)
);
},
{
closed = 1;
nodes = (
(1019,302,o),
(882,145,o),
(745,34,o),
(587,-26,o),
(487,-26,qs),
(324.058,-26,o),
(141,95.259,o),
(141,203.381,qs),
(141,263,o),
(203.365,368,o),
(312,448,o),
(454,494,o),
(535.013,494,qs),
(614,494,o),
(730,452,o),
(795,377,o),
(795,325.936,qs),
(795,281,o),
(747,202,o),
(663,142,o),
(552,107,o),
(490,107,qs),
(413.084,107,o),
(322,162,o),
(322,208.492,qs),
(322,246.898,o),
(398.745,311.583,o),
(528,351,o),
(605.429,351,qs),
(716.042,351,o),
(889,283,o),
(988,165.511,o),
(988,90.198,qs),
(988,17.898,o),
(915,-105.616,o),
(784,-198,o),
(609,-250,o),
(507.549,-250,qs),
(380.987,-250,o),
(171.054,-182.722,o),
(18.375,-61.221,o),
(-66,107.475,o),
(-66,207.89,qs),
(-66,309.308,o),
(18,477,o),
(171,600,o),
(381.251,667,o),
(507,667,qs),
(594,667,o),
(743,629,o),
(850,560,o),
(873,513,q),
(879,515,l),
(855.179,561.81,o),
(746,633,o),
(595.261,673,o),
(507,673,qs),
(380.374,673,o),
(168,605,o),
(13,480,o),
(-72,309.694,o),
(-72,208.108,qs),
(-72,105.526,o),
(13,-63.783,o),
(167.375,-188.276,o),
(379.516,-256,o),
(507,-256,qs),
(610,-256,o),
(787,-203,o),
(920,-109,o),
(994,17.365,o),
(994,90,qs),
(994,147.57,o),
(936.379,245.837,o),
(832.065,318.296,o),
(690,358,o),
(606,358,qs),
(527,358,o),
(395.249,317.406,o),
(316,249.089,o),
(316,206.515,qs),
(316,158,o),
(409.817,101,o),
(489.809,101,qs),
(554,101,o),
(666.544,135.806,o),
(752.198,198.456,o),
(801,280,o),
(801,326.368,qs),
(801,379.641,o),
(735.531,457.578,o),
(616.497,500,o),
(535.157,500,qs),
(452.825,500,o),
(308,454,o),
(197,372,o),
(135,264.57,o),
(135,202.897,qs),
(135,118.346,o),
(224,-5,o),
(389,-72,o),
(502,-72,qs),
(582,-72,o),
(738,-33,o),
(874,37,o),
(923,85,qs),
(978,139,o),
(1066,272,o),
(1145,414,o),
(1228,549,o),
(1277,604,qs),
(1303,632,o),
(1363,679,o),
(1424,711,o),
(1450,717,q),
(1398.598,717,l),
(1364,697,o),
(1300,643,o),
(1271,610,qs),
(1174,497,o)
);
}
);
width = 1241;
}
);
note = R;
unicode = 82;
},
{
glyphname = S;
layers = (
{
anchors = (
{
name = bottom;
pos = (550,-138);
},
{
name = top;
pos = (1327,770);
}
);
layerId = m01;
shapes = (
{
closed = 1;
nodes = (
(1107,353,o),
(1004,199,o),
(902,83,o),
(798,1,o),
(689,-50,o),
(571,-73,o),
(506,-73,qs),
(420,-73,o),
(269,-24,o),
(155,62,o),
(90,176,o),
(90,241,qs),
(90,316,o),
(161,449,o),
(285,549,o),
(449,606,o),
(542,606,qs),
(643,606,o),
(802,538,o),
(893,421,o),
(893,346,qs),
(893,289,o),
(836,189,o),
(736,113,o),
(604,70,o),
(529,70,qs),
(454,70,o),
(341,115,o),
(279,197,o),
(279,252,qs),
(279,308,o),
(346,398,o),
(462,450,o),
(534,450,qs),
(609,450,o),
(706,389,o),
(706,341,qs),
(706,306,o),
(660,250,o),
(583,218,o),
(534,218,qs),
(511,218,o),
(480,236,o),
(480,249,qs),
(480,269,o),
(553,294,o),
(617,294,qs),
(718,294,o),
(875,226,o),
(964,105,o),
(964,27,qs),
(964,-33,o),
(895,-138,o),
(772,-217,o),
(609,-261,o),
(514,-261,qs),
(385,-261,o),
(169,-191,o),
(11,-64,o),
(-76,110,o),
(-76,214,qs),
(-76,313,o),
(7,494,o),
(160,639,o),
(263,684,q),
(258,693,l),
(152,647,o),
(-3,499,o),
(-87,316,o),
(-87,216,qs),
(-87,110,o),
(1,-69,o),
(162,-199,o),
(382,-271,o),
(514,-271,qs),
(611,-271,o),
(778,-225,o),
(904,-144,o),
(974,-36,o),
(974,27,qs),
(974,109,o),
(883,233,o),
(722,304,o),
(616,304,qs),
(551,304,o),
(470,275,o),
(470,249,qs),
(470,231,o),
(506,208,o),
(534,208,qs),
(586,208,o),
(668,243,o),
(716,303,o),
(716,340,qs),
(716,393,o),
(615,460,o),
(534,460,qs),
(459,460,o),
(339,405,o),
(269,311,o),
(269,252,qs),
(269,194,o),
(333,108,o),
(450,60,o),
(529,60,qs),
(607,60,o),
(743,104,o),
(845,183,o),
(903,286,o),
(903,346,qs),
(903,424,o),
(810,546,o),
(647,616,o),
(542,616,qs),
(446,616,o),
(279,558,o),
(152,455,o),
(80,319,o),
(80,241,qs),
(80,161,o),
(152,22,o),
(281,-82,o),
(451,-140,o),
(550,-140,qs),
(641,-140,o),
(784,-103,o),
(898,-31,o),
(991,73,o),
(1073,207,o),
(1152,371,o),
(1236,560,o),
(1286,667,qs),
(1324,749,o),
(1399,816,o),
(1423,816,qs),
(1435,816,o),
(1435,800,qs),
(1435,759,o),
(1367,664,o),
(1250,566,o),
(1101,477,o),
(939,407,o),
(780,366,o),
(712,366,qs),
(551,366,o),
(370,476,o),
(370,575,qs),
(370,625,o),
(424,710,o),
(520,773,o),
(647,809,o),
(721,809,qs),
(807,809,o),
(983,768,o),
(1144,696,o),
(1278,600,o),
(1368,489,o),
(1383,431,q),
(1390,433,l),
(1376,492,o),
(1286,605,o),
(1151,703,o),
(987,777,o),
(809,819,o),
(721,819,qs),
(646,819,o),
(516,781,o),
(416,713,o),
(360,625,o),
(360,574,qs),
(360,507,o),
(445,409,o),
(603,356,o),
(712,356,qs),
(782,356,o),
(944,397,o),
(1109,469,o),
(1259,560,o),
(1377,660,o),
(1445,759,o),
(1445,802,qs),
(1445,827,o),
(1421,827,qs),
(1392,827,o),
(1309,749,o),
(1271,669,qs),
(1214,548,o)
);
}
);
width = 1157;
},
{
layerId = "D8AEADB0-1DB0-4081-A325-B35DA37C7650";
shapes = (
{
closed = 1;
nodes = (
(1180,493,o),
(1105,352,o),
(1015,210,o),
(905,82,o),
(770,-17,o),
(606,-75,o),
(506,-75,qs),
(419,-75,o),
(267.542,-25.803,o),
(153.197,60.542,o),
(88,175,o),
(88,240.929,qs),
(88,317,o),
(159.198,450.459,o),
(283.543,550.803,o),
(448,608,o),
(541.959,608,qs),
(644,608,o),
(803,540,o),
(895,421.59,o),
(895,345.687,qs),
(895,288,o),
(838,187.432,o),
(738,111,o),
(604.596,68,o),
(528.798,68,qs),
(453,68,o),
(340,114,o),
(277,197,o),
(277,252.274,qs),
(277,308.552,o),
(345,399,o),
(461.617,452,o),
(534,452,qs),
(611,452,o),
(708,389.948,o),
(708,341.121,qs),
(708,305.517,o),
(662,248.552,o),
(584.307,216,o),
(534,216,qs),
(509,216,o),
(478,235.412,o),
(478,249.431,qs),
(478,271,o),
(553,296,o),
(617.398,296,qs),
(719.025,296,o),
(877,227,o),
(966,106,o),
(966,26.87,qs),
(966,-34,o),
(896,-139,o),
(773,-218,o),
(609,-263,o),
(513.568,-263,qs),
(383.982,-263,o),
(167,-193,o),
(9,-65,o),
(-78,109.465,o),
(-78,213.743,qs),
(-78,313.008,o),
(5,494.492,o),
(157.409,639.88,o),
(260,685,q),
(257,690,l),
(152,644,o),
(-1,498,o),
(-85,315.524,o),
(-85,215.811,qs),
(-85,110.115,o),
(3,-68.372,o),
(164,-198,o),
(383,-269,o),
(513.989,-269,qs),
(610.245,-269,o),
(775.966,-223,o),
(901,-142,o),
(972,-35.281,o),
(972,26.972,qs),
(972,108,o),
(882,232,o),
(721.485,302,o),
(615.804,302,qs),
(551,302,o),
(472,273,o),
(472,248.552,qs),
(472,231.627,o),
(506,210,o),
(534,210,qs),
(586,210,o),
(666.738,244.263,o),
(714,303,o),
(714,340,qs),
(714,393,o),
(614.072,458,o),
(533.931,458,qs),
(459.727,458,o),
(341,403,o),
(271,310.336,o),
(271,252.175,qs),
(271,195,o),
(335,109,o),
(450.806,62,o),
(529,62,qs),
(606.753,62,o),
(742.323,105.642,o),
(844,184,o),
(901,286.573,o),
(901,346.324,qs),
(901,424,o),
(808,545,o),
(646.343,614,o),
(542.209,614,qs),
(447,614,o),
(280,556,o),
(153,453,o),
(82,318,o),
(82,240.788,qs),
(82,161.596,o),
(154,24,o),
(282,-80,o),
(452,-138,o),
(550,-138,qs),
(659,-138,o),
(826,-78,o),
(953,27,o),
(1049,162,o),
(1124,314,o),
(1188,468,o),
(1249,611,o),
(1284,668,qs),
(1328,740,o),
(1399.97,818,o),
(1423,818,qs),
(1437,818,o),
(1437,800,qs),
(1437,758.811,o),
(1368.812,663.373,o),
(1251.488,564.922,o),
(1102.076,475.512,o),
(939.628,405.189,o),
(780.188,364,o),
(712,364,qs),
(549,364,o),
(368,474.993,o),
(368,574.887,qs),
(368,625.339,o),
(422,711.106,o),
(518,774.675,o),
(647,811,o),
(721.462,811,qs),
(808,811,o),
(983,770,o),
(1145,698,o),
(1278.402,602,o),
(1368,491,o),
(1384,433,q),
(1388,434,l),
(1373,493,o),
(1283,604.929,o),
(1148,702,o),
(985,776,o),
(808,817,o),
(721.08,817,qs),
(647,817,o),
(517,779,o),
(417.641,711.548,o),
(362,624.258,o),
(362,573.669,qs),
(362,507.21,o),
(447,410,o),
(603.816,358,o),
(712,358,qs),
(782,358,o),
(944,399,o),
(1107.952,471,o),
(1257,562,o),
(1375,661.497,o),
(1443,760,o),
(1443,802,qs),
(1443,825,o),
(1421,825,qs),
(1396,825,o),
(1315,740,o),
(1273,668,qs),
(1244,620,o)
);
}
);
width = 1121;
}
);
note = S;
unicode = 83;
},
{
glyphname = uni1E9E;
layers = (
{
layerId = m01;
shapes = (
{
closed = 1;
nodes = (
(1274,572,o),
(1383,668,o),
(1445,761,o),
(1445,802,qs),
(1445,827,o),
(1421,827,qs),
(1394,827,o),
(1313,740,o),
(1271,669,qs),
(1238,612,o),
(1163,459,o),
(1071,292,o),
(955,133,o),
(808,4,o),
(622,-73,o),
(506,-73,qs),
(420,-73,o),
(269,-24,o),
(155,62,o),
(90,176,o),
(90,241,qs),
(90,316,o),
(161,449,o),
(285,549,o),
(449,606,o),
(542,606,qs),
(643,606,o),
(802,538,o),
(893,421,o),
(893,346,qs),
(893,289,o),
(836,189,o),
(736,113,o),
(604,70,o),
(529,70,qs),
(454,70,o),
(341,115,o),
(279,197,o),
(279,252,qs),
(279,308,o),
(346,398,o),
(462,450,o),
(534,450,qs),
(609,450,o),
(706,389,o),
(706,341,qs),
(706,306,o),
(660,250,o),
(583,218,o),
(534,218,qs),
(511,218,o),
(480,236,o),
(480,249,qs),
(480,269,o),
(553,294,o),
(617,294,qs),
(718,294,o),
(875,226,o),
(964,105,o),
(964,27,qs),
(964,-33,o),
(895,-138,o),
(772,-217,o),
(608,-261,o),
(514,-261,qs),
(385,-261,o),
(169,-191,o),
(11,-64,o),
(-76,110,o),
(-76,214,qs),
(-76,313,o),
(7,494,o),
(160,639,o),
(263,684,q),
(258,693,l),
(152,647,o),
(-3,499,o),
(-87,316,o),
(-87,216,qs),
(-87,110,o),
(1,-69,o),
(162,-199,o),
(382,-271,o),
(514,-271,qs),
(610,-271,o),
(777,-225,o),
(903,-143,o),
(974,-35,o),
(974,27,qs),
(974,109,o),
(883,233,o),
(722,304,o),
(616,304,qs),
(551,304,o),
(470,275,o),
(470,249,qs),
(470,231,o),
(506,208,o),
(534,208,qs),
(586,208,o),
(668,243,o),
(716,303,o),
(716,340,qs),
(716,393,o),
(615,460,o),
(534,460,qs),
(459,460,o),
(339,405,o),
(269,311,o),
(269,252,qs),
(269,194,o),
(333,108,o),
(450,60,o),
(529,60,qs),
(607,60,o),
(743,104,o),
(845,183,o),
(903,286,o),
(903,346,qs),
(903,424,o),
(810,546,o),
(647,616,o),
(542,616,qs),
(446,616,o),
(279,558,o),
(152,455,o),
(80,319,o),
(80,241,qs),
(80,161,o),
(152,23,o),
(281,-81,o),
(451,-140,o),
(550,-140,qs),
(659,-140,o),
(827,-80,o),
(954,25,o),
(1051,161,o),
(1126,313,o),
(1190,467,o),
(1251,610,o),
(1286,667,qs),
(1330,739,o),
(1401,816,o),
(1423,816,qs),
(1435,816,o),
(1435,800,qs),
(1435,763,o),
(1377,676,o),
(1276,586,o),
(1211,544,q),
(1205,528,l)
);
},
{
closed = 1;
nodes = (
(398,-293,o),
(284,-203,o),
(220,-85,o),
(220,-17,q),
(210,-17,l),
(210,-99,o),
(281,-242,o),
(410,-350,o),
(581,-410,o),
(680,-410,qs),
(813,-410,o),
(1016,-329,o),
(1169,-187,o),
(1285,-5,o),
(1375,198,o),
(1453,404,o),
(1531,592,o),
(1576,667,qs),
(1620,739,o),
(1691,816,o),
(1713,816,qs),
(1725,816,o),
(1725,800,qs),
(1725,759,o),
(1657,664,o),
(1540,566,o),
(1391,477,o),
(1229,407,o),
(1070,366,o),
(1002,366,qs),
(841,366,o),
(660,476,o),
(660,575,qs),
(660,625,o),
(714,710,o),
(810,773,o),
(937,809,o),
(1011,809,qs),
(1097,809,o),
(1273,768,o),
(1434,696,o),
(1568,600,o),
(1658,489,o),
(1673,431,q),
(1680,433,l),
(1666,492,o),
(1576,605,o),
(1441,703,o),
(1277,777,o),
(1099,819,o),
(1011,819,qs),
(936,819,o),
(806,781,o),
(706,713,o),
(650,625,o),
(650,574,qs),
(650,507,o),
(735,409,o),
(893,356,o),
(1002,356,qs),
(1072,356,o),
(1234,397,o),
(1399,469,o),
(1549,560,o),
(1667,660,o),
(1735,759,o),
(1735,802,qs),
(1735,827,o),
(1711,827,qs),
(1684,827,o),
(1603,740,o),
(1561,669,qs),
(1523,604,o),
(1444,433,o),
(1353,241,o),
(1245,47,o),
(1114,-127,o),
(953,-264,o),
(756,-343,o),
(636,-343,qs),
(549,-343,o)
);
}
);
width = 1447;
},
{
layerId = "D8AEADB0-1DB0-4081-A325-B35DA37C7650";
shapes = (
{
closed = 1;
nodes = (
(1277,577,o),
(1382,670,o),
(1443,761.612,o),
(1443,802,qs),
(1443,825,o),
(1420.882,825,qs),
(1396,825,o),
(1315,740,o),
(1273,668,qs),
(1239.835,611,o),
(1164.46,458,o),
(1072,291,o),
(956,131,o),
(808,2,o),
(622,-75,o),
(506,-75,qs),
(419,-75,o),
(267.542,-25.803,o),
(153.197,60.542,o),
(88,175,o),
(88,240.929,qs),
(88,317,o),
(159.198,450.459,o),
(283.543,550.803,o),
(448,608,o),
(541.959,608,qs),
(644,608,o),
(803,540,o),
(895,421.59,o),
(895,345.687,qs),
(895,288,o),
(838,187.432,o),
(738,111,o),
(604.596,68,o),
(528.798,68,qs),
(453,68,o),
(340,114,o),
(277,197,o),
(277,252.274,qs),
(277,308.552,o),
(345,399,o),
(461.617,452,o),
(534,452,qs),
(611,452,o),
(708,389.948,o),
(708,341.121,qs),
(708,305.517,o),
(662,248.552,o),
(584.307,216,o),
(534,216,qs),
(509,216,o),
(478,235.412,o),
(478,249.431,qs),
(478,271,o),
(553,296,o),
(617.398,296,qs),
(719.025,296,o),
(877,227,o),
(966,106,o),
(966,26.87,qs),
(966,-34,o),
(896,-139,o),
(773,-218,o),
(609,-263,o),
(514.358,-263,qs),
(384.476,-263,o),
(167,-193,o),
(9,-65,o),
(-78,109.465,o),
(-78,213.743,qs),
(-78,313.008,o),
(5,494.492,o),
(157.409,639.88,o),
(260,685,q),
(257,690,l),
(152,644,o),
(-1,498,o),
(-85,315.524,o),
(-85,215.811,qs),
(-85,110.115,o),
(3,-68.372,o),
(164,-198,o),
(383,-269,o),
(514.331,-269,qs),
(609.845,-269,o),
(775.998,-223.39,o),
(901.36,-142.085,o),
(972,-35,o),
(972,26.769,qs),
(972,108.463,o),
(882,232,o),
(721.485,302,o),
(615.804,302,qs),
(551,302,o),
(472,273,o),
(472,248.552,qs),
(472,231.627,o),
(506,210,o),
(534,210,qs),
(586,210,o),
(666.738,244.263,o),
(714,303,o),
(714,340,qs),
(714,393,o),
(614.072,458,o),
(533.931,458,qs),
(459.727,458,o),
(341,403,o),
(271,310.336,o),
(271,252.175,qs),
(271,195,o),
(335,109,o),
(450.806,62,o),
(529,62,qs),
(606.753,62,o),
(742.323,105.642,o),
(844,184,o),
(901,286.573,o),
(901,346.324,qs),
(901,424,o),
(808,545,o),
(646.343,614,o),
(542.209,614,qs),
(447,614,o),
(280,556,o),
(153,453,o),
(82,318.388,o),
(82,241.184,qs),
(82,162,o),
(153.642,24,o),
(282,-80,o),
(451.55,-138,o),
(550.288,-138,qs),
(659,-138,o),
(826.281,-78.132,o),
(952.737,26.636,o),
(1049.321,162.336,o),
(1124,314,o),
(1188,468,o),
(1249,611,o),
(1284,668,qs),
(1328,740,o),
(1400,818,o),
(1423,818,qs),
(1437,818,o),
(1437,800,qs),
(1437,762.702,o),
(1379,675,o),
(1278,585,o),
(1213,543,q),
(1209,533,l)
);
},
{
closed = 1;
nodes = (
(398,-295,o),
(282.719,-205,o),
(218,-87,o),
(218,-19,q),
(212,-19,l),
(212,-101,o),
(284,-242,o),
(412.122,-348.714,o),
(581.959,-408,o),
(680.286,-408,qs),
(812.381,-408,o),
(1014,-327,o),
(1167,-186,o),
(1283,-3.527,o),
(1373,200,o),
(1451,405,o),
(1529,593,o),
(1574,668,qs),
(1618,740,o),
(1690,818,o),
(1713,818,qs),
(1727,818,o),
(1727,800,qs),
(1727,758.811,o),
(1658.812,663.373,o),
(1541.488,564.922,o),
(1392.076,475.512,o),
(1229.628,405.189,o),
(1070.188,364,o),
(1002,364,qs),
(839,364,o),
(658,474.993,o),
(658,574.887,qs),
(658,625.339,o),
(712,711.106,o),
(808,774.675,o),
(937,811,o),
(1011.462,811,qs),
(1098,811,o),
(1273,770,o),
(1435,698,o),
(1568.402,602,o),
(1658,491,o),
(1674,433,q),
(1678,434,l),
(1663,493,o),
(1573,604.929,o),
(1438,702,o),
(1275,776,o),
(1098,817,o),
(1011.08,817,qs),
(937,817,o),
(807,779,o),
(707.641,711.548,o),
(652,624.258,o),
(652,573.669,qs),
(652,507.21,o),
(737,410,o),
(893.816,358,o),
(1002,358,qs),
(1072,358,o),
(1234,399,o),
(1397.952,471,o),
(1547,562,o),
(1665,661.497,o),
(1733,760,o),
(1733,802,qs),
(1733,825,o),
(1710.882,825,qs),
(1686,825,o),
(1605,740,o),
(1563,668.478,qs),
(1525,603,o),
(1446,431.529,o),
(1355,239,o),
(1247,46,o),
(1116,-129,o),
(954.101,-266,o),
(756,-345,o),
(636,-345,qs),
(549,-345,o)
);
}
);
width = 1411;
}
);
note = uni1E9E;
unicode = 7838;
},
{
glyphname = uni018F;
layers = (
{
layerId = m01;
shapes = (
{
closed = 1;
nodes = (
(107,493,o),
(206,575,o),
(297,624,o),
(332,624,qs),
(385,624,o),
(385,578,qs),
(385,545,o),
(333,454,o),
(246,354,o),
(138,259,o),
(26,181,o),
(-76,135,o),
(-114,135,qs),
(-154,135,o),
(-197,175,o),
(-197,213,qs),
(-197,267,o),
(-136,394,o),
(-31,523,o),
(101,642,o),
(246,735,o),
(388,789,o),
(449,789,qs),
(514,789,o),
(602,741,o),
(646,647,o),
(646,578,qs),
(646,494,o),
(579,324,o),
(467,165,o),
(326,28,o),
(175,-74,o),
(34,-132,o),
(-23,-132,qs),
(-56,-132,o),
(-115,-108,o),
(-151,-53,o),
(-151,-5,qs),
(-151,46,o),
(-90,153,o),
(16,259,o),
(153,357,o),
(307,440,o),
(465,502,o),
(612,536,o),
(673,536,q),
(673,547,l),
(612,547,o),
(463,513,o),
(304,450,o),
(147,366,o),
(7,267,o),
(-100,159,o),
(-162,48,o),
(-162,-5,qs),
(-162,-56,o),
(-119,-118,o),
(-51,-146,o),
(-16,-146,qs),
(53,-146,o),
(212,-95,o),
(372,-3,o),
(518,122,o),
(633,272,o),
(699,439,o),
(699,525,qs),
(699,576,o),
(674,673,o),
(617,753,o),
(520,800,o),
(448,800,qs),
(386,800,o),
(241,745,o),
(94,650,o),
(-40,530,o),
(-146,398,o),
(-207,269,o),
(-207,213,qs),
(-207,171,o),
(-159,125,o),
(-114,125,qs),
(-72,125,o),
(36,170,o),
(152,245,o),
(260,339,o),
(347,439,o),
(399,532,o),
(399,569,qs),
(399,634,o),
(332,634,qs),
(296,634,o),
(201,584,o),
(99,501,o),
(51,449,q),
(59,442,l)
);
}
);
width = 931;
},
{
layerId = "D8AEADB0-1DB0-4081-A325-B35DA37C7650";
shapes = (
{
closed = 1;
nodes = (
(107,496,o),
(206,578,o),
(297,626,o),
(332,626,qs),
(387,626,o),
(387,578,qs),
(387,544.734,o),
(335,453,o),
(247,353,o),
(139,257,o),
(26,179,o),
(-76,133,o),
(-114,133,qs),
(-154.964,133,o),
(-199,175,o),
(-199,213.413,qs),
(-199,268,o),
(-138,395,o),
(-32.557,524,o),
(100,643,o),
(246,737,o),
(388,791,o),
(449,791,qs),
(521,791,o),
(608,737,o),
(648,641,o),
(648,578,qs),
(648,493,o),
(580.791,323,o),
(468.441,164,o),
(327,27,o),
(176,-76,o),
(34.288,-134,o),
(-23,-134,qs),
(-56.359,-134,o),
(-116,-110,o),
(-153,-53,o),
(-153,-4.846,qs),
(-153,46.317,o),
(-92.365,153.66,o),
(13,260,o),
(150.305,358,o),
(304.648,441,o),
(463,503,o),
(610,538,o),
(671,538,q),
(671,545,l),
(610.29,545,o),
(462,510,o),
(303,448,o),
(147.057,364,o),
(8,265,o),
(-99,158,o),
(-160,47.516,o),
(-160,-5.237,qs),
(-160,-56,o),
(-117.775,-116.622,o),
(-51,-144,o),
(-16.133,-144,qs),
(52.605,-144,o),
(211,-93,o),
(371,-1,o),
(517,124,o),
(631.365,273.054,o),
(697,439,o),
(697,525,qs),
(697,576,o),
(673,673,o),
(616.263,751.74,o),
(519.711,798,o),
(448.044,798,qs),
(386.33,798,o),
(242,743,o),
(95,649,o),
(-38,529,o),
(-144,397.416,o),
(-205,268.823,o),
(-205,213,qs),
(-205,171.955,o),
(-157,127,o),
(-114,127,qs),
(-72.316,127,o),
(34.872,172,o),
(150,247,o),
(259,340,o),
(346,440,o),
(397,533,o),
(397,568.912,qs),
(397,632,o),
(332,632,qs),
(296,632,o),
(203,583,o),
(102,500,o),
(54,449,q),
(59,445,l)
);
}
);
width = 931;
}
);
note = uni018F;
unicode = 399;
},
{
glyphname = T;
layers = (
{
anchors = (
{
name = bottom;
pos = (529,-67);
},
{
name = center;
pos = (1184,424);
},
{
name = top;
pos = (1401,770);
}
);
layerId = m01;
shapes = (
{
closed = 1;
nodes = (
(872,737,o),
(909,737,qs),
(987,737,o),
(1081,662,o),
(1081,600,qs),
(1081,544,o),
(1009,453,o),
(888,399,o),
(814,399,qs),
(723,399,o),
(581,458,o),
(500,562,o),
(500,629,qs),
(500,693,o),
(565,802,o),
(682,882,o),
(841,926,o),
(934,926,qs),
(1017,926,o),
(1174,889,o),
(1324,831,o),
(1471,766,o),
(1617,708,o),
(1764,671,o),
(1840,671,qs),
(1931,671,o),
(2053,735,o),
(2069,791,q),
(2058,792,l),
(2043,741,o),
(1925,681,o),
(1841,681,qs),
(1765,681,o),
(1614,723,o),
(1463,788,o),
(1313,862,o),
(1162,927,o),
(1010,969,o),
(934,969,qs),
(820,969,o),
(652,910,o),
(542,813,o),
(488,698,o),
(488,641,qs),
(488,575,o),
(560,460,o),
(705,389,o),
(813,389,qs),
(881,389,o),
(985,427,o),
(1055,489,o),
(1091,563,o),
(1091,600,qs),
(1091,639,o),
(1052,705,o),
(971,746,o),
(909,746,qs),
(872,746,o),
(804,727,o),
(779,710,q),
(784,701,l),
(807,718,o)
);
},
{
closed = 1;
nodes = (
(262,23,o),
(170,123,o),
(170,203,qs),
(170,255,o),
(225,358,o),
(328,442,o),
(472,492,o),
(562,492,qs),
(651,492,o),
(765,445,o),
(820,369,o),
(820,326,qs),
(820,289,o),
(779,212,o),
(701,148,o),
(589,109,o),
(517,109,qs),
(456,109,o),
(383,138,o),
(351,184,o),
(351,208,qs),
(351,238,o),
(412,303,o),
(537,349,o),
(632,349,qs),
(715,349,o),
(854,311,o),
(956,241,o),
(1013,146,o),
(1013,90,qs),
(1013,37,o),
(959,-80,o),
(843,-183,o),
(662,-248,o),
(534,-248,qs),
(408,-248,o),
(199,-181,o),
(47,-60,o),
(-37,108,o),
(-37,208,qs),
(-37,309,o),
(47,476,o),
(200,598,o),
(409,665,o),
(534,665,qs),
(588,665,o),
(699,647,o),
(801,610,o),
(879,552,o),
(899,511,q),
(909,514,l),
(888,556,o),
(808,617,o),
(703,656,o),
(588,675,o),
(534,675,qs),
(407,675,o),
(194,606,o),
(38,481,o),
(-47,310,o),
(-47,208,qs),
(-47,105,o),
(38,-65,o),
(193,-190,o),
(406,-258,o),
(534,-258,qs),
(664,-258,o),
(849,-192,o),
(967,-86,o),
(1023,35,o),
(1023,90,qs),
(1023,149,o),
(965,247,o),
(859,320,o),
(717,360,o),
(633,360,qs),
(535,360,o),
(405,311,o),
(341,240,o),
(341,207,qs),
(341,181,o),
(375,131,o),
(453,99,o),
(517,99,qs),
(592,99,o),
(708,140,o),
(788,207,o),
(830,287,o),
(830,326,qs),
(830,372,o),
(774,452,o),
(656,502,o),
(562,502,qs),
(471,502,o),
(322,451,o),
(217,365,o),
(160,259,o),
(160,203,qs),
(160,124,o),
(242,-1,o),
(407,-74,o),
(529,-74,qs),
(649,-74,o),
(869,5,o),
(951,84,qs),
(1006,136,o),
(1093,256,o),
(1172,382,o),
(1254,504,o),
(1302,558,qs),
(1325,582,o),
(1390,630,o),
(1458,668,o),
(1485,676,q),
(1433,676,l),
(1403,659,o),
(1329,607,o),
(1294,566,qs),
(1222,483,o),
(1093,331,o),
(972,200,o),
(853,93,o),
(729,17,o),
(592,-24,o),
(514,-24,qs),
(418,-24,o)
);
}
);
width = 1156;
},
{
layerId = "D8AEADB0-1DB0-4081-A325-B35DA37C7650";
shapes = (
{
closed = 1;
nodes = (
(872,739,o),
(909.354,739,qs),
(988.1,739,o),
(1083,663,o),
(1083,600.475,qs),
(1083,544,o),
(1011,451,o),
(888.869,397,o),
(814.178,397,qs),
(722.327,397,o),
(579,457,o),
(498,561.885,o),
(498,629.455,qs),
(498,694,o),
(563.357,803,o),
(681,883,o),
(840.475,928,o),
(933.752,928,qs),
(1017,928,o),
(1175.383,891,o),
(1326.705,833,o),
(1475,768,o),
(1620.003,710,o),
(1766,673,o),
(1840.18,673,qs),
(1929,673,o),
(2050.116,734.867,o),
(2066,789,q),
(2059,790,l),
(2043,739,o),
(1925,679,o),
(1841,679,qs),
(1764.665,679,o),
(1613,721,o),
(1463,786,o),
(1312,860,o),
(1161.997,925,o),
(1011,967,o),
(934,967,qs),
(820,967,o),
(653.209,908.378,o),
(544,812,o),
(490,697,o),
(490,640.927,qs),
(490,576,o),
(562,461,o),
(705,391,o),
(813,391,qs),
(880.605,391,o),
(984,428,o),
(1053.34,490,o),
(1089,564,o),
(1089,600.026,qs),
(1089,638,o),
(1050,704,o),
(971,744,o),
(909,744,qs),
(871,744,o),
(805,725,o),
(782,709,q),
(785,704,l),
(807,721,o)
);
},
{
closed = 1;
nodes = (
(261,24,o),
(168,126,o),
(168,206.34,qs),
(168,258.562,o),
(223,362,o),
(327,446,o),
(471.615,497,o),
(562,497,qs),
(651.877,497,o),
(767,449,o),
(822,373,o),
(822,329,qs),
(822,291.792,o),
(780.655,214.36,o),
(702,150,o),
(589.391,110,o),
(517,110,qs),
(455.545,110,o),
(382,140,o),
(349,186.46,o),
(349,210.7,qs),
(349,241,o),
(411,307,o),
(536.568,354,o),
(632,354,qs),
(713,354,o),
(852,316,o),
(956.566,246,o),
(1015,151,o),
(1015,93,qs),
(1015,39.688,o),
(960,-78,o),
(843.727,-181.613,o),
(662.301,-247,o),
(534,-247,qs),
(407.559,-247,o),
(197.827,-179.759,o),
(45.294,-58.325,o),
(-39,110.278,o),
(-39,210.637,qs),
(-39,312,o),
(45,480.156,o),
(198,603,o),
(408.251,670,o),
(534,670,qs),
(588,670,o),
(699,652,o),
(801,615,o),
(879,557,o),
(900,516,q),
(906,518,l),
(885,560,o),
(805,619,o),
(701,658,o),
(588,676,o),
(534.137,676,qs),
(407.459,676,o),
(195,608,o),
(40,483,o),
(-45,313,o),
(-45,211.272,qs),
(-45,108.547,o),
(39,-61,o),
(193.618,-185.352,o),
(406.092,-253,o),
(533.777,-253,qs),
(663.456,-253,o),
(848,-187,o),
(966,-82,o),
(1021,39,o),
(1021,93,qs),
(1021,152,o),
(962,250,o),
(856.855,321.708,o),
(716,361,o),
(632.808,361,qs),
(535.75,361,o),
(407,312,o),
(343,242.34,o),
(343,209.962,qs),
(343,184.453,o),
(377,135.396,o),
(453,104,o),
(516.749,104,qs),
(591.455,104,o),
(707,144,o),
(787,211,o),
(828,290,o),
(828,328.637,qs),
(828,374.209,o),
(772.331,453.465,o),
(655.028,503,o),
(561.583,503,qs),
(471.12,503,o),
(323,452,o),
(218,367,o),
(162,261,o),
(162,205.83,qs),
(162,128,o),
(244,3,o),
(407,-69,o),
(529,-69,qs),
(648.647,-69,o),
(868,10,o),
(950,88,qs),
(1006,141,o),
(1093,261,o),
(1170,386,o),
(1251,508,o),
(1301,562,qs),
(1328,592,o),
(1395,640,o),
(1461,672,o),
(1485,677,q),
(1434,677,l),
(1404,659.507,o),
(1330,606,o),
(1295,568,qs),
(1243,511,o),
(1135,380,o),
(1021,247,o),
(897,127,o),
(759,32,o),
(602.884,-23,o),
(514,-23,qs),
(417.619,-23,o)
);
}
);
width = 1120;
}
);
note = T;
unicode = 84;
},
{
glyphname = U;
layers = (
{
anchors = (
{
name = top;
pos = (1208,770);
}
);
layerId = m01;
shapes = (
{
closed = 1;
nodes = (
(1352,-457,o),
(1264,-522,o),
(1204,-522,qs),
(1139,-522,o),
(1035,-439,o),
(976,-296,o),
(976,-205,qs),
(976,-130,o),
(1028,46,o),
(1122,233,o),
(1251,420,o),
(1407,591,o),
(1494,661,q),
(1438,661,l),
(1134,301,l),
(1025,185,o),
(828,14,o),
(675,-80,o),
(630,-80,qs),
(614,-80,o),
(594,-61,o),
(594,-45,qs),
(594,-22,o),
(640,44,o),
(716,125,o),
(806,219,o),
(896,322,o),
(972,432,o),
(1018,546,o),
(1018,603,qs),
(1018,666,o),
(962,761,o),
(861,813,o),
(793,813,qs),
(728,813,o),
(581,760,o),
(434,668,o),
(301,550,o),
(197,419,o),
(137,290,o),
(137,232,qs),
(137,188,o),
(186,139,o),
(230,139,qs),
(272,139,o),
(380,184,o),
(496,260,o),
(604,356,o),
(691,457,o),
(743,551,o),
(743,588,qs),
(743,620,o),
(710,653,o),
(676,653,qs),
(638,653,o),
(540,600,o),
(434,511,o),
(335,401,o),
(254,284,o),
(207,175,o),
(207,133,qs),
(207,91,o),
(256,45,o),
(302,45,qs),
(362,45,o),
(491,99,o),
(619,193,o),
(733,314,o),
(821,450,o),
(871,589,o),
(871,652,qs),
(871,774,o),
(769,893,o),
(664,893,qs),
(549,893,o),
(331,810,o),
(141,664,o),
(-3,471,o),
(-84,248,o),
(-84,132,qs),
(-84,16,o),
(-4,-172,o),
(145,-306,o),
(353,-378,o),
(482,-378,qs),
(580,-378,o),
(776,-336,o),
(856,-297,q),
(853,-287,l),
(774,-326,o),
(581,-368,o),
(482,-368,qs),
(355,-368,o),
(150,-298,o),
(4,-166,o),
(-74,18,o),
(-74,132,qs),
(-74,247,o),
(6,466,o),
(148,656,o),
(336,801,o),
(551,883,o),
(664,883,qs),
(765,883,o),
(861,771,o),
(861,652,qs),
(861,594,o),
(809,460,o),
(721,326,o),
(607,205,o),
(482,110,o),
(358,55,o),
(303,55,qs),
(217,55,o),
(217,133,qs),
(217,173,o),
(264,279,o),
(343,394,o),
(442,503,o),
(545,591,o),
(640,643,o),
(676,643,qs),
(729,643,o),
(729,597,qs),
(729,564,o),
(677,472,o),
(590,371,o),
(482,274,o),
(370,196,o),
(268,149,o),
(230,149,qs),
(190,149,o),
(147,192,o),
(147,232,qs),
(147,288,o),
(207,415,o),
(309,543,o),
(441,660,o),
(586,750,o),
(730,803,o),
(793,803,qs),
(967,803,o),
(967,638,qs),
(967,566,o),
(908,437,o),
(816,322,o),
(711,217,o),
(619,122,o),
(560,33,o),
(560,-10,qs),
(560,-46,o),
(599,-90,o),
(630,-90,qs),
(663,-90,o),
(761,-43,o),
(883,47,o),
(1026,174,o),
(1104,255,q),
(1019,144,o),
(937,-62,o),
(937,-181,qs),
(937,-256,o),
(977,-384,o),
(1049,-479,o),
(1147,-532,o),
(1204,-532,qs),
(1267,-532,o),
(1360,-465,o),
(1411,-344,o),
(1411,-263,qs),
(1411,-144,o),
(1360,-35,q),
(1351,-40,l),
(1401,-147,o),
(1401,-262,qs),
(1401,-340,o)
);
}
);
width = 1198;
},
{
layerId = "D8AEADB0-1DB0-4081-A325-B35DA37C7650";
shapes = (
{
closed = 1;
nodes = (
(1354,-459,o),
(1264,-524,o),
(1204,-524,qs),
(1138,-524,o),
(1034,-441,o),
(974,-296,o),
(974,-205,qs),
(974,-131,o),
(1025,45,o),
(1119,232,o),
(1247,417,o),
(1402,588,o),
(1488,659,q),
(1439,659,l),
(1135,300,l),
(1026,184,o),
(829,12,o),
(675,-82,o),
(630,-82,qs),
(614,-82,o),
(592,-61,o),
(592,-45,qs),
(592,-18,o),
(638,49,o),
(714,130,o),
(804,221,o),
(894,321,o),
(970,430,o),
(1016,544,o),
(1016,603,qs),
(1016,655,o),
(970,750,o),
(872,811,o),
(793,811,qs),
(734,811,o),
(592,760,o),
(445,672,o),
(309,557,o),
(202,427,o),
(139,294,o),
(139,232,qs),
(139,186,o),
(190,141,o),
(230,141,qs),
(271,141,o),
(378,186,o),
(493,261,o),
(601,355,o),
(689,456,o),
(741,551,o),
(741,588,qs),
(741,616,o),
(713,651,o),
(676,651,qs),
(637,651,o),
(538,598,o),
(433,508,o),
(334,396,o),
(256,280,o),
(209,173,o),
(209,133,qs),
(209,91,o),
(258,47,o),
(302,47,qs),
(355,47,o),
(479,97,o),
(606,186,o),
(723,303,o),
(815,439,o),
(869,582,o),
(869,652,qs),
(869,774,o),
(768,891,o),
(664,891,qs),
(550,891,o),
(332,808,o),
(142,662,o),
(-1,469,o),
(-82,248,o),
(-82,132,qs),
(-82,17,o),
(-2,-171,o),
(146,-304,o),
(354,-376,o),
(482,-376,qs),
(581,-376,o),
(775,-333,o),
(854,-296,q),
(852,-290,l),
(773,-328,o),
(580,-370,o),
(482,-370,qs),
(355,-370,o),
(149,-299,o),
(3,-167,o),
(-76,18,o),
(-76,132,qs),
(-76,247,o),
(4,467,o),
(147,658,o),
(335,803,o),
(551,885,o),
(664,885,qs),
(765,885,o),
(863,772,o),
(863,652,qs),
(863,590,o),
(810,454,o),
(718,320,o),
(603,199,o),
(477,106,o),
(355,53,o),
(303,53,qs),
(215,53,o),
(215,133,qs),
(215,174,o),
(262,280,o),
(342,395,o),
(440,504,o),
(544,593,o),
(640,645,o),
(676,645,qs),
(731,645,o),
(731,597,qs),
(731,563,o),
(679,471,o),
(591,370,o),
(483,273,o),
(370,194,o),
(268,147,o),
(230,147,qs),
(188,147,o),
(145,192,o),
(145,232,qs),
(145,291,o),
(206,420,o),
(311,549,o),
(444,664,o),
(590,753,o),
(732,805,o),
(793,805,qs),
(969,805,o),
(969,638,qs),
(969,564,o),
(910,435,o),
(818,320,o),
(713,218,o),
(621,123,o),
(562,34,o),
(562,-10,qs),
(562,-47,o),
(602,-88,o),
(630,-88,qs),
(669,-88,o),
(778,-31,o),
(905,67,o),
(1039,190,o),
(1103,256,q),
(1027,153,o),
(939,-56,o),
(939,-181,qs),
(939,-245,o),
(973,-369,o),
(1040,-470,o),
(1139,-530,o),
(1204,-530,qs),
(1268,-530,o),
(1360,-461,o),
(1409,-341,o),
(1409,-263,qs),
(1409,-147,o),
(1359,-38,q),
(1354,-41,l),
(1403,-149,o),
(1403,-262,qs),
(1403,-341,o)
);
}
);
width = 1162;
}
);
note = U;
unicode = 85;
},
{
glyphname = V;
layers = (
{
layerId = m01;
shapes = (
{
closed = 1;
nodes = (
(945,40,o),
(1095,183,o),
(1160,256,qs),
(1186,286,o),
(1252,379,o),
(1313,491,o),
(1354,605,o),
(1354,654,qs),
(1354,684,o),
(1336,736,o),
(1320,749,q),
(1313,743,l),
(1325,733,o),
(1342,688,o),
(1342,664,qs),
(1342,619,o),
(1293,486,o),
(1205,336,o),
(1145,263,qs),
(1056,155,o),
(838,-36,o),
(716,-94,qs),
(707,-98,o),
(664,-114,o),
(610,-135,o),
(560,-159,o),
(527,-182,o),
(527,-192,qs),
(527,-210,o),
(547,-210,qs),
(566,-210,o),
(629,-174,o),
(707,-112,o),
(790,-33,o),
(869,53,o),
(901,94,qs),
(946,154,o),
(1008,281,o),
(1040,404,o),
(1040,456,qs),
(1040,559,o),
(958,730,o),
(808,854,o),
(601,921,o),
(475,921,qs),
(375,921,o),
(202,870,o),
(74,778,o),
(2,655,o),
(2,583,qs),
(2,501,o),
(95,376,o),
(259,304,o),
(365,304,qs),
(444,304,o),
(573,347,o),
(651,418,o),
(651,460,qs),
(651,507,o),
(553,565,o),
(474,565,qs),
(411,565,o),
(300,531,o),
(217,471,o),
(169,392,o),
(169,347,qs),
(169,292,o),
(237,208,o),
(361,162,o),
(443,162,qs),
(541,162,o),
(694,210,o),
(799,293,o),
(854,399,o),
(854,456,qs),
(854,538,o),
(753,662,o),
(573,732,o),
(454,732,qs),
(352,732,o),
(176,672,o),
(44,565,o),
(-29,421,o),
(-29,338,qs),
(-29,234,o),
(90,77,o),
(305,-10,o),
(447,-10,qs),
(536,-10,o),
(688,31,o),
(798,103,o),
(822,151,q),
(812,154,l),
(789,108,o),
(683,39,o),
(535,0,o),
(447,0,qs),
(308,0,o),
(98,84,o),
(-19,236,o),
(-19,338,qs),
(-19,419,o),
(53,559,o),
(182,664,o),
(354,722,o),
(454,722,qs),
(568,722,o),
(744,654,o),
(844,534,o),
(844,456,qs),
(844,400,o),
(790,298,o),
(686,219,o),
(537,173,o),
(443,173,qs),
(365,173,o),
(246,216,o),
(179,293,o),
(179,344,qs),
(179,388,o),
(225,464,o),
(306,522,o),
(413,555,o),
(474,555,qs),
(548,555,o),
(640,503,o),
(640,460,qs),
(640,420,o),
(566,354,o),
(442,314,o),
(366,314,qs),
(262,314,o),
(102,382,o),
(12,504,o),
(12,583,qs),
(12,653,o),
(82,772,o),
(207,861,o),
(375,911,o),
(472,911,qs),
(583,911,o),
(766,852,o),
(899,743,o),
(972,593,o),
(972,503,qs),
(972,436,o),
(937,296,o),
(878,160,o),
(841,98,qs),
(791,14,o),
(681,-118,o),
(586,-193,o),
(558,-193,qs),
(548,-193,o),
(548,-187,qs),
(548,-185,o),
(557,-176,o),
(586,-159,o),
(647,-132,o),
(699,-111,qs),
(784,-77,o)
);
}
);
width = 1162;
},
{
layerId = "D8AEADB0-1DB0-4081-A325-B35DA37C7650";
shapes = (
{
closed = 1;
nodes = (
(943,43.75,o),
(1093,184,o),
(1158,257,qs),
(1184,287,o),
(1250,380,o),
(1311,491.593,o),
(1352,605.178,o),
(1352,654,qs),
(1352,682,o),
(1336,733,o),
(1320,746,q),
(1316,743,l),
(1328,732,o),
(1344,687.395,o),
(1344,663.605,qs),
(1344,619,o),
(1295,485.626,o),
(1207,335.205,o),
(1147,262,qs),
(1057,155,o),
(834,-32,o),
(717,-92,qs),
(700,-101,o),
(651,-120,o),
(600,-140,o),
(556,-161,o),
(529,-182,o),
(529,-192,qs),
(529,-208,o),
(547,-208,qs),
(566,-208,o),
(629,-172,o),
(706.031,-110.44,o),
(788,-32,o),
(867,54,o),
(899,95,qs),
(944,155,o),
(1006,282,o),
(1038,404.356,o),
(1038,456.084,qs),
(1038,558.545,o),
(956,728.649,o),
(806,852,o),
(599.956,919,o),
(474.538,919,qs),
(375,919,o),
(204,868,o),
(76,776.641,o),
(4,654.498,o),
(4,583,qs),
(4,502,o),
(96,377,o),
(259,306,o),
(364.662,306,qs),
(443.411,306,o),
(572,348,o),
(649,418.372,o),
(649,460,qs),
(649,506.105,o),
(552.117,563,o),
(474.017,563,qs),
(411.735,563,o),
(302,529,o),
(218,470,o),
(171,392,o),
(171,347,qs),
(171,292,o),
(239,210,o),
(361,164,o),
(442.813,164,qs),
(540.589,164,o),
(693.24,211.634,o),
(798,294,o),
(852,399.35,o),
(852,456,qs),
(852,537.602,o),
(752,661,o),
(572.602,730,o),
(454,730,qs),
(352.498,730,o),
(177.356,670,o),
(46,563,o),
(-27,421,o),
(-27,338.483,qs),
(-27,235.087,o),
(92,79,o),
(305,-8,o),
(447,-8,qs),
(535.288,-8,o),
(686.072,32.236,o),
(795.192,102.894,o),
(819,150,q),
(813,152,l),
(789.822,105.6,o),
(683,36,o),
(534,-2,o),
(447,-2,qs),
(307,-2,o),
(96.358,82.712,o),
(-21,236,o),
(-21,338.316,qs),
(-21,419.567,o),
(51,560,o),
(181,665,o),
(353.632,724,o),
(454,724,qs),
(568.786,724,o),
(746,655,o),
(846,535,o),
(846,456.339,qs),
(846,399.864,o),
(791,297,o),
(687,217.368,o),
(538,171,o),
(443.031,171,qs),
(364.227,171,o),
(244,215,o),
(177,292.602,o),
(177,344,qs),
(177,388.417,o),
(223.312,465.137,o),
(304.861,523.687,o),
(412.586,557,o),
(474,557,qs),
(548.892,557,o),
(642,504,o),
(642,460.482,qs),
(642,420,o),
(567,352,o),
(442,312,o),
(365.776,312,qs),
(261.471,312,o),
(101,381,o),
(10,503,o),
(10,582.582,qs),
(10,653.098,o),
(80.245,772.975,o),
(205.683,862.631,o),
(374.271,913,o),
(471.611,913,qs),
(583,913,o),
(768,853,o),
(901,744,o),
(974,594,o),
(974,503.394,qs),
(974,435.943,o),
(939,295,o),
(880,159,o),
(843,97,qs),
(793,13,o),
(683,-119,o),
(587,-195,o),
(558,-195,qs),
(546,-195,o),
(546,-187,qs),
(546,-177,o),
(584,-154,o),
(637,-132,o),
(686,-114,o),
(698,-109,qs),
(782,-71,o)
);
}
);
width = 1126;
}
);
note = V;
unicode = 86;
},
{
glyphname = W;
layers = (
{
anchors = (
{
name = bottom;
pos = (723,0);
},
{
name = top;
pos = (1305,770);
}
);
layerId = m01;
shapes = (
{
closed = 1;
nodes = (
(1186,129,o),
(1245,278,o),
(1279,426,o),
(1288,493,qs),
(1300,590,o),
(1319,691,o),
(1340,729,o),
(1355,729,qs),
(1376,729,o),
(1376,685,qs),
(1376,637,o),
(1319,498,o),
(1215,340,o),
(1146,263,qs),
(1043,154,o),
(788,-34,o),
(647,-90,qs),
(626,-98,o),
(584,-116,o),
(548,-134,o),
(527,-153,o),
(527,-162,qs),
(527,-180,o),
(547,-180,qs),
(566,-180,o),
(629,-144,o),
(707,-82,o),
(790,-3,o),
(869,83,o),
(901,124,qs),
(969,206,o),
(1040,385,o),
(1040,456,qs),
(1040,559,o),
(958,730,o),
(808,854,o),
(601,921,o),
(475,921,qs),
(375,921,o),
(202,870,o),
(74,778,o),
(2,655,o),
(2,583,qs),
(2,501,o),
(95,376,o),
(259,304,o),
(365,304,qs),
(444,304,o),
(573,347,o),
(651,418,o),
(651,460,qs),
(651,507,o),
(553,565,o),
(474,565,qs),
(411,565,o),
(300,531,o),
(217,471,o),
(169,392,o),
(169,347,qs),
(169,292,o),
(237,208,o),
(361,162,o),
(443,162,qs),
(541,162,o),
(694,210,o),
(799,293,o),
(854,399,o),
(854,456,qs),
(854,538,o),
(753,662,o),
(573,732,o),
(454,732,qs),
(352,732,o),
(176,672,o),
(44,565,o),
(-29,421,o),
(-29,338,qs),
(-29,234,o),
(90,77,o),
(305,-10,o),
(447,-10,qs),
(536,-10,o),
(688,31,o),
(798,103,o),
(822,151,q),
(812,154,l),
(789,108,o),
(683,39,o),
(535,0,o),
(447,0,qs),
(308,0,o),
(98,84,o),
(-19,236,o),
(-19,338,qs),
(-19,419,o),
(53,559,o),
(182,664,o),
(354,722,o),
(454,722,qs),
(568,722,o),
(744,654,o),
(844,534,o),
(844,456,qs),
(844,400,o),
(790,298,o),
(686,219,o),
(537,173,o),
(443,173,qs),
(365,173,o),
(246,216,o),
(179,293,o),
(179,344,qs),
(179,388,o),
(225,464,o),
(306,522,o),
(413,555,o),
(474,555,qs),
(548,555,o),
(640,503,o),
(640,460,qs),
(640,420,o),
(566,354,o),
(442,314,o),
(366,314,qs),
(262,314,o),
(102,382,o),
(12,504,o),
(12,583,qs),
(12,653,o),
(82,772,o),
(207,861,o),
(375,911,o),
(472,911,qs),
(583,911,o),
(766,852,o),
(899,743,o),
(972,593,o),
(972,503,qs),
(972,409,o),
(897,214,o),
(841,128,qs),
(791,44,o),
(681,-88,o),
(586,-163,o),
(558,-163,qs),
(548,-163,o),
(548,-157,qs),
(548,-150,o),
(571,-133,o),
(607,-116,o),
(647,-100,o),
(665,-94,qs),
(722,-74,o),
(854,1,o),
(988,98,o),
(1111,204,o),
(1159,256,qs),
(1183,282,o),
(1244,358,o),
(1305,448,o),
(1356,543,o),
(1387,635,o),
(1387,675,qs),
(1387,739,o),
(1355,739,qs),
(1324,739,o),
(1279,620,o),
(1266,510,qs),
(1257,443,o),
(1214,287,o),
(1146,127,o),
(1055,-18,o),
(999,-74,qs),
(959,-113,o),
(888,-163,o),
(866,-163,qs),
(856,-163,o),
(856,-157,qs),
(856,-150,o),
(879,-133,o),
(915,-116,o),
(955,-100,o),
(973,-94,qs),
(1043,-69,o),
(1199,27,o),
(1353,157,o),
(1492,307,o),
(1600,464,o),
(1662,617,o),
(1662,684,qs),
(1662,714,o),
(1644,766,o),
(1628,779,q),
(1621,773,l),
(1633,763,o),
(1650,718,o),
(1650,694,qs),
(1650,626,o),
(1592,475,o),
(1489,321,o),
(1353,174,o),
(1198,44,o),
(1034,-58,o),
(955,-90,qs),
(934,-99,o),
(892,-116,o),
(856,-134,o),
(835,-153,o),
(835,-162,qs),
(835,-180,o),
(855,-180,qs),
(879,-180,o),
(970,-120,o),
(1028,-68,qs),
(1094,-10,o)
);
}
);
width = 1482;
},
{
layerId = "D8AEADB0-1DB0-4081-A325-B35DA37C7650";
shapes = (
{
closed = 1;
nodes = (
(1184,129,o),
(1243,279,o),
(1277,426,o),
(1286,493,qs),
(1298,590,o),
(1317,693,o),
(1339,731,o),
(1355.25,731,qs),
(1378,731,o),
(1378,685,qs),
(1378,637,o),
(1320,498,o),
(1217,339,o),
(1147,262,qs),
(1056,165,o),
(834,-2,o),
(717,-62,qs),
(695,-73,o),
(632,-98,o),
(570,-123,o),
(529,-149.464,o),
(529,-162,qs),
(529,-178,o),
(547,-178,qs),
(566,-178,o),
(629,-142,o),
(706.031,-80.44,o),
(788,-2,o),
(867,83.847,o),
(899,124.774,qs),
(967,206.628,o),
(1038,385.31,o),
(1038,456.183,qs),
(1038,559,o),
(956,728.841,o),
(806,852,o),
(599.956,919,o),
(474.538,919,qs),
(375,919,o),
(204,868,o),
(76,776.641,o),
(4,654.498,o),
(4,583,qs),
(4,502,o),
(96,377,o),
(259,306,o),
(364.662,306,qs),
(443.411,306,o),
(572,348,o),
(649,418.372,o),
(649,460,qs),
(649,506.105,o),
(552.117,563,o),
(474.017,563,qs),
(411.735,563,o),
(302,529,o),
(218,470,o),
(171,392,o),
(171,347,qs),
(171,292,o),
(239,210,o),
(361,164,o),
(442.813,164,qs),
(540.589,164,o),
(693.24,211.634,o),
(798,294,o),
(852,399.35,o),
(852,456,qs),
(852,537.602,o),
(752,661,o),
(572.602,730,o),
(454,730,qs),
(352.498,730,o),
(177.356,670,o),
(46,563,o),
(-27,421,o),
(-27,338.483,qs),
(-27,235.087,o),
(92,79,o),
(305,-8,o),
(447,-8,qs),
(535.288,-8,o),
(686.072,32.236,o),
(795.192,102.894,o),
(819,150,q),
(813,152,l),
(789.822,105.6,o),
(683,36,o),
(534,-2,o),
(447,-2,qs),
(307,-2,o),
(96.358,82.712,o),
(-21,236,o),
(-21,338.316,qs),
(-21,419.567,o),
(51,560,o),
(181,665,o),
(353.632,724,o),
(454,724,qs),
(568.786,724,o),
(746,655,o),
(846,535,o),
(846,456.339,qs),
(846,399.864,o),
(791,297,o),
(687,217.368,o),
(538,171,o),
(443.031,171,qs),
(364.227,171,o),
(244,215,o),
(177,292.602,o),
(177,344,qs),
(177,388.417,o),
(223.312,465.137,o),
(304.861,523.687,o),
(412.586,557,o),
(474,557,qs),
(548.892,557,o),
(642,504,o),
(642,460.482,qs),
(642,420,o),
(567,352,o),
(442,312,o),
(365.776,312,qs),
(261.471,312,o),
(101,381,o),
(10,503,o),
(10,582.582,qs),
(10,653.098,o),
(80.245,772.975,o),
(205.683,862.631,o),
(374.271,913,o),
(471.611,913,qs),
(583,913,o),
(768,853,o),
(901,744,o),
(974,593.512,o),
(974,503.22,qs),
(974,408.914,o),
(899,213.28,o),
(843,127,qs),
(793,43,o),
(683,-89,o),
(587,-165,o),
(558,-165,qs),
(546,-165,o),
(546,-156.8,qs),
(546,-147.233,o),
(584,-124,o),
(637,-102,o),
(686,-84,o),
(698,-79,qs),
(761,-50,o),
(884,23,o),
(1001,109,o),
(1110,206,o),
(1158,257,qs),
(1181.836,283,o),
(1242.418,359,o),
(1303,449,o),
(1354,543.581,o),
(1385,635.176,o),
(1385,675,qs),
(1385,737,o),
(1355.032,737,qs),
(1326,737,o),
(1281,619.039,o),
(1268,510,qs),
(1259,442.7,o),
(1216,286,o),
(1147.572,126,o),
(1056,-19,o),
(1000,-75.386,qs),
(960,-114.655,o),
(889,-165,o),
(866,-165,qs),
(854,-165,o),
(854,-156.8,qs),
(854,-147.233,o),
(892,-124,o),
(945,-102,o),
(994,-84,o),
(1006,-79,qs),
(1076,-47,o),
(1226,52,o),
(1373,178,o),
(1503,320,o),
(1603,469,o),
(1660,617,o),
(1660,684,qs),
(1660,712,o),
(1644,763,o),
(1628,776,q),
(1624,773,l),
(1636,762,o),
(1652,717.328,o),
(1652,693.504,qs),
(1652,626,o),
(1596,481,o),
(1499,334,o),
(1374,196,o),
(1233,72,o),
(1091,-28,o),
(1025,-62,qs),
(1003,-73,o),
(940,-98,o),
(878,-123,o),
(837,-149.464,o),
(837,-162,qs),
(837,-178,o),
(855,-178,qs),
(879.626,-178,o),
(973,-116,o),
(1027,-67,qs),
(1093,-9,o)
);
}
);
width = 1446;
}
);
note = W;
unicode = 87;
},
{
glyphname = X;
layers = (
{
layerId = m01;
shapes = (
{
closed = 1;
nodes = (
(1261,609,o),
(1082,468,o),
(932,308,o),
(821,140,o),
(760,-25,o),
(760,-100,qs),
(760,-162,o),
(806,-258,o),
(888,-311,o),
(942,-311,qs),
(990,-311,o),
(1026,-282,q),
(1020,-275,l),
(985,-301,o),
(943,-301,qs),
(894,-301,o),
(820,-252,o),
(779,-164,o),
(779,-105,qs),
(779,-32,o),
(839,131,o),
(948,299,o),
(1096,459,o),
(1272,601,o),
(1466,711,o),
(1566,744,q),
(1561,752,l),
(1459,719,o)
);
},
{
closed = 1;
nodes = (
(561,-47,o),
(724,57,o),
(869,191,o),
(980,343,o),
(1044,499,o),
(1044,571,qs),
(1044,632,o),
(991,727,o),
(898,781,o),
(838,781,qs),
(774,781,o),
(625,726,o),
(473,632,o),
(334,512,o),
(225,380,o),
(162,251,o),
(162,195,qs),
(162,153,o),
(210,107,o),
(255,107,qs),
(297,107,o),
(405,152,o),
(521,227,o),
(629,321,o),
(716,421,o),
(768,514,o),
(768,551,qs),
(768,616,o),
(701,616,qs),
(663,616,o),
(565,563,o),
(459,474,o),
(360,364,o),
(279,247,o),
(232,138,o),
(232,96,qs),
(232,59,o),
(284,14,o),
(327,14,qs),
(393,14,o),
(528,65,o),
(656,156,o),
(766,276,o),
(849,415,o),
(896,563,o),
(896,635,qs),
(896,751,o),
(779,876,o),
(669,876,qs),
(578,876,o),
(400,814,o),
(238,703,o),
(100,553,o),
(-2,377,o),
(-59,184,o),
(-59,85,qs),
(-59,-43,o),
(39,-232,o),
(217,-335,o),
(337,-335,qs),
(458,-335,o),
(564,-271,q),
(559,-262,l),
(454,-325,o),
(337,-325,qs),
(220,-325,o),
(46,-224,o),
(-49,-39,o),
(-49,85,qs),
(-49,182,o),
(7,373,o),
(108,548,o),
(244,695,o),
(405,805,o),
(580,866,o),
(669,866,qs),
(774,866,o),
(886,748,o),
(886,635,qs),
(886,567,o),
(838,425,o),
(755,288,o),
(645,168,o),
(520,76,o),
(390,24,o),
(328,24,qs),
(290,24,o),
(242,64,o),
(242,96,qs),
(242,136,o),
(289,242,o),
(368,357,o),
(467,466,o),
(570,554,o),
(665,606,o),
(701,606,qs),
(754,606,o),
(754,560,qs),
(754,527,o),
(702,436,o),
(615,336,o),
(507,241,o),
(395,163,o),
(293,117,o),
(255,117,qs),
(215,117,o),
(172,158,o),
(172,195,qs),
(172,249,o),
(235,376,o),
(343,505,o),
(479,624,o),
(629,717,o),
(775,771,o),
(838,771,qs),
(912,771,o),
(993,684,o),
(993,606,qs),
(993,549,o),
(945,419,o),
(862,284,o),
(752,153,o),
(627,40,o),
(497,-48,o),
(371,-97,o),
(317,-97,qs),
(243,-97,o),
(164,-44,o),
(164,6,qs),
(164,35,o),
(175,54,q),
(166,58,l),
(154,28,o),
(154,6,qs),
(154,-49,o),
(238,-107,o),
(317,-107,qs),
(394,-107,o)
);
}
);
width = 1036;
},
{
layerId = "D8AEADB0-1DB0-4081-A325-B35DA37C7650";
shapes = (
{
closed = 1;
nodes = (
(1261,605,o),
(1083,464,o),
(933,303,o),
(823,136,o),
(762,-26.513,o),
(762,-100.382,qs),
(762,-161.447,o),
(808,-256,o),
(888.663,-309,o),
(941.783,-309,qs),
(989,-309,o),
(1023,-282,q),
(1020,-278,l),
(988,-303,o),
(943,-303,qs),
(894,-303,o),
(818.713,-253.285,o),
(777,-164,o),
(777,-105.447,qs),
(777,-33,o),
(837,130,o),
(946,298,o),
(1093,459,o),
(1269,601.498,o),
(1463,711.884,o),
(1563,745,q),
(1560,750,l),
(1458,716,o)
);
},
{
closed = 1;
nodes = (
(560,-46,o),
(723,58,o),
(867,193,o),
(978,344,o),
(1042,499.46,o),
(1042,571.211,qs),
(1042,632,o),
(989,725,o),
(897.216,779,o),
(838,779,qs),
(774,779,o),
(625,724,o),
(474.045,630,o),
(336,510,o),
(227,378.833,o),
(164,250.647,o),
(164,195,qs),
(164,153.955,o),
(212,109,o),
(255,109,qs),
(296.684,109,o),
(403.872,154,o),
(519,229,o),
(628,322,o),
(715,422,o),
(766,515,o),
(766,550.912,qs),
(766,614,o),
(701,614,qs),
(663.162,614,o),
(565.58,561.204,o),
(460.032,472.546,o),
(361.454,362.969,o),
(280.8,246.419,o),
(234,137.838,o),
(234,96,qs),
(234,59.902,o),
(286,16,o),
(327,16,qs),
(393,16,o),
(528,67,o),
(655,157,o),
(764,277,o),
(847,415.707,o),
(894,563.396,o),
(894,635.244,qs),
(894,751,o),
(778.104,874,o),
(669.142,874,qs),
(579,874,o),
(401,812,o),
(239.403,701.254,o),
(101.746,551.597,o),
(0,376,o),
(-57,183,o),
(-57,84.872,qs),
(-57,-42,o),
(40.29,-230.353,o),
(217,-333,o),
(337,-333,qs),
(458,-333,o),
(561,-270,q),
(558,-265,l),
(453.473,-327,o),
(337,-327,qs),
(219,-327,o),
(45,-226,o),
(-51,-39.633,o),
(-51,85.283,qs),
(-51,183,o),
(5.357,374,o),
(107,549,o),
(243,697,o),
(404.379,807,o),
(579.791,868,o),
(669,868,qs),
(774.968,868,o),
(888,748,o),
(888,634.754,qs),
(888,566.607,o),
(839.634,424.298,o),
(756,287,o),
(646,166,o),
(520.606,74,o),
(390.196,22,o),
(328,22,qs),
(289.116,22,o),
(240,63.071,o),
(240,95.929,qs),
(240,137,o),
(287.373,243,o),
(367,358,o),
(465,467,o),
(568.88,555.629,o),
(664.692,608,o),
(701,608,qs),
(756,608,o),
(756,560,qs),
(756,526.734,o),
(704,435,o),
(616,335,o),
(508,239,o),
(395,161,o),
(293,115,o),
(255,115,qs),
(214.036,115,o),
(170,156.932,o),
(170,194.773,qs),
(170,250,o),
(233,377,o),
(341.443,506,o),
(478,625,o),
(628,719,o),
(774.516,773,o),
(837.739,773,qs),
(912,773,o),
(995,684.945,o),
(995,606,qs),
(995,549,o),
(947,419,o),
(863,283,o),
(754,152,o),
(628,38,o),
(497,-49,o),
(372,-99,o),
(316.734,-99,qs),
(241,-99,o),
(162,-44.971,o),
(162,6,qs),
(162,33,o),
(172,53,q),
(167,55,l),
(156,28,o),
(156,6.326,qs),
(156,-47.859,o),
(238.969,-105,o),
(317,-105,qs),
(393.684,-105,o)
);
}
);
width = 1000;
}
);
note = X;
unicode = 88;
},
